%TF.GenerationSoftware,KiCad,Pcbnew,8.0.8*%
%TF.CreationDate,2025-02-11T21:46:50+01:00*%
%TF.ProjectId,macro33,6d616372-6f33-4332-9e6b-696361645f70,1*%
%TF.SameCoordinates,Original*%
%TF.FileFunction,Soldermask,Bot*%
%TF.FilePolarity,Negative*%
%FSLAX46Y46*%
G04 Gerber Fmt 4.6, Leading zero omitted, Abs format (unit mm)*
G04 Created by KiCad (PCBNEW 8.0.8) date 2025-02-11 21:46:50*
%MOMM*%
%LPD*%
G01*
G04 APERTURE LIST*
%ADD10O,0.800000X1.400000*%
%ADD11C,0.600000*%
%ADD12C,1.900000*%
%ADD13C,1.700000*%
%ADD14C,3.000000*%
%ADD15C,4.100000*%
G04 APERTURE END LIST*
D10*
%TO.C,USBC1*%
X77630000Y-65640000D03*
X85890000Y-65640000D03*
X86250000Y-61250000D03*
X77270000Y-61250000D03*
D11*
X78960000Y-66240000D03*
X79360000Y-65540000D03*
X80160000Y-65540000D03*
X80560000Y-66240000D03*
X80960000Y-65540000D03*
X81360000Y-66240000D03*
X82160000Y-66240000D03*
X82560000Y-65540000D03*
X82960000Y-66240000D03*
X83360000Y-65540000D03*
X84160000Y-65540000D03*
X84560000Y-66240000D03*
%TD*%
D12*
%TO.C,SW8*%
X76300000Y-123850000D03*
D13*
X76720000Y-123850000D03*
D14*
X76800000Y-120150000D03*
D13*
X77300000Y-123850000D03*
D14*
X77990000Y-126390000D03*
X81800000Y-117950000D03*
D15*
X81800000Y-123850000D03*
D14*
X84340000Y-128930000D03*
D13*
X86300000Y-123850000D03*
X86880000Y-123850000D03*
D12*
X87300000Y-123850000D03*
%TD*%
%TO.C,SW1*%
X57300000Y-85850000D03*
D13*
X57720000Y-85850000D03*
D14*
X57800000Y-82150000D03*
D13*
X58300000Y-85850000D03*
D14*
X58990000Y-88390000D03*
X62800000Y-79950000D03*
D15*
X62800000Y-85850000D03*
D14*
X65340000Y-90930000D03*
D13*
X67300000Y-85850000D03*
X67880000Y-85850000D03*
D12*
X68300000Y-85850000D03*
%TD*%
%TO.C,SW4*%
X57300000Y-104850000D03*
D13*
X57720000Y-104850000D03*
D14*
X57800000Y-101150000D03*
D13*
X58300000Y-104850000D03*
D14*
X58990000Y-107390000D03*
X62800000Y-98950000D03*
D15*
X62800000Y-104850000D03*
D14*
X65340000Y-109930000D03*
D13*
X67300000Y-104850000D03*
X67880000Y-104850000D03*
D12*
X68300000Y-104850000D03*
%TD*%
%TO.C,SW3*%
X95300000Y-85850000D03*
D13*
X95720000Y-85850000D03*
D14*
X95800000Y-82150000D03*
D13*
X96300000Y-85850000D03*
D14*
X96990000Y-88390000D03*
X100800000Y-79950000D03*
D15*
X100800000Y-85850000D03*
D14*
X103340000Y-90930000D03*
D13*
X105300000Y-85850000D03*
X105880000Y-85850000D03*
D12*
X106300000Y-85850000D03*
%TD*%
%TO.C,SW7*%
X57300000Y-123850000D03*
D13*
X57720000Y-123850000D03*
D14*
X57800000Y-120150000D03*
D13*
X58300000Y-123850000D03*
D14*
X58990000Y-126390000D03*
X62800000Y-117950000D03*
D15*
X62800000Y-123850000D03*
D14*
X65340000Y-128930000D03*
D13*
X67300000Y-123850000D03*
X67880000Y-123850000D03*
D12*
X68300000Y-123850000D03*
%TD*%
%TO.C,SW5*%
X76300000Y-104850000D03*
D13*
X76720000Y-104850000D03*
D14*
X76800000Y-101150000D03*
D13*
X77300000Y-104850000D03*
D14*
X77990000Y-107390000D03*
X81800000Y-98950000D03*
D15*
X81800000Y-104850000D03*
D14*
X84340000Y-109930000D03*
D13*
X86300000Y-104850000D03*
X86880000Y-104850000D03*
D12*
X87300000Y-104850000D03*
%TD*%
%TO.C,SW2*%
X76300000Y-85850000D03*
D13*
X76720000Y-85850000D03*
D14*
X76800000Y-82150000D03*
D13*
X77300000Y-85850000D03*
D14*
X77990000Y-88390000D03*
X81800000Y-79950000D03*
D15*
X81800000Y-85850000D03*
D14*
X84340000Y-90930000D03*
D13*
X86300000Y-85850000D03*
X86880000Y-85850000D03*
D12*
X87300000Y-85850000D03*
%TD*%
%TO.C,SW6*%
X95300000Y-104850000D03*
D13*
X95720000Y-104850000D03*
D14*
X95800000Y-101150000D03*
D13*
X96300000Y-104850000D03*
D14*
X96990000Y-107390000D03*
X100800000Y-98950000D03*
D15*
X100800000Y-104850000D03*
D14*
X103340000Y-109930000D03*
D13*
X105300000Y-104850000D03*
X105880000Y-104850000D03*
D12*
X106300000Y-104850000D03*
%TD*%
%TO.C,SW9*%
X95300000Y-123850000D03*
D13*
X95720000Y-123850000D03*
D14*
X95800000Y-120150000D03*
D13*
X96300000Y-123850000D03*
D14*
X96990000Y-126390000D03*
X100800000Y-117950000D03*
D15*
X100800000Y-123850000D03*
D14*
X103340000Y-128930000D03*
D13*
X105300000Y-123850000D03*
X105880000Y-123850000D03*
D12*
X106300000Y-123850000D03*
%TD*%
M02*
