%TF.GenerationSoftware,KiCad,Pcbnew,8.0.8*%
%TF.CreationDate,2025-02-11T21:46:50+01:00*%
%TF.ProjectId,macro33,6d616372-6f33-4332-9e6b-696361645f70,1*%
%TF.SameCoordinates,Original*%
%TF.FileFunction,Profile,NP*%
%FSLAX46Y46*%
G04 Gerber Fmt 4.6, Leading zero omitted, Abs format (unit mm)*
G04 Created by KiCad (PCBNEW 8.0.8) date 2025-02-11 21:46:50*
%MOMM*%
%LPD*%
G01*
G04 APERTURE LIST*
%TA.AperFunction,Profile*%
%ADD10C,0.050000*%
%TD*%
%TA.AperFunction,Profile*%
%ADD11C,0.000000*%
%TD*%
G04 APERTURE END LIST*
D10*
X53500000Y-60000000D02*
X110000000Y-60000000D01*
X110000000Y-133250000D01*
X53500000Y-133250000D01*
X53500000Y-60000000D01*
D11*
%TA.AperFunction,Profile*%
%TO.C,USBC1*%
G36*
X85522500Y-66608542D02*
G01*
X85608964Y-66681094D01*
X85665400Y-66778843D01*
X85685000Y-66890000D01*
X85665400Y-67001157D01*
X85608964Y-67098906D01*
X85522500Y-67171458D01*
X85416436Y-67210063D01*
X85303564Y-67210063D01*
X85197500Y-67171458D01*
X85111036Y-67098906D01*
X85054600Y-67001157D01*
X85035000Y-66890000D01*
X85054600Y-66778843D01*
X85111036Y-66681094D01*
X85197500Y-66608542D01*
X85303564Y-66569937D01*
X85416436Y-66569937D01*
X85522500Y-66608542D01*
G37*
%TD.AperFunction*%
%TA.AperFunction,Profile*%
G36*
X78207322Y-66457925D02*
G01*
X78321059Y-66531019D01*
X78409595Y-66633196D01*
X78465759Y-66756177D01*
X78485000Y-66890000D01*
X78465759Y-67023823D01*
X78409595Y-67146804D01*
X78321059Y-67248981D01*
X78207322Y-67322075D01*
X78077600Y-67360165D01*
X77942400Y-67360165D01*
X77812678Y-67322075D01*
X77698941Y-67248981D01*
X77610405Y-67146804D01*
X77554241Y-67023823D01*
X77535000Y-66890000D01*
X77554241Y-66756177D01*
X77610405Y-66633196D01*
X77698941Y-66531019D01*
X77812678Y-66457925D01*
X77942400Y-66419835D01*
X78077600Y-66419835D01*
X78207322Y-66457925D01*
G37*
%TD.AperFunction*%
%TD*%
M02*
