%TF.GenerationSoftware,KiCad,Pcbnew,8.0.8*%
%TF.CreationDate,2025-02-11T21:46:50+01:00*%
%TF.ProjectId,macro33,6d616372-6f33-4332-9e6b-696361645f70,1*%
%TF.SameCoordinates,Original*%
%TF.FileFunction,Soldermask,Top*%
%TF.FilePolarity,Negative*%
%FSLAX46Y46*%
G04 Gerber Fmt 4.6, Leading zero omitted, Abs format (unit mm)*
G04 Created by KiCad (PCBNEW 8.0.8) date 2025-02-11 21:46:50*
%MOMM*%
%LPD*%
G01*
G04 APERTURE LIST*
G04 Aperture macros list*
%AMRoundRect*
0 Rectangle with rounded corners*
0 $1 Rounding radius*
0 $2 $3 $4 $5 $6 $7 $8 $9 X,Y pos of 4 corners*
0 Add a 4 corners polygon primitive as box body*
4,1,4,$2,$3,$4,$5,$6,$7,$8,$9,$2,$3,0*
0 Add four circle primitives for the rounded corners*
1,1,$1+$1,$2,$3*
1,1,$1+$1,$4,$5*
1,1,$1+$1,$6,$7*
1,1,$1+$1,$8,$9*
0 Add four rect primitives between the rounded corners*
20,1,$1+$1,$2,$3,$4,$5,0*
20,1,$1+$1,$4,$5,$6,$7,0*
20,1,$1+$1,$6,$7,$8,$9,0*
20,1,$1+$1,$8,$9,$2,$3,0*%
%AMFreePoly0*
4,1,6,1.000000,0.000000,0.500000,-0.750000,-0.500000,-0.750000,-0.500000,0.750000,0.500000,0.750000,1.000000,0.000000,1.000000,0.000000,$1*%
%AMFreePoly1*
4,1,6,0.500000,-0.750000,-0.650000,-0.750000,-0.150000,0.000000,-0.650000,0.750000,0.500000,0.750000,0.500000,-0.750000,0.500000,-0.750000,$1*%
G04 Aperture macros list end*
%ADD10RoundRect,0.140000X0.170000X-0.140000X0.170000X0.140000X-0.170000X0.140000X-0.170000X-0.140000X0*%
%ADD11RoundRect,0.250000X0.262500X0.450000X-0.262500X0.450000X-0.262500X-0.450000X0.262500X-0.450000X0*%
%ADD12RoundRect,0.375000X-0.625000X-0.375000X0.625000X-0.375000X0.625000X0.375000X-0.625000X0.375000X0*%
%ADD13RoundRect,0.500000X-0.500000X-1.400000X0.500000X-1.400000X0.500000X1.400000X-0.500000X1.400000X0*%
%ADD14RoundRect,0.135000X0.185000X-0.135000X0.185000X0.135000X-0.185000X0.135000X-0.185000X-0.135000X0*%
%ADD15RoundRect,0.140000X-0.140000X-0.170000X0.140000X-0.170000X0.140000X0.170000X-0.140000X0.170000X0*%
%ADD16RoundRect,0.140000X-0.170000X0.140000X-0.170000X-0.140000X0.170000X-0.140000X0.170000X0.140000X0*%
%ADD17RoundRect,0.050000X-0.050000X0.387500X-0.050000X-0.387500X0.050000X-0.387500X0.050000X0.387500X0*%
%ADD18RoundRect,0.050000X-0.387500X0.050000X-0.387500X-0.050000X0.387500X-0.050000X0.387500X0.050000X0*%
%ADD19R,3.200000X3.200000*%
%ADD20O,0.800000X1.400000*%
%ADD21R,0.300000X1.400000*%
%ADD22C,0.600000*%
%ADD23RoundRect,0.381000X-0.381000X0.762000X-0.381000X-0.762000X0.381000X-0.762000X0.381000X0.762000X0*%
%ADD24RoundRect,0.140000X0.140000X0.170000X-0.140000X0.170000X-0.140000X-0.170000X0.140000X-0.170000X0*%
%ADD25RoundRect,0.150000X-0.150000X0.650000X-0.150000X-0.650000X0.150000X-0.650000X0.150000X0.650000X0*%
%ADD26RoundRect,0.250000X-0.325000X-0.650000X0.325000X-0.650000X0.325000X0.650000X-0.325000X0.650000X0*%
%ADD27FreePoly0,180.000000*%
%ADD28FreePoly1,180.000000*%
%ADD29R,1.100000X1.200000*%
%ADD30C,1.900000*%
%ADD31C,1.700000*%
%ADD32C,3.000000*%
%ADD33C,4.100000*%
%ADD34R,0.300000X2.000000*%
%ADD35R,1.000000X0.500000*%
%ADD36R,1.000000X1.000000*%
%ADD37R,0.500000X2.000000*%
%ADD38R,1.125000X0.500000*%
%ADD39C,0.750000*%
%ADD40R,0.500000X1.625000*%
G04 APERTURE END LIST*
D10*
%TO.C,C2*%
X56000000Y-74230000D03*
X56000000Y-73270000D03*
%TD*%
D11*
%TO.C,R2*%
X75500000Y-73750000D03*
X73675000Y-73750000D03*
%TD*%
D12*
%TO.C,U3*%
X89600000Y-61450000D03*
X89600000Y-63750000D03*
D13*
X95900000Y-63750000D03*
D12*
X89600000Y-66050000D03*
%TD*%
D11*
%TO.C,R1*%
X75412500Y-71750000D03*
X73587500Y-71750000D03*
%TD*%
D14*
%TO.C,R5*%
X84010000Y-72151000D03*
X84010000Y-71131000D03*
%TD*%
D15*
%TO.C,C13*%
X70040000Y-76250000D03*
X71000000Y-76250000D03*
%TD*%
D16*
%TO.C,C11*%
X64250000Y-75770000D03*
X64250000Y-76730000D03*
%TD*%
D15*
%TO.C,C4*%
X70040000Y-74250000D03*
X71000000Y-74250000D03*
%TD*%
D17*
%TO.C,U1*%
X67800000Y-67750000D03*
X67400000Y-67750000D03*
X67000000Y-67750000D03*
X66600000Y-67750000D03*
X66200000Y-67750000D03*
X65800000Y-67750000D03*
X65400000Y-67750000D03*
X65000000Y-67750000D03*
X64600000Y-67750000D03*
X64200000Y-67750000D03*
X63800000Y-67750000D03*
X63400000Y-67750000D03*
X63000000Y-67750000D03*
X62600000Y-67750000D03*
D18*
X61762500Y-68587500D03*
X61762500Y-68987500D03*
X61762500Y-69387500D03*
X61762500Y-69787500D03*
X61762500Y-70187500D03*
X61762500Y-70587500D03*
X61762500Y-70987500D03*
X61762500Y-71387500D03*
X61762500Y-71787500D03*
X61762500Y-72187500D03*
X61762500Y-72587500D03*
X61762500Y-72987500D03*
X61762500Y-73387500D03*
X61762500Y-73787500D03*
D17*
X62600000Y-74625000D03*
X63000000Y-74625000D03*
X63400000Y-74625000D03*
X63800000Y-74625000D03*
X64200000Y-74625000D03*
X64600000Y-74625000D03*
X65000000Y-74625000D03*
X65400000Y-74625000D03*
X65800000Y-74625000D03*
X66200000Y-74625000D03*
X66600000Y-74625000D03*
X67000000Y-74625000D03*
X67400000Y-74625000D03*
X67800000Y-74625000D03*
D18*
X68637500Y-73787500D03*
X68637500Y-73387500D03*
X68637500Y-72987500D03*
X68637500Y-72587500D03*
X68637500Y-72187500D03*
X68637500Y-71787500D03*
X68637500Y-71387500D03*
X68637500Y-70987500D03*
X68637500Y-70587500D03*
X68637500Y-70187500D03*
X68637500Y-69787500D03*
X68637500Y-69387500D03*
X68637500Y-68987500D03*
X68637500Y-68587500D03*
D19*
X65200000Y-71187500D03*
%TD*%
D10*
%TO.C,C8*%
X104000000Y-74500000D03*
X104000000Y-73540000D03*
%TD*%
D20*
%TO.C,USBC1*%
X77630000Y-65640000D03*
X85890000Y-65640000D03*
X86250000Y-61250000D03*
X77270000Y-61250000D03*
D21*
X84509500Y-67641000D03*
X84010000Y-67641000D03*
X83511000Y-67641000D03*
X83010500Y-67641000D03*
X82510500Y-67641000D03*
X82010000Y-67641000D03*
X81509500Y-67641000D03*
X81009000Y-67641000D03*
X80510000Y-67641000D03*
X80011000Y-67641000D03*
X79510500Y-67641000D03*
X79010000Y-67641000D03*
D22*
X78960000Y-66240000D03*
X79360000Y-65540000D03*
X80160000Y-65540000D03*
X80560000Y-66240000D03*
X80960000Y-65540000D03*
X81360000Y-66240000D03*
X82160000Y-66240000D03*
X82560000Y-65540000D03*
X82960000Y-66240000D03*
X83360000Y-65540000D03*
X84160000Y-65540000D03*
X84560000Y-66240000D03*
%TD*%
D14*
%TO.C,R3*%
X104000000Y-68040000D03*
X104000000Y-67020000D03*
%TD*%
D15*
%TO.C,C5*%
X72020000Y-69750000D03*
X72980000Y-69750000D03*
%TD*%
D10*
%TO.C,C7*%
X69000000Y-66250000D03*
X69000000Y-65290000D03*
%TD*%
D23*
%TO.C,SWD*%
X55750000Y-76446500D03*
X58750000Y-76446500D03*
X61750000Y-76446500D03*
%TD*%
D15*
%TO.C,C10*%
X71040000Y-71250000D03*
X72000000Y-71250000D03*
%TD*%
D24*
%TO.C,C9*%
X58980000Y-71750000D03*
X58020000Y-71750000D03*
%TD*%
D25*
%TO.C,U2*%
X102405000Y-67420000D03*
X101135000Y-67420000D03*
X99865000Y-67420000D03*
X98595000Y-67420000D03*
X98595000Y-74620000D03*
X99865000Y-74620000D03*
X101135000Y-74620000D03*
X102405000Y-74620000D03*
%TD*%
D15*
%TO.C,C16*%
X70020000Y-75250000D03*
X70980000Y-75250000D03*
%TD*%
D26*
%TO.C,C15*%
X98025000Y-61500000D03*
X100975000Y-61500000D03*
%TD*%
D16*
%TO.C,C1*%
X54500000Y-67270000D03*
X54500000Y-68230000D03*
%TD*%
D15*
%TO.C,C6*%
X70000000Y-77250000D03*
X70960000Y-77250000D03*
%TD*%
D10*
%TO.C,C12*%
X64000000Y-64480000D03*
X64000000Y-63520000D03*
%TD*%
D27*
%TO.C,JP1*%
X105950000Y-70020000D03*
D28*
X104500000Y-70020000D03*
%TD*%
D16*
%TO.C,C3*%
X58500000Y-73270000D03*
X58500000Y-74230000D03*
%TD*%
D29*
%TO.C,Y1*%
X56000000Y-71750000D03*
X56000000Y-69850000D03*
X54500000Y-69850000D03*
X54500000Y-71750000D03*
%TD*%
D26*
%TO.C,C14*%
X89300000Y-68500000D03*
X92250000Y-68500000D03*
%TD*%
D30*
%TO.C,SW8*%
X76300000Y-123850000D03*
D31*
X76720000Y-123850000D03*
D32*
X76800000Y-120150000D03*
D31*
X77300000Y-123850000D03*
D32*
X77990000Y-126390000D03*
X81800000Y-117950000D03*
D33*
X81800000Y-123850000D03*
D32*
X84340000Y-128930000D03*
D31*
X86300000Y-123850000D03*
X86880000Y-123850000D03*
D30*
X87300000Y-123850000D03*
D34*
X73050000Y-120150000D03*
D35*
X73700000Y-119400000D03*
D36*
X73700000Y-120150000D03*
D35*
X73700000Y-120900000D03*
D37*
X74150000Y-126390000D03*
X74450000Y-120150000D03*
D35*
X74900000Y-125640000D03*
D36*
X74900000Y-126390000D03*
D35*
X74900000Y-127140000D03*
D37*
X75650000Y-126390000D03*
X84150000Y-117960000D03*
D35*
X84900000Y-117210000D03*
D36*
X84900000Y-117960000D03*
D35*
X84900000Y-118710000D03*
D37*
X85650000Y-117960000D03*
X86650000Y-128930000D03*
D35*
X87400000Y-128180000D03*
D36*
X87400000Y-128930000D03*
D38*
X87461250Y-129680000D03*
D39*
X88025000Y-129555000D03*
D40*
X88150000Y-128742500D03*
%TD*%
D30*
%TO.C,SW1*%
X57300000Y-85850000D03*
D31*
X57720000Y-85850000D03*
D32*
X57800000Y-82150000D03*
D31*
X58300000Y-85850000D03*
D32*
X58990000Y-88390000D03*
X62800000Y-79950000D03*
D33*
X62800000Y-85850000D03*
D32*
X65340000Y-90930000D03*
D31*
X67300000Y-85850000D03*
X67880000Y-85850000D03*
D30*
X68300000Y-85850000D03*
D34*
X54050000Y-82150000D03*
D35*
X54700000Y-81400000D03*
D36*
X54700000Y-82150000D03*
D35*
X54700000Y-82900000D03*
D37*
X55150000Y-88390000D03*
X55450000Y-82150000D03*
D35*
X55900000Y-87640000D03*
D36*
X55900000Y-88390000D03*
D35*
X55900000Y-89140000D03*
D37*
X56650000Y-88390000D03*
X65150000Y-79960000D03*
D35*
X65900000Y-79210000D03*
D36*
X65900000Y-79960000D03*
D35*
X65900000Y-80710000D03*
D37*
X66650000Y-79960000D03*
X67650000Y-90930000D03*
D35*
X68400000Y-90180000D03*
D36*
X68400000Y-90930000D03*
D38*
X68461250Y-91680000D03*
D39*
X69025000Y-91555000D03*
D40*
X69150000Y-90742500D03*
%TD*%
D30*
%TO.C,SW4*%
X57300000Y-104850000D03*
D31*
X57720000Y-104850000D03*
D32*
X57800000Y-101150000D03*
D31*
X58300000Y-104850000D03*
D32*
X58990000Y-107390000D03*
X62800000Y-98950000D03*
D33*
X62800000Y-104850000D03*
D32*
X65340000Y-109930000D03*
D31*
X67300000Y-104850000D03*
X67880000Y-104850000D03*
D30*
X68300000Y-104850000D03*
D34*
X54050000Y-101150000D03*
D35*
X54700000Y-100400000D03*
D36*
X54700000Y-101150000D03*
D35*
X54700000Y-101900000D03*
D37*
X55150000Y-107390000D03*
X55450000Y-101150000D03*
D35*
X55900000Y-106640000D03*
D36*
X55900000Y-107390000D03*
D35*
X55900000Y-108140000D03*
D37*
X56650000Y-107390000D03*
X65150000Y-98960000D03*
D35*
X65900000Y-98210000D03*
D36*
X65900000Y-98960000D03*
D35*
X65900000Y-99710000D03*
D37*
X66650000Y-98960000D03*
X67650000Y-109930000D03*
D35*
X68400000Y-109180000D03*
D36*
X68400000Y-109930000D03*
D38*
X68461250Y-110680000D03*
D39*
X69025000Y-110555000D03*
D40*
X69150000Y-109742500D03*
%TD*%
D30*
%TO.C,SW3*%
X95300000Y-85850000D03*
D31*
X95720000Y-85850000D03*
D32*
X95800000Y-82150000D03*
D31*
X96300000Y-85850000D03*
D32*
X96990000Y-88390000D03*
X100800000Y-79950000D03*
D33*
X100800000Y-85850000D03*
D32*
X103340000Y-90930000D03*
D31*
X105300000Y-85850000D03*
X105880000Y-85850000D03*
D30*
X106300000Y-85850000D03*
D34*
X92050000Y-82150000D03*
D35*
X92700000Y-81400000D03*
D36*
X92700000Y-82150000D03*
D35*
X92700000Y-82900000D03*
D37*
X93150000Y-88390000D03*
X93450000Y-82150000D03*
D35*
X93900000Y-87640000D03*
D36*
X93900000Y-88390000D03*
D35*
X93900000Y-89140000D03*
D37*
X94650000Y-88390000D03*
X103150000Y-79960000D03*
D35*
X103900000Y-79210000D03*
D36*
X103900000Y-79960000D03*
D35*
X103900000Y-80710000D03*
D37*
X104650000Y-79960000D03*
X105650000Y-90930000D03*
D35*
X106400000Y-90180000D03*
D36*
X106400000Y-90930000D03*
D38*
X106461250Y-91680000D03*
D39*
X107025000Y-91555000D03*
D40*
X107150000Y-90742500D03*
%TD*%
D30*
%TO.C,SW7*%
X57300000Y-123850000D03*
D31*
X57720000Y-123850000D03*
D32*
X57800000Y-120150000D03*
D31*
X58300000Y-123850000D03*
D32*
X58990000Y-126390000D03*
X62800000Y-117950000D03*
D33*
X62800000Y-123850000D03*
D32*
X65340000Y-128930000D03*
D31*
X67300000Y-123850000D03*
X67880000Y-123850000D03*
D30*
X68300000Y-123850000D03*
D34*
X54050000Y-120150000D03*
D35*
X54700000Y-119400000D03*
D36*
X54700000Y-120150000D03*
D35*
X54700000Y-120900000D03*
D37*
X55150000Y-126390000D03*
X55450000Y-120150000D03*
D35*
X55900000Y-125640000D03*
D36*
X55900000Y-126390000D03*
D35*
X55900000Y-127140000D03*
D37*
X56650000Y-126390000D03*
X65150000Y-117960000D03*
D35*
X65900000Y-117210000D03*
D36*
X65900000Y-117960000D03*
D35*
X65900000Y-118710000D03*
D37*
X66650000Y-117960000D03*
X67650000Y-128930000D03*
D35*
X68400000Y-128180000D03*
D36*
X68400000Y-128930000D03*
D38*
X68461250Y-129680000D03*
D39*
X69025000Y-129555000D03*
D40*
X69150000Y-128742500D03*
%TD*%
D30*
%TO.C,SW5*%
X76300000Y-104850000D03*
D31*
X76720000Y-104850000D03*
D32*
X76800000Y-101150000D03*
D31*
X77300000Y-104850000D03*
D32*
X77990000Y-107390000D03*
X81800000Y-98950000D03*
D33*
X81800000Y-104850000D03*
D32*
X84340000Y-109930000D03*
D31*
X86300000Y-104850000D03*
X86880000Y-104850000D03*
D30*
X87300000Y-104850000D03*
D34*
X73050000Y-101150000D03*
D35*
X73700000Y-100400000D03*
D36*
X73700000Y-101150000D03*
D35*
X73700000Y-101900000D03*
D37*
X74150000Y-107390000D03*
X74450000Y-101150000D03*
D35*
X74900000Y-106640000D03*
D36*
X74900000Y-107390000D03*
D35*
X74900000Y-108140000D03*
D37*
X75650000Y-107390000D03*
X84150000Y-98960000D03*
D35*
X84900000Y-98210000D03*
D36*
X84900000Y-98960000D03*
D35*
X84900000Y-99710000D03*
D37*
X85650000Y-98960000D03*
X86650000Y-109930000D03*
D35*
X87400000Y-109180000D03*
D36*
X87400000Y-109930000D03*
D38*
X87461250Y-110680000D03*
D39*
X88025000Y-110555000D03*
D40*
X88150000Y-109742500D03*
%TD*%
D30*
%TO.C,SW2*%
X76300000Y-85850000D03*
D31*
X76720000Y-85850000D03*
D32*
X76800000Y-82150000D03*
D31*
X77300000Y-85850000D03*
D32*
X77990000Y-88390000D03*
X81800000Y-79950000D03*
D33*
X81800000Y-85850000D03*
D32*
X84340000Y-90930000D03*
D31*
X86300000Y-85850000D03*
X86880000Y-85850000D03*
D30*
X87300000Y-85850000D03*
D34*
X73050000Y-82150000D03*
D35*
X73700000Y-81400000D03*
D36*
X73700000Y-82150000D03*
D35*
X73700000Y-82900000D03*
D37*
X74150000Y-88390000D03*
X74450000Y-82150000D03*
D35*
X74900000Y-87640000D03*
D36*
X74900000Y-88390000D03*
D35*
X74900000Y-89140000D03*
D37*
X75650000Y-88390000D03*
X84150000Y-79960000D03*
D35*
X84900000Y-79210000D03*
D36*
X84900000Y-79960000D03*
D35*
X84900000Y-80710000D03*
D37*
X85650000Y-79960000D03*
X86650000Y-90930000D03*
D35*
X87400000Y-90180000D03*
D36*
X87400000Y-90930000D03*
D38*
X87461250Y-91680000D03*
D39*
X88025000Y-91555000D03*
D40*
X88150000Y-90742500D03*
%TD*%
D30*
%TO.C,SW6*%
X95300000Y-104850000D03*
D31*
X95720000Y-104850000D03*
D32*
X95800000Y-101150000D03*
D31*
X96300000Y-104850000D03*
D32*
X96990000Y-107390000D03*
X100800000Y-98950000D03*
D33*
X100800000Y-104850000D03*
D32*
X103340000Y-109930000D03*
D31*
X105300000Y-104850000D03*
X105880000Y-104850000D03*
D30*
X106300000Y-104850000D03*
D34*
X92050000Y-101150000D03*
D35*
X92700000Y-100400000D03*
D36*
X92700000Y-101150000D03*
D35*
X92700000Y-101900000D03*
D37*
X93150000Y-107390000D03*
X93450000Y-101150000D03*
D35*
X93900000Y-106640000D03*
D36*
X93900000Y-107390000D03*
D35*
X93900000Y-108140000D03*
D37*
X94650000Y-107390000D03*
X103150000Y-98960000D03*
D35*
X103900000Y-98210000D03*
D36*
X103900000Y-98960000D03*
D35*
X103900000Y-99710000D03*
D37*
X104650000Y-98960000D03*
X105650000Y-109930000D03*
D35*
X106400000Y-109180000D03*
D36*
X106400000Y-109930000D03*
D38*
X106461250Y-110680000D03*
D39*
X107025000Y-110555000D03*
D40*
X107150000Y-109742500D03*
%TD*%
D30*
%TO.C,SW9*%
X95300000Y-123850000D03*
D31*
X95720000Y-123850000D03*
D32*
X95800000Y-120150000D03*
D31*
X96300000Y-123850000D03*
D32*
X96990000Y-126390000D03*
X100800000Y-117950000D03*
D33*
X100800000Y-123850000D03*
D32*
X103340000Y-128930000D03*
D31*
X105300000Y-123850000D03*
X105880000Y-123850000D03*
D30*
X106300000Y-123850000D03*
D34*
X92050000Y-120150000D03*
D35*
X92700000Y-119400000D03*
D36*
X92700000Y-120150000D03*
D35*
X92700000Y-120900000D03*
D37*
X93150000Y-126390000D03*
X93450000Y-120150000D03*
D35*
X93900000Y-125640000D03*
D36*
X93900000Y-126390000D03*
D35*
X93900000Y-127140000D03*
D37*
X94650000Y-126390000D03*
X103150000Y-117960000D03*
D35*
X103900000Y-117210000D03*
D36*
X103900000Y-117960000D03*
D35*
X103900000Y-118710000D03*
D37*
X104650000Y-117960000D03*
X105650000Y-128930000D03*
D35*
X106400000Y-128180000D03*
D36*
X106400000Y-128930000D03*
D38*
X106461250Y-129680000D03*
D39*
X107025000Y-129555000D03*
D40*
X107150000Y-128742500D03*
%TD*%
M02*
