M48
; DRILL file {KiCad 8.0.8} date 2025-02-11T21:46:53+0100
; FORMAT={-:-/ absolute / metric / decimal}
; #@! TF.CreationDate,2025-02-11T21:46:53+01:00
; #@! TF.GenerationSoftware,Kicad,Pcbnew,8.0.8
; #@! TF.FileFunction,Plated,1,2,PTH
FMAT,2
METRIC
; #@! TA.AperFunction,Plated,PTH,ViaDrill
T1C0.300
; #@! TA.AperFunction,Plated,PTH,ViaDrill
T2C0.400
; #@! TA.AperFunction,Plated,PTH,ComponentDrill
T3C0.400
; #@! TA.AperFunction,Plated,PTH,ComponentDrill
T4C0.500
; #@! TA.AperFunction,Plated,PTH,ComponentDrill
T5C0.600
%
G90
G05
T1
X54.5Y-66.25
X54.5Y-73.0
X54.5Y-75.25
X55.75Y-78.5
X57.25Y-74.25
X59.6Y-67.0
X60.5Y-75.25
X63.0Y-63.5
X63.539Y-66.311
X64.0Y-70.0
X64.0Y-72.25
X64.3Y-65.375
X64.8Y-64.75
X65.2Y-71.188
X65.25Y-76.75
X65.253Y-64.002
X66.056Y-63.993
X66.25Y-70.0
X66.25Y-72.25
X66.583Y-64.595
X67.169Y-65.139
X67.961Y-65.027
X68.223Y-65.783
X70.0Y-64.75
X72.5Y-78.25
X73.0Y-77.75
X73.25Y-64.75
X73.25Y-65.55
X73.25Y-66.35
X73.25Y-67.15
X73.25Y-67.95
X73.25Y-68.75
X73.5Y-77.25
X74.0Y-69.75
X74.25Y-77.0
X75.25Y-70.25
X84.01Y-70.141
X85.0Y-72.0
X87.75Y-61.5
X88.01Y-67.391
X93.5Y-68.5
X98.576Y-72.75
X98.595Y-69.25
X99.926Y-71.5
X99.951Y-72.75
X101.0Y-63.0
X101.25Y-70.0
X101.25Y-72.75
X102.5Y-69.25
X105.5Y-72.02
T2
X81.01Y-69.641
X83.01Y-70.141
T3
X78.96Y-66.24
X79.36Y-65.54
X80.16Y-65.54
X80.56Y-66.24
X80.96Y-65.54
X81.36Y-66.24
X82.16Y-66.24
X82.56Y-65.54
X82.96Y-66.24
X83.36Y-65.54
X84.16Y-65.54
X84.56Y-66.24
T5
X54.7Y-82.15
X54.7Y-101.15
X54.7Y-120.15
X55.9Y-88.39
X55.9Y-107.39
X55.9Y-126.39
X65.9Y-79.96
X65.9Y-98.96
X65.9Y-117.96
X68.4Y-90.93
X68.4Y-109.93
X68.4Y-128.93
X73.7Y-82.15
X73.7Y-101.15
X73.7Y-120.15
X74.9Y-88.39
X74.9Y-107.39
X74.9Y-126.39
X84.9Y-79.96
X84.9Y-98.96
X84.9Y-117.96
X87.4Y-90.93
X87.4Y-109.93
X87.4Y-128.93
X92.7Y-82.15
X92.7Y-101.15
X92.7Y-120.15
X93.9Y-88.39
X93.9Y-107.39
X93.9Y-126.39
X103.9Y-79.96
X103.9Y-98.96
X103.9Y-117.96
X106.4Y-90.93
X106.4Y-109.93
X106.4Y-128.93
T4
X77.27Y-61.0G85X77.27Y-61.5
G05
X77.63Y-65.39G85X77.63Y-65.89
G05
X85.89Y-65.39G85X85.89Y-65.89
G05
X86.25Y-61.0G85X86.25Y-61.5
G05
M30
