M48
; DRILL file {KiCad 8.0.8} date 2025-02-11T21:46:53+0100
; FORMAT={-:-/ absolute / metric / decimal}
; #@! TF.CreationDate,2025-02-11T21:46:53+01:00
; #@! TF.GenerationSoftware,Kicad,Pcbnew,8.0.8
; #@! TF.FileFunction,NonPlated,1,2,NPTH
FMAT,2
METRIC
; #@! TA.AperFunction,NonPlated,NPTH,ComponentDrill
T1C1.700
; #@! TA.AperFunction,NonPlated,NPTH,ComponentDrill
T2C1.900
; #@! TA.AperFunction,NonPlated,NPTH,ComponentDrill
T3C3.000
; #@! TA.AperFunction,NonPlated,NPTH,ComponentDrill
T4C4.100
%
G90
G05
T1
X57.72Y-85.85
X57.72Y-104.85
X57.72Y-123.85
X58.3Y-85.85
X58.3Y-104.85
X58.3Y-123.85
X67.3Y-85.85
X67.3Y-104.85
X67.3Y-123.85
X67.88Y-85.85
X67.88Y-104.85
X67.88Y-123.85
X76.72Y-85.85
X76.72Y-104.85
X76.72Y-123.85
X77.3Y-85.85
X77.3Y-104.85
X77.3Y-123.85
X86.3Y-85.85
X86.3Y-104.85
X86.3Y-123.85
X86.88Y-85.85
X86.88Y-104.85
X86.88Y-123.85
X95.72Y-85.85
X95.72Y-104.85
X95.72Y-123.85
X96.3Y-85.85
X96.3Y-104.85
X96.3Y-123.85
X105.3Y-85.85
X105.3Y-104.85
X105.3Y-123.85
X105.88Y-85.85
X105.88Y-104.85
X105.88Y-123.85
T2
X57.3Y-85.85
X57.3Y-104.85
X57.3Y-123.85
X68.3Y-85.85
X68.3Y-104.85
X68.3Y-123.85
X76.3Y-85.85
X76.3Y-104.85
X76.3Y-123.85
X87.3Y-85.85
X87.3Y-104.85
X87.3Y-123.85
X95.3Y-85.85
X95.3Y-104.85
X95.3Y-123.85
X106.3Y-85.85
X106.3Y-104.85
X106.3Y-123.85
T3
X57.8Y-82.15
X57.8Y-101.15
X57.8Y-120.15
X58.99Y-88.39
X58.99Y-107.39
X58.99Y-126.39
X62.8Y-79.95
X62.8Y-98.95
X62.8Y-117.95
X65.34Y-90.93
X65.34Y-109.93
X65.34Y-128.93
X76.8Y-82.15
X76.8Y-101.15
X76.8Y-120.15
X77.99Y-88.39
X77.99Y-107.39
X77.99Y-126.39
X81.8Y-79.95
X81.8Y-98.95
X81.8Y-117.95
X84.34Y-90.93
X84.34Y-109.93
X84.34Y-128.93
X95.8Y-82.15
X95.8Y-101.15
X95.8Y-120.15
X96.99Y-88.39
X96.99Y-107.39
X96.99Y-126.39
X100.8Y-79.95
X100.8Y-98.95
X100.8Y-117.95
X103.34Y-90.93
X103.34Y-109.93
X103.34Y-128.93
T4
X62.8Y-85.85
X62.8Y-104.85
X62.8Y-123.85
X81.8Y-85.85
X81.8Y-104.85
X81.8Y-123.85
X100.8Y-85.85
X100.8Y-104.85
X100.8Y-123.85
M30
