M48
; DRILL file {KiCad 8.0.8} date 2025-02-13T21:53:58+0100
; FORMAT={-:-/ absolute / metric / decimal}
; #@! TF.CreationDate,2025-02-13T21:53:58+01:00
; #@! TF.GenerationSoftware,Kicad,Pcbnew,8.0.8
; #@! TF.FileFunction,Plated,1,2,PTH
FMAT,2
METRIC
; #@! TA.AperFunction,Plated,PTH,ViaDrill
T1C0.300
; #@! TA.AperFunction,Plated,PTH,ViaDrill
T2C0.400
; #@! TA.AperFunction,Plated,PTH,ComponentDrill
T3C0.400
; #@! TA.AperFunction,Plated,PTH,ComponentDrill
T4C0.500
; #@! TA.AperFunction,Plated,PTH,ComponentDrill
T5C0.600
%
G90
G05
T1
X54.75Y-67.25
X55.75Y-72.5
X57.0Y-72.5
X57.25Y-68.5
X58.25Y-72.5
X58.5Y-68.5
X59.75Y-68.5
X61.25Y-72.25
X63.25Y-68.0
X64.0Y-72.0
X64.5Y-66.25
X71.5Y-74.25
X72.424Y-78.599
X72.75Y-71.75
X73.0Y-92.25
X73.0Y-99.25
X73.5Y-98.0
X77.75Y-68.25
X78.75Y-75.25
X84.0Y-74.799
X86.951Y-72.951
X87.35Y-74.25
X90.0Y-71.0
X90.5Y-70.25
X90.5Y-72.0
X90.75Y-73.75
X90.75Y-74.75
X91.25Y-72.75
X91.5Y-65.5
X91.5Y-66.25
X91.5Y-67.25
X92.0Y-69.0
X92.25Y-75.5
X93.75Y-76.25
X94.5Y-66.75
X94.75Y-76.25
X96.0Y-72.0
X96.5Y-65.75
X97.137Y-69.388
X97.137Y-71.638
X97.75Y-65.75
X98.188Y-70.45
X99.387Y-69.388
X99.387Y-71.638
X101.25Y-65.75
X102.0Y-75.75
X102.25Y-67.25
X103.5Y-66.25
X103.5Y-73.25
X104.5Y-66.25
X105.0Y-71.75
X105.5Y-65.75
X106.5Y-66.5
X108.0Y-68.638
X108.0Y-75.25
X108.5Y-65.75
T2
X71.375Y-71.875
X81.0Y-74.299
X89.27Y-66.723
T3
X78.95Y-70.898
X79.35Y-70.198
X80.15Y-70.198
X80.55Y-70.898
X80.95Y-70.198
X81.35Y-70.898
X82.15Y-70.898
X82.55Y-70.198
X82.95Y-70.898
X83.35Y-70.198
X84.15Y-70.198
X84.55Y-70.898
T5
X54.7Y-82.15
X54.7Y-101.15
X54.7Y-120.15
X55.9Y-88.39
X55.9Y-107.39
X55.9Y-126.39
X65.9Y-79.96
X65.9Y-98.96
X65.9Y-117.96
X68.4Y-90.93
X68.4Y-109.93
X68.4Y-128.93
X73.7Y-82.15
X73.7Y-101.15
X73.7Y-120.15
X74.9Y-88.39
X74.9Y-107.39
X74.9Y-126.39
X84.9Y-79.96
X84.9Y-98.96
X84.9Y-117.96
X87.4Y-90.93
X87.4Y-109.93
X87.4Y-128.93
X92.7Y-82.15
X92.7Y-101.15
X92.7Y-120.15
X93.9Y-88.39
X93.9Y-107.39
X93.9Y-126.39
X103.9Y-79.96
X103.9Y-98.96
X103.9Y-117.96
X106.4Y-90.93
X106.4Y-109.93
X106.4Y-128.93
T4
X77.26Y-65.658G85X77.26Y-66.158
G05
X77.62Y-70.048G85X77.62Y-70.548
G05
X85.88Y-70.048G85X85.88Y-70.548
G05
X86.24Y-65.658G85X86.24Y-66.158
G05
M30
