%TF.GenerationSoftware,KiCad,Pcbnew,8.0.8*%
%TF.CreationDate,2025-02-13T21:53:56+01:00*%
%TF.ProjectId,macro33,6d616372-6f33-4332-9e6b-696361645f70,2*%
%TF.SameCoordinates,Original*%
%TF.FileFunction,Profile,NP*%
%FSLAX46Y46*%
G04 Gerber Fmt 4.6, Leading zero omitted, Abs format (unit mm)*
G04 Created by KiCad (PCBNEW 8.0.8) date 2025-02-13 21:53:56*
%MOMM*%
%LPD*%
G01*
G04 APERTURE LIST*
%TA.AperFunction,Profile*%
%ADD10C,0.050000*%
%TD*%
%TA.AperFunction,Profile*%
%ADD11C,0.000000*%
%TD*%
G04 APERTURE END LIST*
D10*
X53490000Y-64658000D02*
X109990000Y-64658000D01*
X109990000Y-133158000D01*
X53490000Y-133158000D01*
X53490000Y-64658000D01*
D11*
%TA.AperFunction,Profile*%
%TO.C,USBC1*%
G36*
X85512500Y-71266542D02*
G01*
X85598964Y-71339094D01*
X85655400Y-71436843D01*
X85675000Y-71548000D01*
X85655400Y-71659157D01*
X85598964Y-71756906D01*
X85512500Y-71829458D01*
X85406436Y-71868063D01*
X85293564Y-71868063D01*
X85187500Y-71829458D01*
X85101036Y-71756906D01*
X85044600Y-71659157D01*
X85025000Y-71548000D01*
X85044600Y-71436843D01*
X85101036Y-71339094D01*
X85187500Y-71266542D01*
X85293564Y-71227937D01*
X85406436Y-71227937D01*
X85512500Y-71266542D01*
G37*
%TD.AperFunction*%
%TA.AperFunction,Profile*%
G36*
X78197322Y-71115925D02*
G01*
X78311059Y-71189019D01*
X78399595Y-71291196D01*
X78455759Y-71414177D01*
X78475000Y-71548000D01*
X78455759Y-71681823D01*
X78399595Y-71804804D01*
X78311059Y-71906981D01*
X78197322Y-71980075D01*
X78067600Y-72018165D01*
X77932400Y-72018165D01*
X77802678Y-71980075D01*
X77688941Y-71906981D01*
X77600405Y-71804804D01*
X77544241Y-71681823D01*
X77525000Y-71548000D01*
X77544241Y-71414177D01*
X77600405Y-71291196D01*
X77688941Y-71189019D01*
X77802678Y-71115925D01*
X77932400Y-71077835D01*
X78067600Y-71077835D01*
X78197322Y-71115925D01*
G37*
%TD.AperFunction*%
%TD*%
M02*
