%TF.GenerationSoftware,KiCad,Pcbnew,8.0.8*%
%TF.CreationDate,2025-02-11T21:46:50+01:00*%
%TF.ProjectId,macro33,6d616372-6f33-4332-9e6b-696361645f70,1*%
%TF.SameCoordinates,Original*%
%TF.FileFunction,Paste,Top*%
%TF.FilePolarity,Positive*%
%FSLAX46Y46*%
G04 Gerber Fmt 4.6, Leading zero omitted, Abs format (unit mm)*
G04 Created by KiCad (PCBNEW 8.0.8) date 2025-02-11 21:46:50*
%MOMM*%
%LPD*%
G01*
G04 APERTURE LIST*
G04 Aperture macros list*
%AMRoundRect*
0 Rectangle with rounded corners*
0 $1 Rounding radius*
0 $2 $3 $4 $5 $6 $7 $8 $9 X,Y pos of 4 corners*
0 Add a 4 corners polygon primitive as box body*
4,1,4,$2,$3,$4,$5,$6,$7,$8,$9,$2,$3,0*
0 Add four circle primitives for the rounded corners*
1,1,$1+$1,$2,$3*
1,1,$1+$1,$4,$5*
1,1,$1+$1,$6,$7*
1,1,$1+$1,$8,$9*
0 Add four rect primitives between the rounded corners*
20,1,$1+$1,$2,$3,$4,$5,0*
20,1,$1+$1,$4,$5,$6,$7,0*
20,1,$1+$1,$6,$7,$8,$9,0*
20,1,$1+$1,$8,$9,$2,$3,0*%
G04 Aperture macros list end*
%ADD10C,0.000000*%
%ADD11RoundRect,0.140000X0.170000X-0.140000X0.170000X0.140000X-0.170000X0.140000X-0.170000X-0.140000X0*%
%ADD12RoundRect,0.250000X0.262500X0.450000X-0.262500X0.450000X-0.262500X-0.450000X0.262500X-0.450000X0*%
%ADD13RoundRect,0.375000X-0.625000X-0.375000X0.625000X-0.375000X0.625000X0.375000X-0.625000X0.375000X0*%
%ADD14RoundRect,0.500000X-0.500000X-1.400000X0.500000X-1.400000X0.500000X1.400000X-0.500000X1.400000X0*%
%ADD15RoundRect,0.135000X0.185000X-0.135000X0.185000X0.135000X-0.185000X0.135000X-0.185000X-0.135000X0*%
%ADD16RoundRect,0.140000X-0.140000X-0.170000X0.140000X-0.170000X0.140000X0.170000X-0.140000X0.170000X0*%
%ADD17RoundRect,0.140000X-0.170000X0.140000X-0.170000X-0.140000X0.170000X-0.140000X0.170000X0.140000X0*%
%ADD18RoundRect,0.249999X-0.395001X0.395001X-0.395001X-0.395001X0.395001X-0.395001X0.395001X0.395001X0*%
%ADD19RoundRect,0.050000X-0.050000X0.387500X-0.050000X-0.387500X0.050000X-0.387500X0.050000X0.387500X0*%
%ADD20RoundRect,0.050000X-0.387500X0.050000X-0.387500X-0.050000X0.387500X-0.050000X0.387500X0.050000X0*%
%ADD21R,0.300000X1.400000*%
%ADD22RoundRect,0.381000X-0.381000X0.762000X-0.381000X-0.762000X0.381000X-0.762000X0.381000X0.762000X0*%
%ADD23RoundRect,0.140000X0.140000X0.170000X-0.140000X0.170000X-0.140000X-0.170000X0.140000X-0.170000X0*%
%ADD24RoundRect,0.150000X-0.150000X0.650000X-0.150000X-0.650000X0.150000X-0.650000X0.150000X0.650000X0*%
%ADD25RoundRect,0.250000X-0.325000X-0.650000X0.325000X-0.650000X0.325000X0.650000X-0.325000X0.650000X0*%
%ADD26R,1.100000X1.200000*%
%ADD27R,0.300000X2.000000*%
%ADD28R,1.000000X0.500000*%
%ADD29R,0.500000X2.000000*%
%ADD30R,1.125000X0.500000*%
%ADD31C,0.750000*%
%ADD32R,0.500000X1.625000*%
G04 APERTURE END LIST*
D10*
%TO.C,USBC1*%
G36*
X79160000Y-68340500D02*
G01*
X78860500Y-68340500D01*
X78860500Y-66941000D01*
X79160000Y-66941000D01*
X79160000Y-68340500D01*
G37*
G36*
X79660500Y-68340500D02*
G01*
X79361000Y-68340500D01*
X79361000Y-66941000D01*
X79660500Y-66941000D01*
X79660500Y-68340500D01*
G37*
G36*
X80161000Y-68340500D02*
G01*
X79861000Y-68340500D01*
X79861000Y-66941000D01*
X80161000Y-66941000D01*
X80161000Y-68340500D01*
G37*
G36*
X80661500Y-68340500D02*
G01*
X80359000Y-68340500D01*
X80359000Y-66941000D01*
X80661500Y-66941000D01*
X80661500Y-68340500D01*
G37*
G36*
X81159000Y-68340500D02*
G01*
X80859500Y-68340500D01*
X80859500Y-66941000D01*
X81159000Y-66941000D01*
X81159000Y-68340500D01*
G37*
G36*
X81659500Y-68340500D02*
G01*
X81360000Y-68340500D01*
X81360000Y-66941000D01*
X81659500Y-66941000D01*
X81659500Y-68340500D01*
G37*
G36*
X82160000Y-68340500D02*
G01*
X81860000Y-68340500D01*
X81860000Y-66941000D01*
X82160000Y-66941000D01*
X82160000Y-68340500D01*
G37*
G36*
X82660500Y-68340500D02*
G01*
X82360500Y-68340500D01*
X82360500Y-66941000D01*
X82660500Y-66941000D01*
X82660500Y-68340500D01*
G37*
G36*
X83160500Y-68340500D02*
G01*
X82861000Y-68340500D01*
X82861000Y-66941000D01*
X83160500Y-66941000D01*
X83160500Y-68340500D01*
G37*
G36*
X83661000Y-68340500D02*
G01*
X83361500Y-68340500D01*
X83361500Y-66941000D01*
X83661000Y-66941000D01*
X83661000Y-68340500D01*
G37*
G36*
X84161500Y-68340500D02*
G01*
X83859000Y-68340500D01*
X83859000Y-66941000D01*
X84161500Y-66941000D01*
X84161500Y-68340500D01*
G37*
G36*
X84659000Y-68340500D02*
G01*
X84359500Y-68340500D01*
X84359500Y-66941000D01*
X84659000Y-66941000D01*
X84659000Y-68340500D01*
G37*
G36*
X78991500Y-65941500D02*
G01*
X79016500Y-65945500D01*
X79041000Y-65951000D01*
X79064500Y-65959000D01*
X79088000Y-65968500D01*
X79110000Y-65980000D01*
X79131500Y-65993500D01*
X79151500Y-66009000D01*
X79170000Y-66025500D01*
X79187500Y-66044000D01*
X79203000Y-66063500D01*
X79217000Y-66084500D01*
X79229000Y-66106500D01*
X79239000Y-66129500D01*
X79247500Y-66153500D01*
X79253500Y-66177500D01*
X79258000Y-66202500D01*
X79260000Y-66227500D01*
X79260000Y-66252500D01*
X79258000Y-66277500D01*
X79253500Y-66302500D01*
X79247500Y-66326500D01*
X79239000Y-66350500D01*
X79229000Y-66373500D01*
X79217000Y-66395500D01*
X79203000Y-66416500D01*
X79187500Y-66436000D01*
X79170000Y-66454500D01*
X79151500Y-66471000D01*
X79131500Y-66486500D01*
X79110000Y-66500000D01*
X79088000Y-66511500D01*
X79064500Y-66521000D01*
X79041000Y-66529000D01*
X79016500Y-66534500D01*
X78991500Y-66538500D01*
X78966500Y-66540000D01*
X78941500Y-66539500D01*
X78916500Y-66537000D01*
X78891500Y-66532000D01*
X78867500Y-66525500D01*
X78844000Y-66516500D01*
X78821000Y-66506000D01*
X78799500Y-66493500D01*
X78779000Y-66479000D01*
X78759500Y-66463000D01*
X78741500Y-66445500D01*
X78725000Y-66426500D01*
X78710500Y-66406000D01*
X78697500Y-66384500D01*
X78686000Y-66362000D01*
X78677000Y-66338500D01*
X78669500Y-66314500D01*
X78664500Y-66290000D01*
X78661000Y-66265000D01*
X78660000Y-66240000D01*
X78661000Y-66215000D01*
X78664500Y-66190000D01*
X78669500Y-66165500D01*
X78677000Y-66141500D01*
X78686000Y-66118000D01*
X78697500Y-66095500D01*
X78710500Y-66074000D01*
X78725000Y-66053500D01*
X78741500Y-66034500D01*
X78759500Y-66017000D01*
X78779000Y-66001000D01*
X78799500Y-65986500D01*
X78821000Y-65974000D01*
X78844000Y-65963500D01*
X78867500Y-65954500D01*
X78891500Y-65948000D01*
X78916500Y-65943000D01*
X78941500Y-65940500D01*
X78966500Y-65940000D01*
X78991500Y-65941500D01*
G37*
G36*
X79391500Y-65241500D02*
G01*
X79416500Y-65245500D01*
X79441000Y-65251000D01*
X79465000Y-65259000D01*
X79488000Y-65268500D01*
X79510000Y-65280000D01*
X79531500Y-65293500D01*
X79551500Y-65309000D01*
X79570000Y-65325500D01*
X79587500Y-65344000D01*
X79603000Y-65363500D01*
X79617000Y-65384500D01*
X79629000Y-65406500D01*
X79639000Y-65429500D01*
X79647500Y-65453500D01*
X79653500Y-65477500D01*
X79658000Y-65502500D01*
X79660000Y-65527500D01*
X79660000Y-65552500D01*
X79658000Y-65577500D01*
X79653500Y-65602500D01*
X79647500Y-65626500D01*
X79639000Y-65650500D01*
X79629000Y-65673500D01*
X79617000Y-65695500D01*
X79603000Y-65716500D01*
X79587500Y-65736000D01*
X79570000Y-65754500D01*
X79551500Y-65771000D01*
X79531500Y-65786500D01*
X79510000Y-65800000D01*
X79488000Y-65811500D01*
X79465000Y-65821000D01*
X79441000Y-65829000D01*
X79416500Y-65834500D01*
X79391500Y-65838500D01*
X79366500Y-65840000D01*
X79341500Y-65839500D01*
X79316500Y-65837000D01*
X79291500Y-65832000D01*
X79267500Y-65825500D01*
X79244000Y-65816500D01*
X79221000Y-65806000D01*
X79199500Y-65793500D01*
X79179000Y-65779000D01*
X79159500Y-65763000D01*
X79141500Y-65745500D01*
X79125000Y-65726500D01*
X79110500Y-65706000D01*
X79097500Y-65684500D01*
X79086000Y-65662000D01*
X79077000Y-65638500D01*
X79069500Y-65614500D01*
X79064500Y-65590000D01*
X79061000Y-65565000D01*
X79060000Y-65540000D01*
X79061000Y-65515000D01*
X79064500Y-65490000D01*
X79069500Y-65465500D01*
X79077000Y-65441500D01*
X79086000Y-65418000D01*
X79097500Y-65395500D01*
X79110500Y-65374000D01*
X79125000Y-65353500D01*
X79141500Y-65334500D01*
X79159500Y-65317000D01*
X79179000Y-65301000D01*
X79199500Y-65286500D01*
X79221000Y-65274000D01*
X79244000Y-65263500D01*
X79267500Y-65254500D01*
X79291500Y-65248000D01*
X79316500Y-65243000D01*
X79341500Y-65240500D01*
X79366500Y-65240000D01*
X79391500Y-65241500D01*
G37*
G36*
X80191500Y-65241500D02*
G01*
X80216500Y-65245500D01*
X80240500Y-65251000D01*
X80264500Y-65259000D01*
X80288000Y-65268500D01*
X80310000Y-65280000D01*
X80331500Y-65293500D01*
X80351500Y-65309000D01*
X80370000Y-65325500D01*
X80387000Y-65344000D01*
X80403000Y-65363500D01*
X80416500Y-65384500D01*
X80429000Y-65406500D01*
X80439000Y-65429500D01*
X80447500Y-65453500D01*
X80453500Y-65477500D01*
X80457500Y-65502500D01*
X80460000Y-65527500D01*
X80460000Y-65552500D01*
X80457500Y-65577500D01*
X80453500Y-65602500D01*
X80447500Y-65626500D01*
X80439000Y-65650500D01*
X80429000Y-65673500D01*
X80416500Y-65695500D01*
X80403000Y-65716500D01*
X80387000Y-65736000D01*
X80370000Y-65754500D01*
X80351500Y-65771000D01*
X80331500Y-65786500D01*
X80310000Y-65800000D01*
X80288000Y-65811500D01*
X80264500Y-65821000D01*
X80240500Y-65829000D01*
X80216500Y-65834500D01*
X80191500Y-65838500D01*
X80166500Y-65840000D01*
X80141000Y-65839500D01*
X80116000Y-65837000D01*
X80091500Y-65832000D01*
X80067500Y-65825500D01*
X80044000Y-65816500D01*
X80021000Y-65806000D01*
X79999500Y-65793500D01*
X79978500Y-65779000D01*
X79959500Y-65763000D01*
X79941500Y-65745500D01*
X79925000Y-65726500D01*
X79910000Y-65706000D01*
X79897000Y-65684500D01*
X79886000Y-65662000D01*
X79876500Y-65638500D01*
X79869500Y-65614500D01*
X79864000Y-65590000D01*
X79861000Y-65565000D01*
X79860000Y-65540000D01*
X79861000Y-65515000D01*
X79864000Y-65490000D01*
X79869500Y-65465500D01*
X79876500Y-65441500D01*
X79886000Y-65418000D01*
X79897000Y-65395500D01*
X79910000Y-65374000D01*
X79925000Y-65353500D01*
X79941500Y-65334500D01*
X79959500Y-65317000D01*
X79978500Y-65301000D01*
X79999500Y-65286500D01*
X80021000Y-65274000D01*
X80044000Y-65263500D01*
X80067500Y-65254500D01*
X80091500Y-65248000D01*
X80116000Y-65243000D01*
X80141000Y-65240500D01*
X80166500Y-65240000D01*
X80191500Y-65241500D01*
G37*
G36*
X80591500Y-65941500D02*
G01*
X80616500Y-65945500D01*
X80641000Y-65951000D01*
X80664500Y-65959000D01*
X80688000Y-65968500D01*
X80710000Y-65980000D01*
X80731500Y-65993500D01*
X80751500Y-66009000D01*
X80770000Y-66025500D01*
X80787000Y-66044000D01*
X80803000Y-66063500D01*
X80816500Y-66084500D01*
X80829000Y-66106500D01*
X80839000Y-66129500D01*
X80847500Y-66153500D01*
X80853500Y-66177500D01*
X80857500Y-66202500D01*
X80860000Y-66227500D01*
X80860000Y-66252500D01*
X80857500Y-66277500D01*
X80853500Y-66302500D01*
X80847500Y-66326500D01*
X80839000Y-66350500D01*
X80829000Y-66373500D01*
X80816500Y-66395500D01*
X80803000Y-66416500D01*
X80787000Y-66436000D01*
X80770000Y-66454500D01*
X80751500Y-66471000D01*
X80731500Y-66486500D01*
X80710000Y-66500000D01*
X80688000Y-66511500D01*
X80664500Y-66521000D01*
X80641000Y-66529000D01*
X80616500Y-66534500D01*
X80591500Y-66538500D01*
X80566500Y-66540000D01*
X80541500Y-66539500D01*
X80516500Y-66537000D01*
X80491500Y-66532000D01*
X80467500Y-66525500D01*
X80444000Y-66516500D01*
X80421000Y-66506000D01*
X80399500Y-66493500D01*
X80378500Y-66479000D01*
X80359500Y-66463000D01*
X80341500Y-66445500D01*
X80325000Y-66426500D01*
X80310000Y-66406000D01*
X80297000Y-66384500D01*
X80286000Y-66362000D01*
X80277000Y-66338500D01*
X80269500Y-66314500D01*
X80264500Y-66290000D01*
X80261000Y-66265000D01*
X80260000Y-66240000D01*
X80261000Y-66215000D01*
X80264500Y-66190000D01*
X80269500Y-66165500D01*
X80277000Y-66141500D01*
X80286000Y-66118000D01*
X80297000Y-66095500D01*
X80310000Y-66074000D01*
X80325000Y-66053500D01*
X80341500Y-66034500D01*
X80359500Y-66017000D01*
X80378500Y-66001000D01*
X80399500Y-65986500D01*
X80421000Y-65974000D01*
X80444000Y-65963500D01*
X80467500Y-65954500D01*
X80491500Y-65948000D01*
X80516500Y-65943000D01*
X80541500Y-65940500D01*
X80566500Y-65940000D01*
X80591500Y-65941500D01*
G37*
G36*
X80991500Y-65241500D02*
G01*
X81016500Y-65245500D01*
X81041000Y-65251000D01*
X81064500Y-65259000D01*
X81088000Y-65268500D01*
X81110000Y-65280000D01*
X81131500Y-65293500D01*
X81151500Y-65309000D01*
X81170000Y-65325500D01*
X81187500Y-65344000D01*
X81203000Y-65363500D01*
X81217000Y-65384500D01*
X81229000Y-65406500D01*
X81239000Y-65429500D01*
X81247500Y-65453500D01*
X81253500Y-65477500D01*
X81258000Y-65502500D01*
X81260000Y-65527500D01*
X81260000Y-65552500D01*
X81258000Y-65577500D01*
X81253500Y-65602500D01*
X81247500Y-65626500D01*
X81239000Y-65650500D01*
X81229000Y-65673500D01*
X81217000Y-65695500D01*
X81203000Y-65716500D01*
X81187500Y-65736000D01*
X81170000Y-65754500D01*
X81151500Y-65771000D01*
X81131500Y-65786500D01*
X81110000Y-65800000D01*
X81088000Y-65811500D01*
X81064500Y-65821000D01*
X81041000Y-65829000D01*
X81016500Y-65834500D01*
X80991500Y-65838500D01*
X80966500Y-65840000D01*
X80941500Y-65839500D01*
X80916500Y-65837000D01*
X80891500Y-65832000D01*
X80867500Y-65825500D01*
X80844000Y-65816500D01*
X80821000Y-65806000D01*
X80799500Y-65793500D01*
X80779000Y-65779000D01*
X80759500Y-65763000D01*
X80741500Y-65745500D01*
X80725000Y-65726500D01*
X80710500Y-65706000D01*
X80697500Y-65684500D01*
X80686000Y-65662000D01*
X80677000Y-65638500D01*
X80669500Y-65614500D01*
X80664500Y-65590000D01*
X80661000Y-65565000D01*
X80660000Y-65540000D01*
X80661000Y-65515000D01*
X80664500Y-65490000D01*
X80669500Y-65465500D01*
X80677000Y-65441500D01*
X80686000Y-65418000D01*
X80697500Y-65395500D01*
X80710500Y-65374000D01*
X80725000Y-65353500D01*
X80741500Y-65334500D01*
X80759500Y-65317000D01*
X80779000Y-65301000D01*
X80799500Y-65286500D01*
X80821000Y-65274000D01*
X80844000Y-65263500D01*
X80867500Y-65254500D01*
X80891500Y-65248000D01*
X80916500Y-65243000D01*
X80941500Y-65240500D01*
X80966500Y-65240000D01*
X80991500Y-65241500D01*
G37*
G36*
X81391500Y-65941500D02*
G01*
X81416500Y-65945500D01*
X81441000Y-65951000D01*
X81465000Y-65959000D01*
X81488000Y-65968500D01*
X81510000Y-65980000D01*
X81531500Y-65993500D01*
X81551500Y-66009000D01*
X81570000Y-66025500D01*
X81587500Y-66044000D01*
X81603000Y-66063500D01*
X81617000Y-66084500D01*
X81629000Y-66106500D01*
X81639000Y-66129500D01*
X81647500Y-66153500D01*
X81653500Y-66177500D01*
X81658000Y-66202500D01*
X81660000Y-66227500D01*
X81660000Y-66252500D01*
X81658000Y-66277500D01*
X81653500Y-66302500D01*
X81647500Y-66326500D01*
X81639000Y-66350500D01*
X81629000Y-66373500D01*
X81617000Y-66395500D01*
X81603000Y-66416500D01*
X81587500Y-66436000D01*
X81570000Y-66454500D01*
X81551500Y-66471000D01*
X81531500Y-66486500D01*
X81510000Y-66500000D01*
X81488000Y-66511500D01*
X81465000Y-66521000D01*
X81441000Y-66529000D01*
X81416500Y-66534500D01*
X81391500Y-66538500D01*
X81366500Y-66540000D01*
X81341500Y-66539500D01*
X81316500Y-66537000D01*
X81291500Y-66532000D01*
X81267500Y-66525500D01*
X81244000Y-66516500D01*
X81221000Y-66506000D01*
X81199500Y-66493500D01*
X81179000Y-66479000D01*
X81159500Y-66463000D01*
X81141500Y-66445500D01*
X81125000Y-66426500D01*
X81110500Y-66406000D01*
X81097500Y-66384500D01*
X81086000Y-66362000D01*
X81077000Y-66338500D01*
X81069500Y-66314500D01*
X81064500Y-66290000D01*
X81061000Y-66265000D01*
X81060000Y-66240000D01*
X81061000Y-66215000D01*
X81064500Y-66190000D01*
X81069500Y-66165500D01*
X81077000Y-66141500D01*
X81086000Y-66118000D01*
X81097500Y-66095500D01*
X81110500Y-66074000D01*
X81125000Y-66053500D01*
X81141500Y-66034500D01*
X81159500Y-66017000D01*
X81179000Y-66001000D01*
X81199500Y-65986500D01*
X81221000Y-65974000D01*
X81244000Y-65963500D01*
X81267500Y-65954500D01*
X81291500Y-65948000D01*
X81316500Y-65943000D01*
X81341500Y-65940500D01*
X81366500Y-65940000D01*
X81391500Y-65941500D01*
G37*
G36*
X82191500Y-65941500D02*
G01*
X82216500Y-65945500D01*
X82240500Y-65951000D01*
X82264500Y-65959000D01*
X82288000Y-65968500D01*
X82310000Y-65980000D01*
X82331500Y-65993500D01*
X82351500Y-66009000D01*
X82370000Y-66025500D01*
X82387000Y-66044000D01*
X82402500Y-66063500D01*
X82416500Y-66084500D01*
X82429000Y-66106500D01*
X82439000Y-66129500D01*
X82447000Y-66153500D01*
X82453500Y-66177500D01*
X82457500Y-66202500D01*
X82460000Y-66227500D01*
X82460000Y-66252500D01*
X82457500Y-66277500D01*
X82453500Y-66302500D01*
X82447000Y-66326500D01*
X82439000Y-66350500D01*
X82429000Y-66373500D01*
X82416500Y-66395500D01*
X82402500Y-66416500D01*
X82387000Y-66436000D01*
X82370000Y-66454500D01*
X82351500Y-66471000D01*
X82331500Y-66486500D01*
X82310000Y-66500000D01*
X82288000Y-66511500D01*
X82264500Y-66521000D01*
X82240500Y-66529000D01*
X82216500Y-66534500D01*
X82191500Y-66538500D01*
X82166500Y-66540000D01*
X82141000Y-66539500D01*
X82116000Y-66537000D01*
X82091500Y-66532000D01*
X82067500Y-66525500D01*
X82044000Y-66516500D01*
X82021000Y-66506000D01*
X81999500Y-66493500D01*
X81978500Y-66479000D01*
X81959500Y-66463000D01*
X81941500Y-66445500D01*
X81925000Y-66426500D01*
X81910000Y-66406000D01*
X81897000Y-66384500D01*
X81886000Y-66362000D01*
X81876500Y-66338500D01*
X81869500Y-66314500D01*
X81864000Y-66290000D01*
X81861000Y-66265000D01*
X81860000Y-66240000D01*
X81861000Y-66215000D01*
X81864000Y-66190000D01*
X81869500Y-66165500D01*
X81876500Y-66141500D01*
X81886000Y-66118000D01*
X81897000Y-66095500D01*
X81910000Y-66074000D01*
X81925000Y-66053500D01*
X81941500Y-66034500D01*
X81959500Y-66017000D01*
X81978500Y-66001000D01*
X81999500Y-65986500D01*
X82021000Y-65974000D01*
X82044000Y-65963500D01*
X82067500Y-65954500D01*
X82091500Y-65948000D01*
X82116000Y-65943000D01*
X82141000Y-65940500D01*
X82166500Y-65940000D01*
X82191500Y-65941500D01*
G37*
G36*
X82591500Y-65241500D02*
G01*
X82616500Y-65245500D01*
X82641000Y-65251000D01*
X82664500Y-65259000D01*
X82688000Y-65268500D01*
X82710000Y-65280000D01*
X82731500Y-65293500D01*
X82751500Y-65309000D01*
X82770000Y-65325500D01*
X82787000Y-65344000D01*
X82803000Y-65363500D01*
X82816500Y-65384500D01*
X82829000Y-65406500D01*
X82839000Y-65429500D01*
X82847500Y-65453500D01*
X82853500Y-65477500D01*
X82857500Y-65502500D01*
X82860000Y-65527500D01*
X82860000Y-65552500D01*
X82857500Y-65577500D01*
X82853500Y-65602500D01*
X82847500Y-65626500D01*
X82839000Y-65650500D01*
X82829000Y-65673500D01*
X82816500Y-65695500D01*
X82803000Y-65716500D01*
X82787000Y-65736000D01*
X82770000Y-65754500D01*
X82751500Y-65771000D01*
X82731500Y-65786500D01*
X82710000Y-65800000D01*
X82688000Y-65811500D01*
X82664500Y-65821000D01*
X82641000Y-65829000D01*
X82616500Y-65834500D01*
X82591500Y-65838500D01*
X82566500Y-65840000D01*
X82541500Y-65839500D01*
X82516500Y-65837000D01*
X82491500Y-65832000D01*
X82467500Y-65825500D01*
X82444000Y-65816500D01*
X82421000Y-65806000D01*
X82399500Y-65793500D01*
X82378500Y-65779000D01*
X82359500Y-65763000D01*
X82341500Y-65745500D01*
X82325000Y-65726500D01*
X82310000Y-65706000D01*
X82297000Y-65684500D01*
X82286000Y-65662000D01*
X82277000Y-65638500D01*
X82269500Y-65614500D01*
X82264500Y-65590000D01*
X82261000Y-65565000D01*
X82260000Y-65540000D01*
X82261000Y-65515000D01*
X82264500Y-65490000D01*
X82269500Y-65465500D01*
X82277000Y-65441500D01*
X82286000Y-65418000D01*
X82297000Y-65395500D01*
X82310000Y-65374000D01*
X82325000Y-65353500D01*
X82341500Y-65334500D01*
X82359500Y-65317000D01*
X82378500Y-65301000D01*
X82399500Y-65286500D01*
X82421000Y-65274000D01*
X82444000Y-65263500D01*
X82467500Y-65254500D01*
X82491500Y-65248000D01*
X82516500Y-65243000D01*
X82541500Y-65240500D01*
X82566500Y-65240000D01*
X82591500Y-65241500D01*
G37*
G36*
X82991500Y-65941500D02*
G01*
X83016500Y-65945500D01*
X83041000Y-65951000D01*
X83064500Y-65959000D01*
X83088000Y-65968500D01*
X83110000Y-65980000D01*
X83131500Y-65993500D01*
X83151500Y-66009000D01*
X83170000Y-66025500D01*
X83187500Y-66044000D01*
X83203000Y-66063500D01*
X83217000Y-66084500D01*
X83229000Y-66106500D01*
X83239000Y-66129500D01*
X83247500Y-66153500D01*
X83253500Y-66177500D01*
X83258000Y-66202500D01*
X83260000Y-66227500D01*
X83260000Y-66252500D01*
X83258000Y-66277500D01*
X83253500Y-66302500D01*
X83247500Y-66326500D01*
X83239000Y-66350500D01*
X83229000Y-66373500D01*
X83217000Y-66395500D01*
X83203000Y-66416500D01*
X83187500Y-66436000D01*
X83170000Y-66454500D01*
X83151500Y-66471000D01*
X83131500Y-66486500D01*
X83110000Y-66500000D01*
X83088000Y-66511500D01*
X83064500Y-66521000D01*
X83041000Y-66529000D01*
X83016500Y-66534500D01*
X82991500Y-66538500D01*
X82966500Y-66540000D01*
X82941500Y-66539500D01*
X82916500Y-66537000D01*
X82891500Y-66532000D01*
X82867500Y-66525500D01*
X82844000Y-66516500D01*
X82821000Y-66506000D01*
X82799500Y-66493500D01*
X82779000Y-66479000D01*
X82759500Y-66463000D01*
X82741500Y-66445500D01*
X82725000Y-66426500D01*
X82710500Y-66406000D01*
X82697500Y-66384500D01*
X82686000Y-66362000D01*
X82677000Y-66338500D01*
X82669500Y-66314500D01*
X82664500Y-66290000D01*
X82661000Y-66265000D01*
X82660000Y-66240000D01*
X82661000Y-66215000D01*
X82664500Y-66190000D01*
X82669500Y-66165500D01*
X82677000Y-66141500D01*
X82686000Y-66118000D01*
X82697500Y-66095500D01*
X82710500Y-66074000D01*
X82725000Y-66053500D01*
X82741500Y-66034500D01*
X82759500Y-66017000D01*
X82779000Y-66001000D01*
X82799500Y-65986500D01*
X82821000Y-65974000D01*
X82844000Y-65963500D01*
X82867500Y-65954500D01*
X82891500Y-65948000D01*
X82916500Y-65943000D01*
X82941500Y-65940500D01*
X82966500Y-65940000D01*
X82991500Y-65941500D01*
G37*
G36*
X83391500Y-65241500D02*
G01*
X83416500Y-65245500D01*
X83441000Y-65251000D01*
X83465000Y-65259000D01*
X83488000Y-65268500D01*
X83510000Y-65280000D01*
X83531500Y-65293500D01*
X83551500Y-65309000D01*
X83570000Y-65325500D01*
X83587500Y-65344000D01*
X83603000Y-65363500D01*
X83617000Y-65384500D01*
X83629000Y-65406500D01*
X83639000Y-65429500D01*
X83647500Y-65453500D01*
X83653500Y-65477500D01*
X83658000Y-65502500D01*
X83660000Y-65527500D01*
X83660000Y-65552500D01*
X83658000Y-65577500D01*
X83653500Y-65602500D01*
X83647500Y-65626500D01*
X83639000Y-65650500D01*
X83629000Y-65673500D01*
X83617000Y-65695500D01*
X83603000Y-65716500D01*
X83587500Y-65736000D01*
X83570000Y-65754500D01*
X83551500Y-65771000D01*
X83531500Y-65786500D01*
X83510000Y-65800000D01*
X83488000Y-65811500D01*
X83465000Y-65821000D01*
X83441000Y-65829000D01*
X83416500Y-65834500D01*
X83391500Y-65838500D01*
X83366500Y-65840000D01*
X83341500Y-65839500D01*
X83316500Y-65837000D01*
X83291500Y-65832000D01*
X83267500Y-65825500D01*
X83244000Y-65816500D01*
X83221000Y-65806000D01*
X83199500Y-65793500D01*
X83179000Y-65779000D01*
X83159500Y-65763000D01*
X83141500Y-65745500D01*
X83125000Y-65726500D01*
X83110500Y-65706000D01*
X83097500Y-65684500D01*
X83086000Y-65662000D01*
X83077000Y-65638500D01*
X83069500Y-65614500D01*
X83064500Y-65590000D01*
X83061000Y-65565000D01*
X83060000Y-65540000D01*
X83061000Y-65515000D01*
X83064500Y-65490000D01*
X83069500Y-65465500D01*
X83077000Y-65441500D01*
X83086000Y-65418000D01*
X83097500Y-65395500D01*
X83110500Y-65374000D01*
X83125000Y-65353500D01*
X83141500Y-65334500D01*
X83159500Y-65317000D01*
X83179000Y-65301000D01*
X83199500Y-65286500D01*
X83221000Y-65274000D01*
X83244000Y-65263500D01*
X83267500Y-65254500D01*
X83291500Y-65248000D01*
X83316500Y-65243000D01*
X83341500Y-65240500D01*
X83366500Y-65240000D01*
X83391500Y-65241500D01*
G37*
G36*
X84191500Y-65241500D02*
G01*
X84216500Y-65245500D01*
X84240500Y-65251000D01*
X84264500Y-65259000D01*
X84288000Y-65268500D01*
X84310000Y-65280000D01*
X84331500Y-65293500D01*
X84351500Y-65309000D01*
X84370000Y-65325500D01*
X84387000Y-65344000D01*
X84402500Y-65363500D01*
X84416500Y-65384500D01*
X84429000Y-65406500D01*
X84439000Y-65429500D01*
X84447000Y-65453500D01*
X84453500Y-65477500D01*
X84457500Y-65502500D01*
X84460000Y-65527500D01*
X84460000Y-65552500D01*
X84457500Y-65577500D01*
X84453500Y-65602500D01*
X84447000Y-65626500D01*
X84439000Y-65650500D01*
X84429000Y-65673500D01*
X84416500Y-65695500D01*
X84402500Y-65716500D01*
X84387000Y-65736000D01*
X84370000Y-65754500D01*
X84351500Y-65771000D01*
X84331500Y-65786500D01*
X84310000Y-65800000D01*
X84288000Y-65811500D01*
X84264500Y-65821000D01*
X84240500Y-65829000D01*
X84216500Y-65834500D01*
X84191500Y-65838500D01*
X84166500Y-65840000D01*
X84141000Y-65839500D01*
X84116000Y-65837000D01*
X84091500Y-65832000D01*
X84067500Y-65825500D01*
X84044000Y-65816500D01*
X84021000Y-65806000D01*
X83999500Y-65793500D01*
X83978500Y-65779000D01*
X83959500Y-65763000D01*
X83941500Y-65745500D01*
X83925000Y-65726500D01*
X83910000Y-65706000D01*
X83897000Y-65684500D01*
X83886000Y-65662000D01*
X83876500Y-65638500D01*
X83869500Y-65614500D01*
X83864000Y-65590000D01*
X83861000Y-65565000D01*
X83860000Y-65540000D01*
X83861000Y-65515000D01*
X83864000Y-65490000D01*
X83869500Y-65465500D01*
X83876500Y-65441500D01*
X83886000Y-65418000D01*
X83897000Y-65395500D01*
X83910000Y-65374000D01*
X83925000Y-65353500D01*
X83941500Y-65334500D01*
X83959500Y-65317000D01*
X83978500Y-65301000D01*
X83999500Y-65286500D01*
X84021000Y-65274000D01*
X84044000Y-65263500D01*
X84067500Y-65254500D01*
X84091500Y-65248000D01*
X84116000Y-65243000D01*
X84141000Y-65240500D01*
X84166500Y-65240000D01*
X84191500Y-65241500D01*
G37*
G36*
X84591500Y-65941500D02*
G01*
X84616500Y-65945500D01*
X84641000Y-65951000D01*
X84664500Y-65959000D01*
X84688000Y-65968500D01*
X84710000Y-65980000D01*
X84731500Y-65993500D01*
X84751500Y-66009000D01*
X84770000Y-66025500D01*
X84787000Y-66044000D01*
X84803000Y-66063500D01*
X84816500Y-66084500D01*
X84829000Y-66106500D01*
X84839000Y-66129500D01*
X84847500Y-66153500D01*
X84853500Y-66177500D01*
X84857500Y-66202500D01*
X84860000Y-66227500D01*
X84860000Y-66252500D01*
X84857500Y-66277500D01*
X84853500Y-66302500D01*
X84847500Y-66326500D01*
X84839000Y-66350500D01*
X84829000Y-66373500D01*
X84816500Y-66395500D01*
X84803000Y-66416500D01*
X84787000Y-66436000D01*
X84770000Y-66454500D01*
X84751500Y-66471000D01*
X84731500Y-66486500D01*
X84710000Y-66500000D01*
X84688000Y-66511500D01*
X84664500Y-66521000D01*
X84641000Y-66529000D01*
X84616500Y-66534500D01*
X84591500Y-66538500D01*
X84566500Y-66540000D01*
X84541000Y-66539500D01*
X84516500Y-66537000D01*
X84491500Y-66532000D01*
X84467500Y-66525500D01*
X84444000Y-66516500D01*
X84421000Y-66506000D01*
X84399500Y-66493500D01*
X84378500Y-66479000D01*
X84359500Y-66463000D01*
X84341500Y-66445500D01*
X84325000Y-66426500D01*
X84310000Y-66406000D01*
X84297000Y-66384500D01*
X84286000Y-66362000D01*
X84277000Y-66338500D01*
X84269500Y-66314500D01*
X84264500Y-66290000D01*
X84261000Y-66265000D01*
X84260000Y-66240000D01*
X84261000Y-66215000D01*
X84264500Y-66190000D01*
X84269500Y-66165500D01*
X84277000Y-66141500D01*
X84286000Y-66118000D01*
X84297000Y-66095500D01*
X84310000Y-66074000D01*
X84325000Y-66053500D01*
X84341500Y-66034500D01*
X84359500Y-66017000D01*
X84378500Y-66001000D01*
X84399500Y-65986500D01*
X84421000Y-65974000D01*
X84444000Y-65963500D01*
X84467500Y-65954500D01*
X84491500Y-65948000D01*
X84516500Y-65943000D01*
X84541000Y-65940500D01*
X84566500Y-65940000D01*
X84591500Y-65941500D01*
G37*
G36*
X77300000Y-60551500D02*
G01*
X77320000Y-60553500D01*
X77339500Y-60556500D01*
X77359000Y-60560000D01*
X77378500Y-60565000D01*
X77397500Y-60571000D01*
X77416000Y-60578000D01*
X77434500Y-60585500D01*
X77452500Y-60594000D01*
X77470000Y-60604000D01*
X77487000Y-60614000D01*
X77503500Y-60625500D01*
X77519500Y-60637500D01*
X77534500Y-60650500D01*
X77549500Y-60664000D01*
X77563500Y-60678000D01*
X77576500Y-60693000D01*
X77589000Y-60708500D01*
X77600500Y-60725000D01*
X77611500Y-60741500D01*
X77621500Y-60759000D01*
X77630500Y-60776500D01*
X77638500Y-60795000D01*
X77646000Y-60813500D01*
X77652500Y-60832500D01*
X77657500Y-60851500D01*
X77662000Y-60871000D01*
X77665500Y-60890500D01*
X77668000Y-60910500D01*
X77669500Y-60930000D01*
X77670000Y-60950000D01*
X77670000Y-61550000D01*
X77669500Y-61570000D01*
X77668000Y-61590000D01*
X77665500Y-61610000D01*
X77662000Y-61629500D01*
X77657500Y-61649000D01*
X77652500Y-61668000D01*
X77646000Y-61687000D01*
X77638500Y-61705500D01*
X77630500Y-61723500D01*
X77621500Y-61741500D01*
X77611500Y-61759000D01*
X77600500Y-61775500D01*
X77589000Y-61791500D01*
X77576500Y-61807500D01*
X77563500Y-61822000D01*
X77549500Y-61836500D01*
X77534500Y-61850000D01*
X77519500Y-61863000D01*
X77503500Y-61875000D01*
X77487000Y-61886000D01*
X77470000Y-61896500D01*
X77452500Y-61906000D01*
X77434500Y-61915000D01*
X77416000Y-61922500D01*
X77397500Y-61929500D01*
X77378500Y-61935000D01*
X77359000Y-61940000D01*
X77339500Y-61944000D01*
X77320000Y-61947000D01*
X77300000Y-61949000D01*
X77280000Y-61950000D01*
X77260000Y-61950000D01*
X77240000Y-61949000D01*
X77220500Y-61947000D01*
X77200500Y-61944000D01*
X77181000Y-61940000D01*
X77161500Y-61935000D01*
X77142500Y-61929500D01*
X77124000Y-61922500D01*
X77105500Y-61915000D01*
X77087500Y-61906000D01*
X77070000Y-61896500D01*
X77053000Y-61886000D01*
X77036500Y-61875000D01*
X77020500Y-61863000D01*
X77005500Y-61850000D01*
X76990500Y-61836500D01*
X76977000Y-61822000D01*
X76963500Y-61807500D01*
X76951000Y-61791500D01*
X76939500Y-61775500D01*
X76928500Y-61759000D01*
X76919000Y-61741500D01*
X76909500Y-61723500D01*
X76901500Y-61705500D01*
X76894000Y-61687000D01*
X76888000Y-61668000D01*
X76882500Y-61649000D01*
X76878000Y-61629500D01*
X76874500Y-61610000D01*
X76872000Y-61590000D01*
X76870500Y-61570000D01*
X76870000Y-61550000D01*
X76870000Y-60950000D01*
X76870500Y-60930000D01*
X76872000Y-60910500D01*
X76874500Y-60890500D01*
X76878000Y-60871000D01*
X76882500Y-60851500D01*
X76888000Y-60832500D01*
X76894000Y-60813500D01*
X76901500Y-60795000D01*
X76909500Y-60776500D01*
X76919000Y-60759000D01*
X76928500Y-60741500D01*
X76939500Y-60725000D01*
X76951000Y-60708500D01*
X76963500Y-60693000D01*
X76977000Y-60678000D01*
X76990500Y-60664000D01*
X77005500Y-60650500D01*
X77020500Y-60637500D01*
X77036500Y-60625500D01*
X77053000Y-60614000D01*
X77070000Y-60604000D01*
X77087500Y-60594000D01*
X77105500Y-60585500D01*
X77124000Y-60578000D01*
X77142500Y-60571000D01*
X77161500Y-60565000D01*
X77181000Y-60560000D01*
X77200500Y-60556500D01*
X77220500Y-60553500D01*
X77240000Y-60551500D01*
X77260000Y-60550500D01*
X77280000Y-60550500D01*
X77300000Y-60551500D01*
G37*
G36*
X77660000Y-64941000D02*
G01*
X77680000Y-64943000D01*
X77699500Y-64946000D01*
X77719000Y-64950000D01*
X77738500Y-64955000D01*
X77757500Y-64961000D01*
X77776500Y-64967500D01*
X77794500Y-64975500D01*
X77812500Y-64984000D01*
X77830000Y-64993500D01*
X77847000Y-65004000D01*
X77863500Y-65015500D01*
X77879500Y-65027500D01*
X77895000Y-65040000D01*
X77909500Y-65053500D01*
X77923500Y-65068000D01*
X77936500Y-65083000D01*
X77949000Y-65098500D01*
X77960500Y-65114500D01*
X77971500Y-65131500D01*
X77981500Y-65148500D01*
X77990500Y-65166500D01*
X77999000Y-65184500D01*
X78006000Y-65203500D01*
X78012500Y-65222000D01*
X78018000Y-65241500D01*
X78022500Y-65261000D01*
X78025500Y-65280500D01*
X78028000Y-65300000D01*
X78029500Y-65320000D01*
X78030000Y-65340000D01*
X78030000Y-65940000D01*
X78029500Y-65960000D01*
X78028000Y-65980000D01*
X78025500Y-65999500D01*
X78022500Y-66019500D01*
X78018000Y-66039000D01*
X78012500Y-66058000D01*
X78006000Y-66077000D01*
X77999000Y-66095500D01*
X77990500Y-66113500D01*
X77981500Y-66131500D01*
X77971500Y-66148500D01*
X77960500Y-66165500D01*
X77949000Y-66181500D01*
X77936500Y-66197000D01*
X77923500Y-66212000D01*
X77909500Y-66226500D01*
X77895000Y-66240000D01*
X77879500Y-66253000D01*
X77863500Y-66265000D01*
X77847000Y-66276000D01*
X77830000Y-66286500D01*
X77812500Y-66296000D01*
X77794500Y-66304500D01*
X77776500Y-66312500D01*
X77757500Y-66319000D01*
X77738500Y-66325000D01*
X77719000Y-66330000D01*
X77699500Y-66334000D01*
X77680000Y-66337000D01*
X77660000Y-66339000D01*
X77640000Y-66340000D01*
X77620000Y-66340000D01*
X77600500Y-66339000D01*
X77580500Y-66337000D01*
X77560500Y-66334000D01*
X77541000Y-66330000D01*
X77522000Y-66325000D01*
X77503000Y-66319000D01*
X77484000Y-66312500D01*
X77465500Y-66304500D01*
X77447500Y-66296000D01*
X77430000Y-66286500D01*
X77413000Y-66276000D01*
X77396500Y-66265000D01*
X77381000Y-66253000D01*
X77365500Y-66240000D01*
X77351000Y-66226500D01*
X77337000Y-66212000D01*
X77324000Y-66197000D01*
X77311500Y-66181500D01*
X77299500Y-66165500D01*
X77289000Y-66148500D01*
X77279000Y-66131500D01*
X77270000Y-66113500D01*
X77261500Y-66095500D01*
X77254500Y-66077000D01*
X77248000Y-66058000D01*
X77242500Y-66039000D01*
X77238000Y-66019500D01*
X77234500Y-65999500D01*
X77232000Y-65980000D01*
X77230500Y-65960000D01*
X77230000Y-65940000D01*
X77230000Y-65340000D01*
X77230500Y-65320000D01*
X77232000Y-65300000D01*
X77234500Y-65280500D01*
X77238000Y-65261000D01*
X77242500Y-65241500D01*
X77248000Y-65222000D01*
X77254500Y-65203500D01*
X77261500Y-65184500D01*
X77270000Y-65166500D01*
X77279000Y-65148500D01*
X77289000Y-65131500D01*
X77299500Y-65114500D01*
X77311500Y-65098500D01*
X77324000Y-65083000D01*
X77337000Y-65068000D01*
X77351000Y-65053500D01*
X77365500Y-65040000D01*
X77381000Y-65027500D01*
X77396500Y-65015500D01*
X77413000Y-65004000D01*
X77430000Y-64993500D01*
X77447500Y-64984000D01*
X77465500Y-64975500D01*
X77484000Y-64967500D01*
X77503000Y-64961000D01*
X77522000Y-64955000D01*
X77541000Y-64950000D01*
X77560500Y-64946000D01*
X77580500Y-64943000D01*
X77600500Y-64941000D01*
X77620000Y-64940000D01*
X77640000Y-64940000D01*
X77660000Y-64941000D01*
G37*
G36*
X85920000Y-64941000D02*
G01*
X85940000Y-64943000D01*
X85959500Y-64946000D01*
X85979000Y-64950000D01*
X85998500Y-64955000D01*
X86017500Y-64961000D01*
X86036000Y-64967500D01*
X86054500Y-64975500D01*
X86072500Y-64984000D01*
X86090000Y-64993500D01*
X86107000Y-65004000D01*
X86123500Y-65015500D01*
X86139500Y-65027500D01*
X86154500Y-65040000D01*
X86169500Y-65053500D01*
X86183500Y-65068000D01*
X86196500Y-65083000D01*
X86209000Y-65098500D01*
X86220500Y-65114500D01*
X86231500Y-65131500D01*
X86241500Y-65148500D01*
X86250500Y-65166500D01*
X86258500Y-65184500D01*
X86266000Y-65203500D01*
X86272500Y-65222000D01*
X86277500Y-65241500D01*
X86282000Y-65261000D01*
X86285500Y-65280500D01*
X86288000Y-65300000D01*
X86289500Y-65320000D01*
X86290000Y-65340000D01*
X86290000Y-65940000D01*
X86289500Y-65960000D01*
X86288000Y-65980000D01*
X86285500Y-65999500D01*
X86282000Y-66019500D01*
X86277500Y-66039000D01*
X86272500Y-66058000D01*
X86266000Y-66077000D01*
X86258500Y-66095500D01*
X86250500Y-66113500D01*
X86241500Y-66131500D01*
X86231500Y-66148500D01*
X86220500Y-66165500D01*
X86209000Y-66181500D01*
X86196500Y-66197000D01*
X86183500Y-66212000D01*
X86169500Y-66226500D01*
X86154500Y-66240000D01*
X86139500Y-66253000D01*
X86123500Y-66265000D01*
X86107000Y-66276000D01*
X86090000Y-66286500D01*
X86072500Y-66296000D01*
X86054500Y-66304500D01*
X86036000Y-66312500D01*
X86017500Y-66319000D01*
X85998500Y-66325000D01*
X85979000Y-66330000D01*
X85959500Y-66334000D01*
X85940000Y-66337000D01*
X85920000Y-66339000D01*
X85900000Y-66340000D01*
X85880000Y-66340000D01*
X85860000Y-66339000D01*
X85840500Y-66337000D01*
X85820500Y-66334000D01*
X85801000Y-66330000D01*
X85781500Y-66325000D01*
X85762500Y-66319000D01*
X85744000Y-66312500D01*
X85725500Y-66304500D01*
X85707500Y-66296000D01*
X85690000Y-66286500D01*
X85673000Y-66276000D01*
X85656500Y-66265000D01*
X85640500Y-66253000D01*
X85625500Y-66240000D01*
X85610500Y-66226500D01*
X85597000Y-66212000D01*
X85583500Y-66197000D01*
X85571000Y-66181500D01*
X85559500Y-66165500D01*
X85548500Y-66148500D01*
X85539000Y-66131500D01*
X85529500Y-66113500D01*
X85521500Y-66095500D01*
X85514000Y-66077000D01*
X85508000Y-66058000D01*
X85502500Y-66039000D01*
X85498000Y-66019500D01*
X85494500Y-65999500D01*
X85492000Y-65980000D01*
X85490500Y-65960000D01*
X85490000Y-65940000D01*
X85490000Y-65340000D01*
X85490500Y-65320000D01*
X85492000Y-65300000D01*
X85494500Y-65280500D01*
X85498000Y-65261000D01*
X85502500Y-65241500D01*
X85508000Y-65222000D01*
X85514000Y-65203500D01*
X85521500Y-65184500D01*
X85529500Y-65166500D01*
X85539000Y-65148500D01*
X85548500Y-65131500D01*
X85559500Y-65114500D01*
X85571000Y-65098500D01*
X85583500Y-65083000D01*
X85597000Y-65068000D01*
X85610500Y-65053500D01*
X85625500Y-65040000D01*
X85640500Y-65027500D01*
X85656500Y-65015500D01*
X85673000Y-65004000D01*
X85690000Y-64993500D01*
X85707500Y-64984000D01*
X85725500Y-64975500D01*
X85744000Y-64967500D01*
X85762500Y-64961000D01*
X85781500Y-64955000D01*
X85801000Y-64950000D01*
X85820500Y-64946000D01*
X85840500Y-64943000D01*
X85860000Y-64941000D01*
X85880000Y-64940000D01*
X85900000Y-64940000D01*
X85920000Y-64941000D01*
G37*
G36*
X86280000Y-60551500D02*
G01*
X86299500Y-60553500D01*
X86319500Y-60556500D01*
X86339000Y-60560000D01*
X86358500Y-60565000D01*
X86377500Y-60571000D01*
X86396000Y-60578000D01*
X86414500Y-60585500D01*
X86432500Y-60594000D01*
X86450000Y-60604000D01*
X86467000Y-60614000D01*
X86483500Y-60625500D01*
X86499500Y-60637500D01*
X86514500Y-60650500D01*
X86529500Y-60664000D01*
X86543000Y-60678000D01*
X86556500Y-60693000D01*
X86569000Y-60708500D01*
X86580500Y-60725000D01*
X86591500Y-60741500D01*
X86601000Y-60759000D01*
X86610500Y-60776500D01*
X86618500Y-60795000D01*
X86626000Y-60813500D01*
X86632000Y-60832500D01*
X86637500Y-60851500D01*
X86642000Y-60871000D01*
X86645500Y-60890500D01*
X86648000Y-60910500D01*
X86649500Y-60930000D01*
X86650000Y-60950000D01*
X86650000Y-61550000D01*
X86649500Y-61570000D01*
X86648000Y-61590000D01*
X86645500Y-61610000D01*
X86642000Y-61629500D01*
X86637500Y-61649000D01*
X86632000Y-61668000D01*
X86626000Y-61687000D01*
X86618500Y-61705500D01*
X86610500Y-61723500D01*
X86601000Y-61741500D01*
X86591500Y-61759000D01*
X86580500Y-61775500D01*
X86569000Y-61791500D01*
X86556500Y-61807500D01*
X86543000Y-61822000D01*
X86529500Y-61836500D01*
X86514500Y-61850000D01*
X86499500Y-61863000D01*
X86483500Y-61875000D01*
X86467000Y-61886000D01*
X86450000Y-61896500D01*
X86432500Y-61906000D01*
X86414500Y-61915000D01*
X86396000Y-61922500D01*
X86377500Y-61929500D01*
X86358500Y-61935000D01*
X86339000Y-61940000D01*
X86319500Y-61944000D01*
X86299500Y-61947000D01*
X86280000Y-61949000D01*
X86260000Y-61950000D01*
X86240000Y-61950000D01*
X86220000Y-61949000D01*
X86200000Y-61947000D01*
X86180500Y-61944000D01*
X86161000Y-61940000D01*
X86141500Y-61935000D01*
X86122500Y-61929500D01*
X86104000Y-61922500D01*
X86085500Y-61915000D01*
X86067500Y-61906000D01*
X86050000Y-61896500D01*
X86033000Y-61886000D01*
X86016500Y-61875000D01*
X86000500Y-61863000D01*
X85985500Y-61850000D01*
X85970500Y-61836500D01*
X85956500Y-61822000D01*
X85943500Y-61807500D01*
X85931000Y-61791500D01*
X85919500Y-61775500D01*
X85908500Y-61759000D01*
X85898500Y-61741500D01*
X85889500Y-61723500D01*
X85881500Y-61705500D01*
X85874000Y-61687000D01*
X85867500Y-61668000D01*
X85862500Y-61649000D01*
X85858000Y-61629500D01*
X85854500Y-61610000D01*
X85852000Y-61590000D01*
X85850500Y-61570000D01*
X85850000Y-61550000D01*
X85850000Y-60950000D01*
X85850500Y-60930000D01*
X85852000Y-60910500D01*
X85854500Y-60890500D01*
X85858000Y-60871000D01*
X85862500Y-60851500D01*
X85867500Y-60832500D01*
X85874000Y-60813500D01*
X85881500Y-60795000D01*
X85889500Y-60776500D01*
X85898500Y-60759000D01*
X85908500Y-60741500D01*
X85919500Y-60725000D01*
X85931000Y-60708500D01*
X85943500Y-60693000D01*
X85956500Y-60678000D01*
X85970500Y-60664000D01*
X85985500Y-60650500D01*
X86000500Y-60637500D01*
X86016500Y-60625500D01*
X86033000Y-60614000D01*
X86050000Y-60604000D01*
X86067500Y-60594000D01*
X86085500Y-60585500D01*
X86104000Y-60578000D01*
X86122500Y-60571000D01*
X86141500Y-60565000D01*
X86161000Y-60560000D01*
X86180500Y-60556500D01*
X86200000Y-60553500D01*
X86220000Y-60551500D01*
X86240000Y-60550500D01*
X86260000Y-60550500D01*
X86280000Y-60551500D01*
G37*
%TD*%
D11*
%TO.C,C2*%
X56000000Y-74230000D03*
X56000000Y-73270000D03*
%TD*%
D12*
%TO.C,R2*%
X75500000Y-73750000D03*
X73675000Y-73750000D03*
%TD*%
D13*
%TO.C,U3*%
X89600000Y-61450000D03*
X89600000Y-63750000D03*
D14*
X95900000Y-63750000D03*
D13*
X89600000Y-66050000D03*
%TD*%
D12*
%TO.C,R1*%
X75412500Y-71750000D03*
X73587500Y-71750000D03*
%TD*%
D15*
%TO.C,R5*%
X84010000Y-72151000D03*
X84010000Y-71131000D03*
%TD*%
D16*
%TO.C,C13*%
X70040000Y-76250000D03*
X71000000Y-76250000D03*
%TD*%
D17*
%TO.C,C11*%
X64250000Y-75770000D03*
X64250000Y-76730000D03*
%TD*%
D16*
%TO.C,C4*%
X70040000Y-74250000D03*
X71000000Y-74250000D03*
%TD*%
D18*
%TO.C,U1*%
X66000000Y-70387500D03*
X64400000Y-70387500D03*
X66000000Y-71987500D03*
X64400000Y-71987500D03*
D19*
X67800000Y-67750000D03*
X67400000Y-67750000D03*
X67000000Y-67750000D03*
X66600000Y-67750000D03*
X66200000Y-67750000D03*
X65800000Y-67750000D03*
X65400000Y-67750000D03*
X65000000Y-67750000D03*
X64600000Y-67750000D03*
X64200000Y-67750000D03*
X63800000Y-67750000D03*
X63400000Y-67750000D03*
X63000000Y-67750000D03*
X62600000Y-67750000D03*
D20*
X61762500Y-68587500D03*
X61762500Y-68987500D03*
X61762500Y-69387500D03*
X61762500Y-69787500D03*
X61762500Y-70187500D03*
X61762500Y-70587500D03*
X61762500Y-70987500D03*
X61762500Y-71387500D03*
X61762500Y-71787500D03*
X61762500Y-72187500D03*
X61762500Y-72587500D03*
X61762500Y-72987500D03*
X61762500Y-73387500D03*
X61762500Y-73787500D03*
D19*
X62600000Y-74625000D03*
X63000000Y-74625000D03*
X63400000Y-74625000D03*
X63800000Y-74625000D03*
X64200000Y-74625000D03*
X64600000Y-74625000D03*
X65000000Y-74625000D03*
X65400000Y-74625000D03*
X65800000Y-74625000D03*
X66200000Y-74625000D03*
X66600000Y-74625000D03*
X67000000Y-74625000D03*
X67400000Y-74625000D03*
X67800000Y-74625000D03*
D20*
X68637500Y-73787500D03*
X68637500Y-73387500D03*
X68637500Y-72987500D03*
X68637500Y-72587500D03*
X68637500Y-72187500D03*
X68637500Y-71787500D03*
X68637500Y-71387500D03*
X68637500Y-70987500D03*
X68637500Y-70587500D03*
X68637500Y-70187500D03*
X68637500Y-69787500D03*
X68637500Y-69387500D03*
X68637500Y-68987500D03*
X68637500Y-68587500D03*
%TD*%
D11*
%TO.C,C8*%
X104000000Y-74500000D03*
X104000000Y-73540000D03*
%TD*%
D21*
%TO.C,USBC1*%
X84509500Y-67641000D03*
X84010000Y-67641000D03*
X83511000Y-67641000D03*
X83010500Y-67641000D03*
X82510500Y-67641000D03*
X82010000Y-67641000D03*
X81509500Y-67641000D03*
X81009000Y-67641000D03*
X80510000Y-67641000D03*
X80011000Y-67641000D03*
X79510500Y-67641000D03*
X79010000Y-67641000D03*
%TD*%
D15*
%TO.C,R3*%
X104000000Y-68040000D03*
X104000000Y-67020000D03*
%TD*%
D16*
%TO.C,C5*%
X72020000Y-69750000D03*
X72980000Y-69750000D03*
%TD*%
D11*
%TO.C,C7*%
X69000000Y-66250000D03*
X69000000Y-65290000D03*
%TD*%
D22*
%TO.C,SWD*%
X55750000Y-76446500D03*
X58750000Y-76446500D03*
X61750000Y-76446500D03*
%TD*%
D16*
%TO.C,C10*%
X71040000Y-71250000D03*
X72000000Y-71250000D03*
%TD*%
D23*
%TO.C,C9*%
X58980000Y-71750000D03*
X58020000Y-71750000D03*
%TD*%
D24*
%TO.C,U2*%
X102405000Y-67420000D03*
X101135000Y-67420000D03*
X99865000Y-67420000D03*
X98595000Y-67420000D03*
X98595000Y-74620000D03*
X99865000Y-74620000D03*
X101135000Y-74620000D03*
X102405000Y-74620000D03*
%TD*%
D16*
%TO.C,C16*%
X70020000Y-75250000D03*
X70980000Y-75250000D03*
%TD*%
D25*
%TO.C,C15*%
X98025000Y-61500000D03*
X100975000Y-61500000D03*
%TD*%
D17*
%TO.C,C1*%
X54500000Y-67270000D03*
X54500000Y-68230000D03*
%TD*%
D16*
%TO.C,C6*%
X70000000Y-77250000D03*
X70960000Y-77250000D03*
%TD*%
D11*
%TO.C,C12*%
X64000000Y-64480000D03*
X64000000Y-63520000D03*
%TD*%
D17*
%TO.C,C3*%
X58500000Y-73270000D03*
X58500000Y-74230000D03*
%TD*%
D26*
%TO.C,Y1*%
X56000000Y-71750000D03*
X56000000Y-69850000D03*
X54500000Y-69850000D03*
X54500000Y-71750000D03*
%TD*%
D25*
%TO.C,C14*%
X89300000Y-68500000D03*
X92250000Y-68500000D03*
%TD*%
D27*
%TO.C,SW8*%
X73050000Y-120150000D03*
D28*
X73700000Y-119400000D03*
X73700000Y-120900000D03*
D29*
X74150000Y-126390000D03*
X74450000Y-120150000D03*
D28*
X74900000Y-125640000D03*
X74900000Y-127140000D03*
D29*
X75650000Y-126390000D03*
X84150000Y-117960000D03*
D28*
X84900000Y-117210000D03*
X84900000Y-118710000D03*
D29*
X85650000Y-117960000D03*
X86650000Y-128930000D03*
D28*
X87400000Y-128180000D03*
D30*
X87461250Y-129680000D03*
D31*
X88025000Y-129555000D03*
D32*
X88150000Y-128742500D03*
%TD*%
D27*
%TO.C,SW1*%
X54050000Y-82150000D03*
D28*
X54700000Y-81400000D03*
X54700000Y-82900000D03*
D29*
X55150000Y-88390000D03*
X55450000Y-82150000D03*
D28*
X55900000Y-87640000D03*
X55900000Y-89140000D03*
D29*
X56650000Y-88390000D03*
X65150000Y-79960000D03*
D28*
X65900000Y-79210000D03*
X65900000Y-80710000D03*
D29*
X66650000Y-79960000D03*
X67650000Y-90930000D03*
D28*
X68400000Y-90180000D03*
D30*
X68461250Y-91680000D03*
D31*
X69025000Y-91555000D03*
D32*
X69150000Y-90742500D03*
%TD*%
D27*
%TO.C,SW4*%
X54050000Y-101150000D03*
D28*
X54700000Y-100400000D03*
X54700000Y-101900000D03*
D29*
X55150000Y-107390000D03*
X55450000Y-101150000D03*
D28*
X55900000Y-106640000D03*
X55900000Y-108140000D03*
D29*
X56650000Y-107390000D03*
X65150000Y-98960000D03*
D28*
X65900000Y-98210000D03*
X65900000Y-99710000D03*
D29*
X66650000Y-98960000D03*
X67650000Y-109930000D03*
D28*
X68400000Y-109180000D03*
D30*
X68461250Y-110680000D03*
D31*
X69025000Y-110555000D03*
D32*
X69150000Y-109742500D03*
%TD*%
D27*
%TO.C,SW3*%
X92050000Y-82150000D03*
D28*
X92700000Y-81400000D03*
X92700000Y-82900000D03*
D29*
X93150000Y-88390000D03*
X93450000Y-82150000D03*
D28*
X93900000Y-87640000D03*
X93900000Y-89140000D03*
D29*
X94650000Y-88390000D03*
X103150000Y-79960000D03*
D28*
X103900000Y-79210000D03*
X103900000Y-80710000D03*
D29*
X104650000Y-79960000D03*
X105650000Y-90930000D03*
D28*
X106400000Y-90180000D03*
D30*
X106461250Y-91680000D03*
D31*
X107025000Y-91555000D03*
D32*
X107150000Y-90742500D03*
%TD*%
D27*
%TO.C,SW7*%
X54050000Y-120150000D03*
D28*
X54700000Y-119400000D03*
X54700000Y-120900000D03*
D29*
X55150000Y-126390000D03*
X55450000Y-120150000D03*
D28*
X55900000Y-125640000D03*
X55900000Y-127140000D03*
D29*
X56650000Y-126390000D03*
X65150000Y-117960000D03*
D28*
X65900000Y-117210000D03*
X65900000Y-118710000D03*
D29*
X66650000Y-117960000D03*
X67650000Y-128930000D03*
D28*
X68400000Y-128180000D03*
D30*
X68461250Y-129680000D03*
D31*
X69025000Y-129555000D03*
D32*
X69150000Y-128742500D03*
%TD*%
D27*
%TO.C,SW5*%
X73050000Y-101150000D03*
D28*
X73700000Y-100400000D03*
X73700000Y-101900000D03*
D29*
X74150000Y-107390000D03*
X74450000Y-101150000D03*
D28*
X74900000Y-106640000D03*
X74900000Y-108140000D03*
D29*
X75650000Y-107390000D03*
X84150000Y-98960000D03*
D28*
X84900000Y-98210000D03*
X84900000Y-99710000D03*
D29*
X85650000Y-98960000D03*
X86650000Y-109930000D03*
D28*
X87400000Y-109180000D03*
D30*
X87461250Y-110680000D03*
D31*
X88025000Y-110555000D03*
D32*
X88150000Y-109742500D03*
%TD*%
D27*
%TO.C,SW2*%
X73050000Y-82150000D03*
D28*
X73700000Y-81400000D03*
X73700000Y-82900000D03*
D29*
X74150000Y-88390000D03*
X74450000Y-82150000D03*
D28*
X74900000Y-87640000D03*
X74900000Y-89140000D03*
D29*
X75650000Y-88390000D03*
X84150000Y-79960000D03*
D28*
X84900000Y-79210000D03*
X84900000Y-80710000D03*
D29*
X85650000Y-79960000D03*
X86650000Y-90930000D03*
D28*
X87400000Y-90180000D03*
D30*
X87461250Y-91680000D03*
D31*
X88025000Y-91555000D03*
D32*
X88150000Y-90742500D03*
%TD*%
D27*
%TO.C,SW6*%
X92050000Y-101150000D03*
D28*
X92700000Y-100400000D03*
X92700000Y-101900000D03*
D29*
X93150000Y-107390000D03*
X93450000Y-101150000D03*
D28*
X93900000Y-106640000D03*
X93900000Y-108140000D03*
D29*
X94650000Y-107390000D03*
X103150000Y-98960000D03*
D28*
X103900000Y-98210000D03*
X103900000Y-99710000D03*
D29*
X104650000Y-98960000D03*
X105650000Y-109930000D03*
D28*
X106400000Y-109180000D03*
D30*
X106461250Y-110680000D03*
D31*
X107025000Y-110555000D03*
D32*
X107150000Y-109742500D03*
%TD*%
D27*
%TO.C,SW9*%
X92050000Y-120150000D03*
D28*
X92700000Y-119400000D03*
X92700000Y-120900000D03*
D29*
X93150000Y-126390000D03*
X93450000Y-120150000D03*
D28*
X93900000Y-125640000D03*
X93900000Y-127140000D03*
D29*
X94650000Y-126390000D03*
X103150000Y-117960000D03*
D28*
X103900000Y-117210000D03*
X103900000Y-118710000D03*
D29*
X104650000Y-117960000D03*
X105650000Y-128930000D03*
D28*
X106400000Y-128180000D03*
D30*
X106461250Y-129680000D03*
D31*
X107025000Y-129555000D03*
D32*
X107150000Y-128742500D03*
%TD*%
M02*
