%TF.GenerationSoftware,KiCad,Pcbnew,8.0.8*%
%TF.CreationDate,2025-02-13T21:53:56+01:00*%
%TF.ProjectId,macro33,6d616372-6f33-4332-9e6b-696361645f70,2*%
%TF.SameCoordinates,Original*%
%TF.FileFunction,Legend,Bot*%
%TF.FilePolarity,Positive*%
%FSLAX46Y46*%
G04 Gerber Fmt 4.6, Leading zero omitted, Abs format (unit mm)*
G04 Created by KiCad (PCBNEW 8.0.8) date 2025-02-13 21:53:56*
%MOMM*%
%LPD*%
G01*
G04 APERTURE LIST*
%ADD10C,0.150000*%
%ADD11O,0.800000X1.400000*%
%ADD12C,0.600000*%
%ADD13C,1.900000*%
%ADD14C,1.700000*%
%ADD15C,3.000000*%
%ADD16C,4.100000*%
G04 APERTURE END LIST*
D10*
%TO.C,SW8*%
X75053125Y-117103125D02*
X76640625Y-117103125D01*
X75053125Y-118690625D02*
X75053125Y-117103125D01*
X75053125Y-130596875D02*
X75053125Y-129009375D01*
X76640625Y-130596875D02*
X75053125Y-130596875D01*
X86959375Y-117103125D02*
X88546875Y-117103125D01*
X88546875Y-117103125D02*
X88546875Y-118690625D01*
X88546875Y-129009375D02*
X88546875Y-130596875D01*
X88546875Y-130596875D02*
X86959375Y-130596875D01*
%TO.C,SW1*%
X56053125Y-79103125D02*
X57640625Y-79103125D01*
X56053125Y-80690625D02*
X56053125Y-79103125D01*
X56053125Y-92596875D02*
X56053125Y-91009375D01*
X57640625Y-92596875D02*
X56053125Y-92596875D01*
X67959375Y-79103125D02*
X69546875Y-79103125D01*
X69546875Y-79103125D02*
X69546875Y-80690625D01*
X69546875Y-91009375D02*
X69546875Y-92596875D01*
X69546875Y-92596875D02*
X67959375Y-92596875D01*
%TO.C,SW4*%
X56053125Y-98103125D02*
X57640625Y-98103125D01*
X56053125Y-99690625D02*
X56053125Y-98103125D01*
X56053125Y-111596875D02*
X56053125Y-110009375D01*
X57640625Y-111596875D02*
X56053125Y-111596875D01*
X67959375Y-98103125D02*
X69546875Y-98103125D01*
X69546875Y-98103125D02*
X69546875Y-99690625D01*
X69546875Y-110009375D02*
X69546875Y-111596875D01*
X69546875Y-111596875D02*
X67959375Y-111596875D01*
%TO.C,SW3*%
X94053125Y-79103125D02*
X95640625Y-79103125D01*
X94053125Y-80690625D02*
X94053125Y-79103125D01*
X94053125Y-92596875D02*
X94053125Y-91009375D01*
X95640625Y-92596875D02*
X94053125Y-92596875D01*
X105959375Y-79103125D02*
X107546875Y-79103125D01*
X107546875Y-79103125D02*
X107546875Y-80690625D01*
X107546875Y-91009375D02*
X107546875Y-92596875D01*
X107546875Y-92596875D02*
X105959375Y-92596875D01*
%TO.C,SW7*%
X56053125Y-117103125D02*
X57640625Y-117103125D01*
X56053125Y-118690625D02*
X56053125Y-117103125D01*
X56053125Y-130596875D02*
X56053125Y-129009375D01*
X57640625Y-130596875D02*
X56053125Y-130596875D01*
X67959375Y-117103125D02*
X69546875Y-117103125D01*
X69546875Y-117103125D02*
X69546875Y-118690625D01*
X69546875Y-129009375D02*
X69546875Y-130596875D01*
X69546875Y-130596875D02*
X67959375Y-130596875D01*
%TO.C,SW5*%
X75053125Y-98103125D02*
X76640625Y-98103125D01*
X75053125Y-99690625D02*
X75053125Y-98103125D01*
X75053125Y-111596875D02*
X75053125Y-110009375D01*
X76640625Y-111596875D02*
X75053125Y-111596875D01*
X86959375Y-98103125D02*
X88546875Y-98103125D01*
X88546875Y-98103125D02*
X88546875Y-99690625D01*
X88546875Y-110009375D02*
X88546875Y-111596875D01*
X88546875Y-111596875D02*
X86959375Y-111596875D01*
%TO.C,SW2*%
X75053125Y-79103125D02*
X76640625Y-79103125D01*
X75053125Y-80690625D02*
X75053125Y-79103125D01*
X75053125Y-92596875D02*
X75053125Y-91009375D01*
X76640625Y-92596875D02*
X75053125Y-92596875D01*
X86959375Y-79103125D02*
X88546875Y-79103125D01*
X88546875Y-79103125D02*
X88546875Y-80690625D01*
X88546875Y-91009375D02*
X88546875Y-92596875D01*
X88546875Y-92596875D02*
X86959375Y-92596875D01*
%TO.C,SW6*%
X94053125Y-98103125D02*
X95640625Y-98103125D01*
X94053125Y-99690625D02*
X94053125Y-98103125D01*
X94053125Y-111596875D02*
X94053125Y-110009375D01*
X95640625Y-111596875D02*
X94053125Y-111596875D01*
X105959375Y-98103125D02*
X107546875Y-98103125D01*
X107546875Y-98103125D02*
X107546875Y-99690625D01*
X107546875Y-110009375D02*
X107546875Y-111596875D01*
X107546875Y-111596875D02*
X105959375Y-111596875D01*
%TO.C,SW9*%
X94053125Y-117103125D02*
X95640625Y-117103125D01*
X94053125Y-118690625D02*
X94053125Y-117103125D01*
X94053125Y-130596875D02*
X94053125Y-129009375D01*
X95640625Y-130596875D02*
X94053125Y-130596875D01*
X105959375Y-117103125D02*
X107546875Y-117103125D01*
X107546875Y-117103125D02*
X107546875Y-118690625D01*
X107546875Y-129009375D02*
X107546875Y-130596875D01*
X107546875Y-130596875D02*
X105959375Y-130596875D01*
%TD*%
%LPC*%
D11*
%TO.C,USBC1*%
X77620000Y-70298000D03*
X85880000Y-70298000D03*
X86240000Y-65908000D03*
X77260000Y-65908000D03*
D12*
X78950000Y-70898000D03*
X79350000Y-70198000D03*
X80150000Y-70198000D03*
X80550000Y-70898000D03*
X80950000Y-70198000D03*
X81350000Y-70898000D03*
X82150000Y-70898000D03*
X82550000Y-70198000D03*
X82950000Y-70898000D03*
X83350000Y-70198000D03*
X84150000Y-70198000D03*
X84550000Y-70898000D03*
%TD*%
D13*
%TO.C,SW8*%
X76300000Y-123850000D03*
D14*
X76720000Y-123850000D03*
D15*
X76800000Y-120150000D03*
D14*
X77300000Y-123850000D03*
D15*
X77990000Y-126390000D03*
X81800000Y-117950000D03*
D16*
X81800000Y-123850000D03*
D15*
X84340000Y-128930000D03*
D14*
X86300000Y-123850000D03*
X86880000Y-123850000D03*
D13*
X87300000Y-123850000D03*
%TD*%
%TO.C,SW1*%
X57300000Y-85850000D03*
D14*
X57720000Y-85850000D03*
D15*
X57800000Y-82150000D03*
D14*
X58300000Y-85850000D03*
D15*
X58990000Y-88390000D03*
X62800000Y-79950000D03*
D16*
X62800000Y-85850000D03*
D15*
X65340000Y-90930000D03*
D14*
X67300000Y-85850000D03*
X67880000Y-85850000D03*
D13*
X68300000Y-85850000D03*
%TD*%
%TO.C,SW4*%
X57300000Y-104850000D03*
D14*
X57720000Y-104850000D03*
D15*
X57800000Y-101150000D03*
D14*
X58300000Y-104850000D03*
D15*
X58990000Y-107390000D03*
X62800000Y-98950000D03*
D16*
X62800000Y-104850000D03*
D15*
X65340000Y-109930000D03*
D14*
X67300000Y-104850000D03*
X67880000Y-104850000D03*
D13*
X68300000Y-104850000D03*
%TD*%
%TO.C,SW3*%
X95300000Y-85850000D03*
D14*
X95720000Y-85850000D03*
D15*
X95800000Y-82150000D03*
D14*
X96300000Y-85850000D03*
D15*
X96990000Y-88390000D03*
X100800000Y-79950000D03*
D16*
X100800000Y-85850000D03*
D15*
X103340000Y-90930000D03*
D14*
X105300000Y-85850000D03*
X105880000Y-85850000D03*
D13*
X106300000Y-85850000D03*
%TD*%
%TO.C,SW7*%
X57300000Y-123850000D03*
D14*
X57720000Y-123850000D03*
D15*
X57800000Y-120150000D03*
D14*
X58300000Y-123850000D03*
D15*
X58990000Y-126390000D03*
X62800000Y-117950000D03*
D16*
X62800000Y-123850000D03*
D15*
X65340000Y-128930000D03*
D14*
X67300000Y-123850000D03*
X67880000Y-123850000D03*
D13*
X68300000Y-123850000D03*
%TD*%
%TO.C,SW5*%
X76300000Y-104850000D03*
D14*
X76720000Y-104850000D03*
D15*
X76800000Y-101150000D03*
D14*
X77300000Y-104850000D03*
D15*
X77990000Y-107390000D03*
X81800000Y-98950000D03*
D16*
X81800000Y-104850000D03*
D15*
X84340000Y-109930000D03*
D14*
X86300000Y-104850000D03*
X86880000Y-104850000D03*
D13*
X87300000Y-104850000D03*
%TD*%
%TO.C,SW2*%
X76300000Y-85850000D03*
D14*
X76720000Y-85850000D03*
D15*
X76800000Y-82150000D03*
D14*
X77300000Y-85850000D03*
D15*
X77990000Y-88390000D03*
X81800000Y-79950000D03*
D16*
X81800000Y-85850000D03*
D15*
X84340000Y-90930000D03*
D14*
X86300000Y-85850000D03*
X86880000Y-85850000D03*
D13*
X87300000Y-85850000D03*
%TD*%
%TO.C,SW6*%
X95300000Y-104850000D03*
D14*
X95720000Y-104850000D03*
D15*
X95800000Y-101150000D03*
D14*
X96300000Y-104850000D03*
D15*
X96990000Y-107390000D03*
X100800000Y-98950000D03*
D16*
X100800000Y-104850000D03*
D15*
X103340000Y-109930000D03*
D14*
X105300000Y-104850000D03*
X105880000Y-104850000D03*
D13*
X106300000Y-104850000D03*
%TD*%
%TO.C,SW9*%
X95300000Y-123850000D03*
D14*
X95720000Y-123850000D03*
D15*
X95800000Y-120150000D03*
D14*
X96300000Y-123850000D03*
D15*
X96990000Y-126390000D03*
X100800000Y-117950000D03*
D16*
X100800000Y-123850000D03*
D15*
X103340000Y-128930000D03*
D14*
X105300000Y-123850000D03*
X105880000Y-123850000D03*
D13*
X106300000Y-123850000D03*
%TD*%
%LPD*%
M02*
