%TF.GenerationSoftware,KiCad,Pcbnew,8.0.8*%
%TF.CreationDate,2025-02-13T21:53:56+01:00*%
%TF.ProjectId,macro33,6d616372-6f33-4332-9e6b-696361645f70,2*%
%TF.SameCoordinates,Original*%
%TF.FileFunction,Paste,Top*%
%TF.FilePolarity,Positive*%
%FSLAX46Y46*%
G04 Gerber Fmt 4.6, Leading zero omitted, Abs format (unit mm)*
G04 Created by KiCad (PCBNEW 8.0.8) date 2025-02-13 21:53:56*
%MOMM*%
%LPD*%
G01*
G04 APERTURE LIST*
G04 Aperture macros list*
%AMRoundRect*
0 Rectangle with rounded corners*
0 $1 Rounding radius*
0 $2 $3 $4 $5 $6 $7 $8 $9 X,Y pos of 4 corners*
0 Add a 4 corners polygon primitive as box body*
4,1,4,$2,$3,$4,$5,$6,$7,$8,$9,$2,$3,0*
0 Add four circle primitives for the rounded corners*
1,1,$1+$1,$2,$3*
1,1,$1+$1,$4,$5*
1,1,$1+$1,$6,$7*
1,1,$1+$1,$8,$9*
0 Add four rect primitives between the rounded corners*
20,1,$1+$1,$2,$3,$4,$5,0*
20,1,$1+$1,$4,$5,$6,$7,0*
20,1,$1+$1,$6,$7,$8,$9,0*
20,1,$1+$1,$8,$9,$2,$3,0*%
G04 Aperture macros list end*
%ADD10C,0.000000*%
%ADD11RoundRect,0.140000X-0.170000X0.140000X-0.170000X-0.140000X0.170000X-0.140000X0.170000X0.140000X0*%
%ADD12RoundRect,0.250000X-0.262500X-0.450000X0.262500X-0.450000X0.262500X0.450000X-0.262500X0.450000X0*%
%ADD13RoundRect,0.375000X0.625000X0.375000X-0.625000X0.375000X-0.625000X-0.375000X0.625000X-0.375000X0*%
%ADD14RoundRect,0.500000X0.500000X1.400000X-0.500000X1.400000X-0.500000X-1.400000X0.500000X-1.400000X0*%
%ADD15RoundRect,0.250000X0.450000X-0.262500X0.450000X0.262500X-0.450000X0.262500X-0.450000X-0.262500X0*%
%ADD16RoundRect,0.135000X0.135000X0.185000X-0.135000X0.185000X-0.135000X-0.185000X0.135000X-0.185000X0*%
%ADD17RoundRect,0.140000X0.140000X0.170000X-0.140000X0.170000X-0.140000X-0.170000X0.140000X-0.170000X0*%
%ADD18RoundRect,0.140000X-0.140000X-0.170000X0.140000X-0.170000X0.140000X0.170000X-0.140000X0.170000X0*%
%ADD19RoundRect,0.249999X0.395001X-0.395001X0.395001X0.395001X-0.395001X0.395001X-0.395001X-0.395001X0*%
%ADD20RoundRect,0.050000X0.050000X-0.387500X0.050000X0.387500X-0.050000X0.387500X-0.050000X-0.387500X0*%
%ADD21RoundRect,0.050000X0.387500X-0.050000X0.387500X0.050000X-0.387500X0.050000X-0.387500X-0.050000X0*%
%ADD22RoundRect,0.140000X0.170000X-0.140000X0.170000X0.140000X-0.170000X0.140000X-0.170000X-0.140000X0*%
%ADD23R,0.300000X1.400000*%
%ADD24RoundRect,0.135000X0.185000X-0.135000X0.185000X0.135000X-0.185000X0.135000X-0.185000X-0.135000X0*%
%ADD25RoundRect,0.315500X-0.506000X-0.315500X0.506000X-0.315500X0.506000X0.315500X-0.506000X0.315500X0*%
%ADD26RoundRect,0.150000X-0.150000X0.650000X-0.150000X-0.650000X0.150000X-0.650000X0.150000X0.650000X0*%
%ADD27RoundRect,0.250000X-0.650000X0.325000X-0.650000X-0.325000X0.650000X-0.325000X0.650000X0.325000X0*%
%ADD28R,1.100000X1.200000*%
%ADD29RoundRect,0.250000X0.325000X0.650000X-0.325000X0.650000X-0.325000X-0.650000X0.325000X-0.650000X0*%
%ADD30R,0.300000X2.000000*%
%ADD31R,1.000000X0.500000*%
%ADD32R,0.500000X2.000000*%
%ADD33R,1.125000X0.500000*%
%ADD34C,0.750000*%
%ADD35R,0.500000X1.625000*%
G04 APERTURE END LIST*
D10*
%TO.C,USBC1*%
G36*
X79150000Y-72998500D02*
G01*
X78850500Y-72998500D01*
X78850500Y-71599000D01*
X79150000Y-71599000D01*
X79150000Y-72998500D01*
G37*
G36*
X79650500Y-72998500D02*
G01*
X79351000Y-72998500D01*
X79351000Y-71599000D01*
X79650500Y-71599000D01*
X79650500Y-72998500D01*
G37*
G36*
X80151000Y-72998500D02*
G01*
X79851000Y-72998500D01*
X79851000Y-71599000D01*
X80151000Y-71599000D01*
X80151000Y-72998500D01*
G37*
G36*
X80651500Y-72998500D02*
G01*
X80349000Y-72998500D01*
X80349000Y-71599000D01*
X80651500Y-71599000D01*
X80651500Y-72998500D01*
G37*
G36*
X81149000Y-72998500D02*
G01*
X80849500Y-72998500D01*
X80849500Y-71599000D01*
X81149000Y-71599000D01*
X81149000Y-72998500D01*
G37*
G36*
X81649500Y-72998500D02*
G01*
X81350000Y-72998500D01*
X81350000Y-71599000D01*
X81649500Y-71599000D01*
X81649500Y-72998500D01*
G37*
G36*
X82150000Y-72998500D02*
G01*
X81850000Y-72998500D01*
X81850000Y-71599000D01*
X82150000Y-71599000D01*
X82150000Y-72998500D01*
G37*
G36*
X82650500Y-72998500D02*
G01*
X82350500Y-72998500D01*
X82350500Y-71599000D01*
X82650500Y-71599000D01*
X82650500Y-72998500D01*
G37*
G36*
X83150500Y-72998500D02*
G01*
X82851000Y-72998500D01*
X82851000Y-71599000D01*
X83150500Y-71599000D01*
X83150500Y-72998500D01*
G37*
G36*
X83651000Y-72998500D02*
G01*
X83351500Y-72998500D01*
X83351500Y-71599000D01*
X83651000Y-71599000D01*
X83651000Y-72998500D01*
G37*
G36*
X84151500Y-72998500D02*
G01*
X83849000Y-72998500D01*
X83849000Y-71599000D01*
X84151500Y-71599000D01*
X84151500Y-72998500D01*
G37*
G36*
X84649000Y-72998500D02*
G01*
X84349500Y-72998500D01*
X84349500Y-71599000D01*
X84649000Y-71599000D01*
X84649000Y-72998500D01*
G37*
G36*
X78981500Y-70599500D02*
G01*
X79006500Y-70603500D01*
X79031000Y-70609000D01*
X79054500Y-70617000D01*
X79078000Y-70626500D01*
X79100000Y-70638000D01*
X79121500Y-70651500D01*
X79141500Y-70667000D01*
X79160000Y-70683500D01*
X79177500Y-70702000D01*
X79193000Y-70721500D01*
X79207000Y-70742500D01*
X79219000Y-70764500D01*
X79229000Y-70787500D01*
X79237500Y-70811500D01*
X79243500Y-70835500D01*
X79248000Y-70860500D01*
X79250000Y-70885500D01*
X79250000Y-70910500D01*
X79248000Y-70935500D01*
X79243500Y-70960500D01*
X79237500Y-70984500D01*
X79229000Y-71008500D01*
X79219000Y-71031500D01*
X79207000Y-71053500D01*
X79193000Y-71074500D01*
X79177500Y-71094000D01*
X79160000Y-71112500D01*
X79141500Y-71129000D01*
X79121500Y-71144500D01*
X79100000Y-71158000D01*
X79078000Y-71169500D01*
X79054500Y-71179000D01*
X79031000Y-71187000D01*
X79006500Y-71192500D01*
X78981500Y-71196500D01*
X78956500Y-71198000D01*
X78931500Y-71197500D01*
X78906500Y-71195000D01*
X78881500Y-71190000D01*
X78857500Y-71183500D01*
X78834000Y-71174500D01*
X78811000Y-71164000D01*
X78789500Y-71151500D01*
X78769000Y-71137000D01*
X78749500Y-71121000D01*
X78731500Y-71103500D01*
X78715000Y-71084500D01*
X78700500Y-71064000D01*
X78687500Y-71042500D01*
X78676000Y-71020000D01*
X78667000Y-70996500D01*
X78659500Y-70972500D01*
X78654500Y-70948000D01*
X78651000Y-70923000D01*
X78650000Y-70898000D01*
X78651000Y-70873000D01*
X78654500Y-70848000D01*
X78659500Y-70823500D01*
X78667000Y-70799500D01*
X78676000Y-70776000D01*
X78687500Y-70753500D01*
X78700500Y-70732000D01*
X78715000Y-70711500D01*
X78731500Y-70692500D01*
X78749500Y-70675000D01*
X78769000Y-70659000D01*
X78789500Y-70644500D01*
X78811000Y-70632000D01*
X78834000Y-70621500D01*
X78857500Y-70612500D01*
X78881500Y-70606000D01*
X78906500Y-70601000D01*
X78931500Y-70598500D01*
X78956500Y-70598000D01*
X78981500Y-70599500D01*
G37*
G36*
X79381500Y-69899500D02*
G01*
X79406500Y-69903500D01*
X79431000Y-69909000D01*
X79455000Y-69917000D01*
X79478000Y-69926500D01*
X79500000Y-69938000D01*
X79521500Y-69951500D01*
X79541500Y-69967000D01*
X79560000Y-69983500D01*
X79577500Y-70002000D01*
X79593000Y-70021500D01*
X79607000Y-70042500D01*
X79619000Y-70064500D01*
X79629000Y-70087500D01*
X79637500Y-70111500D01*
X79643500Y-70135500D01*
X79648000Y-70160500D01*
X79650000Y-70185500D01*
X79650000Y-70210500D01*
X79648000Y-70235500D01*
X79643500Y-70260500D01*
X79637500Y-70284500D01*
X79629000Y-70308500D01*
X79619000Y-70331500D01*
X79607000Y-70353500D01*
X79593000Y-70374500D01*
X79577500Y-70394000D01*
X79560000Y-70412500D01*
X79541500Y-70429000D01*
X79521500Y-70444500D01*
X79500000Y-70458000D01*
X79478000Y-70469500D01*
X79455000Y-70479000D01*
X79431000Y-70487000D01*
X79406500Y-70492500D01*
X79381500Y-70496500D01*
X79356500Y-70498000D01*
X79331500Y-70497500D01*
X79306500Y-70495000D01*
X79281500Y-70490000D01*
X79257500Y-70483500D01*
X79234000Y-70474500D01*
X79211000Y-70464000D01*
X79189500Y-70451500D01*
X79169000Y-70437000D01*
X79149500Y-70421000D01*
X79131500Y-70403500D01*
X79115000Y-70384500D01*
X79100500Y-70364000D01*
X79087500Y-70342500D01*
X79076000Y-70320000D01*
X79067000Y-70296500D01*
X79059500Y-70272500D01*
X79054500Y-70248000D01*
X79051000Y-70223000D01*
X79050000Y-70198000D01*
X79051000Y-70173000D01*
X79054500Y-70148000D01*
X79059500Y-70123500D01*
X79067000Y-70099500D01*
X79076000Y-70076000D01*
X79087500Y-70053500D01*
X79100500Y-70032000D01*
X79115000Y-70011500D01*
X79131500Y-69992500D01*
X79149500Y-69975000D01*
X79169000Y-69959000D01*
X79189500Y-69944500D01*
X79211000Y-69932000D01*
X79234000Y-69921500D01*
X79257500Y-69912500D01*
X79281500Y-69906000D01*
X79306500Y-69901000D01*
X79331500Y-69898500D01*
X79356500Y-69898000D01*
X79381500Y-69899500D01*
G37*
G36*
X80181500Y-69899500D02*
G01*
X80206500Y-69903500D01*
X80230500Y-69909000D01*
X80254500Y-69917000D01*
X80278000Y-69926500D01*
X80300000Y-69938000D01*
X80321500Y-69951500D01*
X80341500Y-69967000D01*
X80360000Y-69983500D01*
X80377000Y-70002000D01*
X80393000Y-70021500D01*
X80406500Y-70042500D01*
X80419000Y-70064500D01*
X80429000Y-70087500D01*
X80437500Y-70111500D01*
X80443500Y-70135500D01*
X80447500Y-70160500D01*
X80450000Y-70185500D01*
X80450000Y-70210500D01*
X80447500Y-70235500D01*
X80443500Y-70260500D01*
X80437500Y-70284500D01*
X80429000Y-70308500D01*
X80419000Y-70331500D01*
X80406500Y-70353500D01*
X80393000Y-70374500D01*
X80377000Y-70394000D01*
X80360000Y-70412500D01*
X80341500Y-70429000D01*
X80321500Y-70444500D01*
X80300000Y-70458000D01*
X80278000Y-70469500D01*
X80254500Y-70479000D01*
X80230500Y-70487000D01*
X80206500Y-70492500D01*
X80181500Y-70496500D01*
X80156500Y-70498000D01*
X80131000Y-70497500D01*
X80106000Y-70495000D01*
X80081500Y-70490000D01*
X80057500Y-70483500D01*
X80034000Y-70474500D01*
X80011000Y-70464000D01*
X79989500Y-70451500D01*
X79968500Y-70437000D01*
X79949500Y-70421000D01*
X79931500Y-70403500D01*
X79915000Y-70384500D01*
X79900000Y-70364000D01*
X79887000Y-70342500D01*
X79876000Y-70320000D01*
X79866500Y-70296500D01*
X79859500Y-70272500D01*
X79854000Y-70248000D01*
X79851000Y-70223000D01*
X79850000Y-70198000D01*
X79851000Y-70173000D01*
X79854000Y-70148000D01*
X79859500Y-70123500D01*
X79866500Y-70099500D01*
X79876000Y-70076000D01*
X79887000Y-70053500D01*
X79900000Y-70032000D01*
X79915000Y-70011500D01*
X79931500Y-69992500D01*
X79949500Y-69975000D01*
X79968500Y-69959000D01*
X79989500Y-69944500D01*
X80011000Y-69932000D01*
X80034000Y-69921500D01*
X80057500Y-69912500D01*
X80081500Y-69906000D01*
X80106000Y-69901000D01*
X80131000Y-69898500D01*
X80156500Y-69898000D01*
X80181500Y-69899500D01*
G37*
G36*
X80581500Y-70599500D02*
G01*
X80606500Y-70603500D01*
X80631000Y-70609000D01*
X80654500Y-70617000D01*
X80678000Y-70626500D01*
X80700000Y-70638000D01*
X80721500Y-70651500D01*
X80741500Y-70667000D01*
X80760000Y-70683500D01*
X80777000Y-70702000D01*
X80793000Y-70721500D01*
X80806500Y-70742500D01*
X80819000Y-70764500D01*
X80829000Y-70787500D01*
X80837500Y-70811500D01*
X80843500Y-70835500D01*
X80847500Y-70860500D01*
X80850000Y-70885500D01*
X80850000Y-70910500D01*
X80847500Y-70935500D01*
X80843500Y-70960500D01*
X80837500Y-70984500D01*
X80829000Y-71008500D01*
X80819000Y-71031500D01*
X80806500Y-71053500D01*
X80793000Y-71074500D01*
X80777000Y-71094000D01*
X80760000Y-71112500D01*
X80741500Y-71129000D01*
X80721500Y-71144500D01*
X80700000Y-71158000D01*
X80678000Y-71169500D01*
X80654500Y-71179000D01*
X80631000Y-71187000D01*
X80606500Y-71192500D01*
X80581500Y-71196500D01*
X80556500Y-71198000D01*
X80531500Y-71197500D01*
X80506500Y-71195000D01*
X80481500Y-71190000D01*
X80457500Y-71183500D01*
X80434000Y-71174500D01*
X80411000Y-71164000D01*
X80389500Y-71151500D01*
X80368500Y-71137000D01*
X80349500Y-71121000D01*
X80331500Y-71103500D01*
X80315000Y-71084500D01*
X80300000Y-71064000D01*
X80287000Y-71042500D01*
X80276000Y-71020000D01*
X80267000Y-70996500D01*
X80259500Y-70972500D01*
X80254500Y-70948000D01*
X80251000Y-70923000D01*
X80250000Y-70898000D01*
X80251000Y-70873000D01*
X80254500Y-70848000D01*
X80259500Y-70823500D01*
X80267000Y-70799500D01*
X80276000Y-70776000D01*
X80287000Y-70753500D01*
X80300000Y-70732000D01*
X80315000Y-70711500D01*
X80331500Y-70692500D01*
X80349500Y-70675000D01*
X80368500Y-70659000D01*
X80389500Y-70644500D01*
X80411000Y-70632000D01*
X80434000Y-70621500D01*
X80457500Y-70612500D01*
X80481500Y-70606000D01*
X80506500Y-70601000D01*
X80531500Y-70598500D01*
X80556500Y-70598000D01*
X80581500Y-70599500D01*
G37*
G36*
X80981500Y-69899500D02*
G01*
X81006500Y-69903500D01*
X81031000Y-69909000D01*
X81054500Y-69917000D01*
X81078000Y-69926500D01*
X81100000Y-69938000D01*
X81121500Y-69951500D01*
X81141500Y-69967000D01*
X81160000Y-69983500D01*
X81177500Y-70002000D01*
X81193000Y-70021500D01*
X81207000Y-70042500D01*
X81219000Y-70064500D01*
X81229000Y-70087500D01*
X81237500Y-70111500D01*
X81243500Y-70135500D01*
X81248000Y-70160500D01*
X81250000Y-70185500D01*
X81250000Y-70210500D01*
X81248000Y-70235500D01*
X81243500Y-70260500D01*
X81237500Y-70284500D01*
X81229000Y-70308500D01*
X81219000Y-70331500D01*
X81207000Y-70353500D01*
X81193000Y-70374500D01*
X81177500Y-70394000D01*
X81160000Y-70412500D01*
X81141500Y-70429000D01*
X81121500Y-70444500D01*
X81100000Y-70458000D01*
X81078000Y-70469500D01*
X81054500Y-70479000D01*
X81031000Y-70487000D01*
X81006500Y-70492500D01*
X80981500Y-70496500D01*
X80956500Y-70498000D01*
X80931500Y-70497500D01*
X80906500Y-70495000D01*
X80881500Y-70490000D01*
X80857500Y-70483500D01*
X80834000Y-70474500D01*
X80811000Y-70464000D01*
X80789500Y-70451500D01*
X80769000Y-70437000D01*
X80749500Y-70421000D01*
X80731500Y-70403500D01*
X80715000Y-70384500D01*
X80700500Y-70364000D01*
X80687500Y-70342500D01*
X80676000Y-70320000D01*
X80667000Y-70296500D01*
X80659500Y-70272500D01*
X80654500Y-70248000D01*
X80651000Y-70223000D01*
X80650000Y-70198000D01*
X80651000Y-70173000D01*
X80654500Y-70148000D01*
X80659500Y-70123500D01*
X80667000Y-70099500D01*
X80676000Y-70076000D01*
X80687500Y-70053500D01*
X80700500Y-70032000D01*
X80715000Y-70011500D01*
X80731500Y-69992500D01*
X80749500Y-69975000D01*
X80769000Y-69959000D01*
X80789500Y-69944500D01*
X80811000Y-69932000D01*
X80834000Y-69921500D01*
X80857500Y-69912500D01*
X80881500Y-69906000D01*
X80906500Y-69901000D01*
X80931500Y-69898500D01*
X80956500Y-69898000D01*
X80981500Y-69899500D01*
G37*
G36*
X81381500Y-70599500D02*
G01*
X81406500Y-70603500D01*
X81431000Y-70609000D01*
X81455000Y-70617000D01*
X81478000Y-70626500D01*
X81500000Y-70638000D01*
X81521500Y-70651500D01*
X81541500Y-70667000D01*
X81560000Y-70683500D01*
X81577500Y-70702000D01*
X81593000Y-70721500D01*
X81607000Y-70742500D01*
X81619000Y-70764500D01*
X81629000Y-70787500D01*
X81637500Y-70811500D01*
X81643500Y-70835500D01*
X81648000Y-70860500D01*
X81650000Y-70885500D01*
X81650000Y-70910500D01*
X81648000Y-70935500D01*
X81643500Y-70960500D01*
X81637500Y-70984500D01*
X81629000Y-71008500D01*
X81619000Y-71031500D01*
X81607000Y-71053500D01*
X81593000Y-71074500D01*
X81577500Y-71094000D01*
X81560000Y-71112500D01*
X81541500Y-71129000D01*
X81521500Y-71144500D01*
X81500000Y-71158000D01*
X81478000Y-71169500D01*
X81455000Y-71179000D01*
X81431000Y-71187000D01*
X81406500Y-71192500D01*
X81381500Y-71196500D01*
X81356500Y-71198000D01*
X81331500Y-71197500D01*
X81306500Y-71195000D01*
X81281500Y-71190000D01*
X81257500Y-71183500D01*
X81234000Y-71174500D01*
X81211000Y-71164000D01*
X81189500Y-71151500D01*
X81169000Y-71137000D01*
X81149500Y-71121000D01*
X81131500Y-71103500D01*
X81115000Y-71084500D01*
X81100500Y-71064000D01*
X81087500Y-71042500D01*
X81076000Y-71020000D01*
X81067000Y-70996500D01*
X81059500Y-70972500D01*
X81054500Y-70948000D01*
X81051000Y-70923000D01*
X81050000Y-70898000D01*
X81051000Y-70873000D01*
X81054500Y-70848000D01*
X81059500Y-70823500D01*
X81067000Y-70799500D01*
X81076000Y-70776000D01*
X81087500Y-70753500D01*
X81100500Y-70732000D01*
X81115000Y-70711500D01*
X81131500Y-70692500D01*
X81149500Y-70675000D01*
X81169000Y-70659000D01*
X81189500Y-70644500D01*
X81211000Y-70632000D01*
X81234000Y-70621500D01*
X81257500Y-70612500D01*
X81281500Y-70606000D01*
X81306500Y-70601000D01*
X81331500Y-70598500D01*
X81356500Y-70598000D01*
X81381500Y-70599500D01*
G37*
G36*
X82181500Y-70599500D02*
G01*
X82206500Y-70603500D01*
X82230500Y-70609000D01*
X82254500Y-70617000D01*
X82278000Y-70626500D01*
X82300000Y-70638000D01*
X82321500Y-70651500D01*
X82341500Y-70667000D01*
X82360000Y-70683500D01*
X82377000Y-70702000D01*
X82392500Y-70721500D01*
X82406500Y-70742500D01*
X82419000Y-70764500D01*
X82429000Y-70787500D01*
X82437000Y-70811500D01*
X82443500Y-70835500D01*
X82447500Y-70860500D01*
X82450000Y-70885500D01*
X82450000Y-70910500D01*
X82447500Y-70935500D01*
X82443500Y-70960500D01*
X82437000Y-70984500D01*
X82429000Y-71008500D01*
X82419000Y-71031500D01*
X82406500Y-71053500D01*
X82392500Y-71074500D01*
X82377000Y-71094000D01*
X82360000Y-71112500D01*
X82341500Y-71129000D01*
X82321500Y-71144500D01*
X82300000Y-71158000D01*
X82278000Y-71169500D01*
X82254500Y-71179000D01*
X82230500Y-71187000D01*
X82206500Y-71192500D01*
X82181500Y-71196500D01*
X82156500Y-71198000D01*
X82131000Y-71197500D01*
X82106000Y-71195000D01*
X82081500Y-71190000D01*
X82057500Y-71183500D01*
X82034000Y-71174500D01*
X82011000Y-71164000D01*
X81989500Y-71151500D01*
X81968500Y-71137000D01*
X81949500Y-71121000D01*
X81931500Y-71103500D01*
X81915000Y-71084500D01*
X81900000Y-71064000D01*
X81887000Y-71042500D01*
X81876000Y-71020000D01*
X81866500Y-70996500D01*
X81859500Y-70972500D01*
X81854000Y-70948000D01*
X81851000Y-70923000D01*
X81850000Y-70898000D01*
X81851000Y-70873000D01*
X81854000Y-70848000D01*
X81859500Y-70823500D01*
X81866500Y-70799500D01*
X81876000Y-70776000D01*
X81887000Y-70753500D01*
X81900000Y-70732000D01*
X81915000Y-70711500D01*
X81931500Y-70692500D01*
X81949500Y-70675000D01*
X81968500Y-70659000D01*
X81989500Y-70644500D01*
X82011000Y-70632000D01*
X82034000Y-70621500D01*
X82057500Y-70612500D01*
X82081500Y-70606000D01*
X82106000Y-70601000D01*
X82131000Y-70598500D01*
X82156500Y-70598000D01*
X82181500Y-70599500D01*
G37*
G36*
X82581500Y-69899500D02*
G01*
X82606500Y-69903500D01*
X82631000Y-69909000D01*
X82654500Y-69917000D01*
X82678000Y-69926500D01*
X82700000Y-69938000D01*
X82721500Y-69951500D01*
X82741500Y-69967000D01*
X82760000Y-69983500D01*
X82777000Y-70002000D01*
X82793000Y-70021500D01*
X82806500Y-70042500D01*
X82819000Y-70064500D01*
X82829000Y-70087500D01*
X82837500Y-70111500D01*
X82843500Y-70135500D01*
X82847500Y-70160500D01*
X82850000Y-70185500D01*
X82850000Y-70210500D01*
X82847500Y-70235500D01*
X82843500Y-70260500D01*
X82837500Y-70284500D01*
X82829000Y-70308500D01*
X82819000Y-70331500D01*
X82806500Y-70353500D01*
X82793000Y-70374500D01*
X82777000Y-70394000D01*
X82760000Y-70412500D01*
X82741500Y-70429000D01*
X82721500Y-70444500D01*
X82700000Y-70458000D01*
X82678000Y-70469500D01*
X82654500Y-70479000D01*
X82631000Y-70487000D01*
X82606500Y-70492500D01*
X82581500Y-70496500D01*
X82556500Y-70498000D01*
X82531500Y-70497500D01*
X82506500Y-70495000D01*
X82481500Y-70490000D01*
X82457500Y-70483500D01*
X82434000Y-70474500D01*
X82411000Y-70464000D01*
X82389500Y-70451500D01*
X82368500Y-70437000D01*
X82349500Y-70421000D01*
X82331500Y-70403500D01*
X82315000Y-70384500D01*
X82300000Y-70364000D01*
X82287000Y-70342500D01*
X82276000Y-70320000D01*
X82267000Y-70296500D01*
X82259500Y-70272500D01*
X82254500Y-70248000D01*
X82251000Y-70223000D01*
X82250000Y-70198000D01*
X82251000Y-70173000D01*
X82254500Y-70148000D01*
X82259500Y-70123500D01*
X82267000Y-70099500D01*
X82276000Y-70076000D01*
X82287000Y-70053500D01*
X82300000Y-70032000D01*
X82315000Y-70011500D01*
X82331500Y-69992500D01*
X82349500Y-69975000D01*
X82368500Y-69959000D01*
X82389500Y-69944500D01*
X82411000Y-69932000D01*
X82434000Y-69921500D01*
X82457500Y-69912500D01*
X82481500Y-69906000D01*
X82506500Y-69901000D01*
X82531500Y-69898500D01*
X82556500Y-69898000D01*
X82581500Y-69899500D01*
G37*
G36*
X82981500Y-70599500D02*
G01*
X83006500Y-70603500D01*
X83031000Y-70609000D01*
X83054500Y-70617000D01*
X83078000Y-70626500D01*
X83100000Y-70638000D01*
X83121500Y-70651500D01*
X83141500Y-70667000D01*
X83160000Y-70683500D01*
X83177500Y-70702000D01*
X83193000Y-70721500D01*
X83207000Y-70742500D01*
X83219000Y-70764500D01*
X83229000Y-70787500D01*
X83237500Y-70811500D01*
X83243500Y-70835500D01*
X83248000Y-70860500D01*
X83250000Y-70885500D01*
X83250000Y-70910500D01*
X83248000Y-70935500D01*
X83243500Y-70960500D01*
X83237500Y-70984500D01*
X83229000Y-71008500D01*
X83219000Y-71031500D01*
X83207000Y-71053500D01*
X83193000Y-71074500D01*
X83177500Y-71094000D01*
X83160000Y-71112500D01*
X83141500Y-71129000D01*
X83121500Y-71144500D01*
X83100000Y-71158000D01*
X83078000Y-71169500D01*
X83054500Y-71179000D01*
X83031000Y-71187000D01*
X83006500Y-71192500D01*
X82981500Y-71196500D01*
X82956500Y-71198000D01*
X82931500Y-71197500D01*
X82906500Y-71195000D01*
X82881500Y-71190000D01*
X82857500Y-71183500D01*
X82834000Y-71174500D01*
X82811000Y-71164000D01*
X82789500Y-71151500D01*
X82769000Y-71137000D01*
X82749500Y-71121000D01*
X82731500Y-71103500D01*
X82715000Y-71084500D01*
X82700500Y-71064000D01*
X82687500Y-71042500D01*
X82676000Y-71020000D01*
X82667000Y-70996500D01*
X82659500Y-70972500D01*
X82654500Y-70948000D01*
X82651000Y-70923000D01*
X82650000Y-70898000D01*
X82651000Y-70873000D01*
X82654500Y-70848000D01*
X82659500Y-70823500D01*
X82667000Y-70799500D01*
X82676000Y-70776000D01*
X82687500Y-70753500D01*
X82700500Y-70732000D01*
X82715000Y-70711500D01*
X82731500Y-70692500D01*
X82749500Y-70675000D01*
X82769000Y-70659000D01*
X82789500Y-70644500D01*
X82811000Y-70632000D01*
X82834000Y-70621500D01*
X82857500Y-70612500D01*
X82881500Y-70606000D01*
X82906500Y-70601000D01*
X82931500Y-70598500D01*
X82956500Y-70598000D01*
X82981500Y-70599500D01*
G37*
G36*
X83381500Y-69899500D02*
G01*
X83406500Y-69903500D01*
X83431000Y-69909000D01*
X83455000Y-69917000D01*
X83478000Y-69926500D01*
X83500000Y-69938000D01*
X83521500Y-69951500D01*
X83541500Y-69967000D01*
X83560000Y-69983500D01*
X83577500Y-70002000D01*
X83593000Y-70021500D01*
X83607000Y-70042500D01*
X83619000Y-70064500D01*
X83629000Y-70087500D01*
X83637500Y-70111500D01*
X83643500Y-70135500D01*
X83648000Y-70160500D01*
X83650000Y-70185500D01*
X83650000Y-70210500D01*
X83648000Y-70235500D01*
X83643500Y-70260500D01*
X83637500Y-70284500D01*
X83629000Y-70308500D01*
X83619000Y-70331500D01*
X83607000Y-70353500D01*
X83593000Y-70374500D01*
X83577500Y-70394000D01*
X83560000Y-70412500D01*
X83541500Y-70429000D01*
X83521500Y-70444500D01*
X83500000Y-70458000D01*
X83478000Y-70469500D01*
X83455000Y-70479000D01*
X83431000Y-70487000D01*
X83406500Y-70492500D01*
X83381500Y-70496500D01*
X83356500Y-70498000D01*
X83331500Y-70497500D01*
X83306500Y-70495000D01*
X83281500Y-70490000D01*
X83257500Y-70483500D01*
X83234000Y-70474500D01*
X83211000Y-70464000D01*
X83189500Y-70451500D01*
X83169000Y-70437000D01*
X83149500Y-70421000D01*
X83131500Y-70403500D01*
X83115000Y-70384500D01*
X83100500Y-70364000D01*
X83087500Y-70342500D01*
X83076000Y-70320000D01*
X83067000Y-70296500D01*
X83059500Y-70272500D01*
X83054500Y-70248000D01*
X83051000Y-70223000D01*
X83050000Y-70198000D01*
X83051000Y-70173000D01*
X83054500Y-70148000D01*
X83059500Y-70123500D01*
X83067000Y-70099500D01*
X83076000Y-70076000D01*
X83087500Y-70053500D01*
X83100500Y-70032000D01*
X83115000Y-70011500D01*
X83131500Y-69992500D01*
X83149500Y-69975000D01*
X83169000Y-69959000D01*
X83189500Y-69944500D01*
X83211000Y-69932000D01*
X83234000Y-69921500D01*
X83257500Y-69912500D01*
X83281500Y-69906000D01*
X83306500Y-69901000D01*
X83331500Y-69898500D01*
X83356500Y-69898000D01*
X83381500Y-69899500D01*
G37*
G36*
X84181500Y-69899500D02*
G01*
X84206500Y-69903500D01*
X84230500Y-69909000D01*
X84254500Y-69917000D01*
X84278000Y-69926500D01*
X84300000Y-69938000D01*
X84321500Y-69951500D01*
X84341500Y-69967000D01*
X84360000Y-69983500D01*
X84377000Y-70002000D01*
X84392500Y-70021500D01*
X84406500Y-70042500D01*
X84419000Y-70064500D01*
X84429000Y-70087500D01*
X84437000Y-70111500D01*
X84443500Y-70135500D01*
X84447500Y-70160500D01*
X84450000Y-70185500D01*
X84450000Y-70210500D01*
X84447500Y-70235500D01*
X84443500Y-70260500D01*
X84437000Y-70284500D01*
X84429000Y-70308500D01*
X84419000Y-70331500D01*
X84406500Y-70353500D01*
X84392500Y-70374500D01*
X84377000Y-70394000D01*
X84360000Y-70412500D01*
X84341500Y-70429000D01*
X84321500Y-70444500D01*
X84300000Y-70458000D01*
X84278000Y-70469500D01*
X84254500Y-70479000D01*
X84230500Y-70487000D01*
X84206500Y-70492500D01*
X84181500Y-70496500D01*
X84156500Y-70498000D01*
X84131000Y-70497500D01*
X84106000Y-70495000D01*
X84081500Y-70490000D01*
X84057500Y-70483500D01*
X84034000Y-70474500D01*
X84011000Y-70464000D01*
X83989500Y-70451500D01*
X83968500Y-70437000D01*
X83949500Y-70421000D01*
X83931500Y-70403500D01*
X83915000Y-70384500D01*
X83900000Y-70364000D01*
X83887000Y-70342500D01*
X83876000Y-70320000D01*
X83866500Y-70296500D01*
X83859500Y-70272500D01*
X83854000Y-70248000D01*
X83851000Y-70223000D01*
X83850000Y-70198000D01*
X83851000Y-70173000D01*
X83854000Y-70148000D01*
X83859500Y-70123500D01*
X83866500Y-70099500D01*
X83876000Y-70076000D01*
X83887000Y-70053500D01*
X83900000Y-70032000D01*
X83915000Y-70011500D01*
X83931500Y-69992500D01*
X83949500Y-69975000D01*
X83968500Y-69959000D01*
X83989500Y-69944500D01*
X84011000Y-69932000D01*
X84034000Y-69921500D01*
X84057500Y-69912500D01*
X84081500Y-69906000D01*
X84106000Y-69901000D01*
X84131000Y-69898500D01*
X84156500Y-69898000D01*
X84181500Y-69899500D01*
G37*
G36*
X84581500Y-70599500D02*
G01*
X84606500Y-70603500D01*
X84631000Y-70609000D01*
X84654500Y-70617000D01*
X84678000Y-70626500D01*
X84700000Y-70638000D01*
X84721500Y-70651500D01*
X84741500Y-70667000D01*
X84760000Y-70683500D01*
X84777000Y-70702000D01*
X84793000Y-70721500D01*
X84806500Y-70742500D01*
X84819000Y-70764500D01*
X84829000Y-70787500D01*
X84837500Y-70811500D01*
X84843500Y-70835500D01*
X84847500Y-70860500D01*
X84850000Y-70885500D01*
X84850000Y-70910500D01*
X84847500Y-70935500D01*
X84843500Y-70960500D01*
X84837500Y-70984500D01*
X84829000Y-71008500D01*
X84819000Y-71031500D01*
X84806500Y-71053500D01*
X84793000Y-71074500D01*
X84777000Y-71094000D01*
X84760000Y-71112500D01*
X84741500Y-71129000D01*
X84721500Y-71144500D01*
X84700000Y-71158000D01*
X84678000Y-71169500D01*
X84654500Y-71179000D01*
X84631000Y-71187000D01*
X84606500Y-71192500D01*
X84581500Y-71196500D01*
X84556500Y-71198000D01*
X84531000Y-71197500D01*
X84506500Y-71195000D01*
X84481500Y-71190000D01*
X84457500Y-71183500D01*
X84434000Y-71174500D01*
X84411000Y-71164000D01*
X84389500Y-71151500D01*
X84368500Y-71137000D01*
X84349500Y-71121000D01*
X84331500Y-71103500D01*
X84315000Y-71084500D01*
X84300000Y-71064000D01*
X84287000Y-71042500D01*
X84276000Y-71020000D01*
X84267000Y-70996500D01*
X84259500Y-70972500D01*
X84254500Y-70948000D01*
X84251000Y-70923000D01*
X84250000Y-70898000D01*
X84251000Y-70873000D01*
X84254500Y-70848000D01*
X84259500Y-70823500D01*
X84267000Y-70799500D01*
X84276000Y-70776000D01*
X84287000Y-70753500D01*
X84300000Y-70732000D01*
X84315000Y-70711500D01*
X84331500Y-70692500D01*
X84349500Y-70675000D01*
X84368500Y-70659000D01*
X84389500Y-70644500D01*
X84411000Y-70632000D01*
X84434000Y-70621500D01*
X84457500Y-70612500D01*
X84481500Y-70606000D01*
X84506500Y-70601000D01*
X84531000Y-70598500D01*
X84556500Y-70598000D01*
X84581500Y-70599500D01*
G37*
G36*
X77290000Y-65209500D02*
G01*
X77310000Y-65211500D01*
X77329500Y-65214500D01*
X77349000Y-65218000D01*
X77368500Y-65223000D01*
X77387500Y-65229000D01*
X77406000Y-65236000D01*
X77424500Y-65243500D01*
X77442500Y-65252000D01*
X77460000Y-65262000D01*
X77477000Y-65272000D01*
X77493500Y-65283500D01*
X77509500Y-65295500D01*
X77524500Y-65308500D01*
X77539500Y-65322000D01*
X77553500Y-65336000D01*
X77566500Y-65351000D01*
X77579000Y-65366500D01*
X77590500Y-65383000D01*
X77601500Y-65399500D01*
X77611500Y-65417000D01*
X77620500Y-65434500D01*
X77628500Y-65453000D01*
X77636000Y-65471500D01*
X77642500Y-65490500D01*
X77647500Y-65509500D01*
X77652000Y-65529000D01*
X77655500Y-65548500D01*
X77658000Y-65568500D01*
X77659500Y-65588000D01*
X77660000Y-65608000D01*
X77660000Y-66208000D01*
X77659500Y-66228000D01*
X77658000Y-66248000D01*
X77655500Y-66268000D01*
X77652000Y-66287500D01*
X77647500Y-66307000D01*
X77642500Y-66326000D01*
X77636000Y-66345000D01*
X77628500Y-66363500D01*
X77620500Y-66381500D01*
X77611500Y-66399500D01*
X77601500Y-66417000D01*
X77590500Y-66433500D01*
X77579000Y-66449500D01*
X77566500Y-66465500D01*
X77553500Y-66480000D01*
X77539500Y-66494500D01*
X77524500Y-66508000D01*
X77509500Y-66521000D01*
X77493500Y-66533000D01*
X77477000Y-66544000D01*
X77460000Y-66554500D01*
X77442500Y-66564000D01*
X77424500Y-66573000D01*
X77406000Y-66580500D01*
X77387500Y-66587500D01*
X77368500Y-66593000D01*
X77349000Y-66598000D01*
X77329500Y-66602000D01*
X77310000Y-66605000D01*
X77290000Y-66607000D01*
X77270000Y-66608000D01*
X77250000Y-66608000D01*
X77230000Y-66607000D01*
X77210500Y-66605000D01*
X77190500Y-66602000D01*
X77171000Y-66598000D01*
X77151500Y-66593000D01*
X77132500Y-66587500D01*
X77114000Y-66580500D01*
X77095500Y-66573000D01*
X77077500Y-66564000D01*
X77060000Y-66554500D01*
X77043000Y-66544000D01*
X77026500Y-66533000D01*
X77010500Y-66521000D01*
X76995500Y-66508000D01*
X76980500Y-66494500D01*
X76967000Y-66480000D01*
X76953500Y-66465500D01*
X76941000Y-66449500D01*
X76929500Y-66433500D01*
X76918500Y-66417000D01*
X76909000Y-66399500D01*
X76899500Y-66381500D01*
X76891500Y-66363500D01*
X76884000Y-66345000D01*
X76878000Y-66326000D01*
X76872500Y-66307000D01*
X76868000Y-66287500D01*
X76864500Y-66268000D01*
X76862000Y-66248000D01*
X76860500Y-66228000D01*
X76860000Y-66208000D01*
X76860000Y-65608000D01*
X76860500Y-65588000D01*
X76862000Y-65568500D01*
X76864500Y-65548500D01*
X76868000Y-65529000D01*
X76872500Y-65509500D01*
X76878000Y-65490500D01*
X76884000Y-65471500D01*
X76891500Y-65453000D01*
X76899500Y-65434500D01*
X76909000Y-65417000D01*
X76918500Y-65399500D01*
X76929500Y-65383000D01*
X76941000Y-65366500D01*
X76953500Y-65351000D01*
X76967000Y-65336000D01*
X76980500Y-65322000D01*
X76995500Y-65308500D01*
X77010500Y-65295500D01*
X77026500Y-65283500D01*
X77043000Y-65272000D01*
X77060000Y-65262000D01*
X77077500Y-65252000D01*
X77095500Y-65243500D01*
X77114000Y-65236000D01*
X77132500Y-65229000D01*
X77151500Y-65223000D01*
X77171000Y-65218000D01*
X77190500Y-65214500D01*
X77210500Y-65211500D01*
X77230000Y-65209500D01*
X77250000Y-65208500D01*
X77270000Y-65208500D01*
X77290000Y-65209500D01*
G37*
G36*
X77650000Y-69599000D02*
G01*
X77670000Y-69601000D01*
X77689500Y-69604000D01*
X77709000Y-69608000D01*
X77728500Y-69613000D01*
X77747500Y-69619000D01*
X77766500Y-69625500D01*
X77784500Y-69633500D01*
X77802500Y-69642000D01*
X77820000Y-69651500D01*
X77837000Y-69662000D01*
X77853500Y-69673500D01*
X77869500Y-69685500D01*
X77885000Y-69698000D01*
X77899500Y-69711500D01*
X77913500Y-69726000D01*
X77926500Y-69741000D01*
X77939000Y-69756500D01*
X77950500Y-69772500D01*
X77961500Y-69789500D01*
X77971500Y-69806500D01*
X77980500Y-69824500D01*
X77989000Y-69842500D01*
X77996000Y-69861500D01*
X78002500Y-69880000D01*
X78008000Y-69899500D01*
X78012500Y-69919000D01*
X78015500Y-69938500D01*
X78018000Y-69958000D01*
X78019500Y-69978000D01*
X78020000Y-69998000D01*
X78020000Y-70598000D01*
X78019500Y-70618000D01*
X78018000Y-70638000D01*
X78015500Y-70657500D01*
X78012500Y-70677500D01*
X78008000Y-70697000D01*
X78002500Y-70716000D01*
X77996000Y-70735000D01*
X77989000Y-70753500D01*
X77980500Y-70771500D01*
X77971500Y-70789500D01*
X77961500Y-70806500D01*
X77950500Y-70823500D01*
X77939000Y-70839500D01*
X77926500Y-70855000D01*
X77913500Y-70870000D01*
X77899500Y-70884500D01*
X77885000Y-70898000D01*
X77869500Y-70911000D01*
X77853500Y-70923000D01*
X77837000Y-70934000D01*
X77820000Y-70944500D01*
X77802500Y-70954000D01*
X77784500Y-70962500D01*
X77766500Y-70970500D01*
X77747500Y-70977000D01*
X77728500Y-70983000D01*
X77709000Y-70988000D01*
X77689500Y-70992000D01*
X77670000Y-70995000D01*
X77650000Y-70997000D01*
X77630000Y-70998000D01*
X77610000Y-70998000D01*
X77590500Y-70997000D01*
X77570500Y-70995000D01*
X77550500Y-70992000D01*
X77531000Y-70988000D01*
X77512000Y-70983000D01*
X77493000Y-70977000D01*
X77474000Y-70970500D01*
X77455500Y-70962500D01*
X77437500Y-70954000D01*
X77420000Y-70944500D01*
X77403000Y-70934000D01*
X77386500Y-70923000D01*
X77371000Y-70911000D01*
X77355500Y-70898000D01*
X77341000Y-70884500D01*
X77327000Y-70870000D01*
X77314000Y-70855000D01*
X77301500Y-70839500D01*
X77289500Y-70823500D01*
X77279000Y-70806500D01*
X77269000Y-70789500D01*
X77260000Y-70771500D01*
X77251500Y-70753500D01*
X77244500Y-70735000D01*
X77238000Y-70716000D01*
X77232500Y-70697000D01*
X77228000Y-70677500D01*
X77224500Y-70657500D01*
X77222000Y-70638000D01*
X77220500Y-70618000D01*
X77220000Y-70598000D01*
X77220000Y-69998000D01*
X77220500Y-69978000D01*
X77222000Y-69958000D01*
X77224500Y-69938500D01*
X77228000Y-69919000D01*
X77232500Y-69899500D01*
X77238000Y-69880000D01*
X77244500Y-69861500D01*
X77251500Y-69842500D01*
X77260000Y-69824500D01*
X77269000Y-69806500D01*
X77279000Y-69789500D01*
X77289500Y-69772500D01*
X77301500Y-69756500D01*
X77314000Y-69741000D01*
X77327000Y-69726000D01*
X77341000Y-69711500D01*
X77355500Y-69698000D01*
X77371000Y-69685500D01*
X77386500Y-69673500D01*
X77403000Y-69662000D01*
X77420000Y-69651500D01*
X77437500Y-69642000D01*
X77455500Y-69633500D01*
X77474000Y-69625500D01*
X77493000Y-69619000D01*
X77512000Y-69613000D01*
X77531000Y-69608000D01*
X77550500Y-69604000D01*
X77570500Y-69601000D01*
X77590500Y-69599000D01*
X77610000Y-69598000D01*
X77630000Y-69598000D01*
X77650000Y-69599000D01*
G37*
G36*
X85910000Y-69599000D02*
G01*
X85930000Y-69601000D01*
X85949500Y-69604000D01*
X85969000Y-69608000D01*
X85988500Y-69613000D01*
X86007500Y-69619000D01*
X86026000Y-69625500D01*
X86044500Y-69633500D01*
X86062500Y-69642000D01*
X86080000Y-69651500D01*
X86097000Y-69662000D01*
X86113500Y-69673500D01*
X86129500Y-69685500D01*
X86144500Y-69698000D01*
X86159500Y-69711500D01*
X86173500Y-69726000D01*
X86186500Y-69741000D01*
X86199000Y-69756500D01*
X86210500Y-69772500D01*
X86221500Y-69789500D01*
X86231500Y-69806500D01*
X86240500Y-69824500D01*
X86248500Y-69842500D01*
X86256000Y-69861500D01*
X86262500Y-69880000D01*
X86267500Y-69899500D01*
X86272000Y-69919000D01*
X86275500Y-69938500D01*
X86278000Y-69958000D01*
X86279500Y-69978000D01*
X86280000Y-69998000D01*
X86280000Y-70598000D01*
X86279500Y-70618000D01*
X86278000Y-70638000D01*
X86275500Y-70657500D01*
X86272000Y-70677500D01*
X86267500Y-70697000D01*
X86262500Y-70716000D01*
X86256000Y-70735000D01*
X86248500Y-70753500D01*
X86240500Y-70771500D01*
X86231500Y-70789500D01*
X86221500Y-70806500D01*
X86210500Y-70823500D01*
X86199000Y-70839500D01*
X86186500Y-70855000D01*
X86173500Y-70870000D01*
X86159500Y-70884500D01*
X86144500Y-70898000D01*
X86129500Y-70911000D01*
X86113500Y-70923000D01*
X86097000Y-70934000D01*
X86080000Y-70944500D01*
X86062500Y-70954000D01*
X86044500Y-70962500D01*
X86026000Y-70970500D01*
X86007500Y-70977000D01*
X85988500Y-70983000D01*
X85969000Y-70988000D01*
X85949500Y-70992000D01*
X85930000Y-70995000D01*
X85910000Y-70997000D01*
X85890000Y-70998000D01*
X85870000Y-70998000D01*
X85850000Y-70997000D01*
X85830500Y-70995000D01*
X85810500Y-70992000D01*
X85791000Y-70988000D01*
X85771500Y-70983000D01*
X85752500Y-70977000D01*
X85734000Y-70970500D01*
X85715500Y-70962500D01*
X85697500Y-70954000D01*
X85680000Y-70944500D01*
X85663000Y-70934000D01*
X85646500Y-70923000D01*
X85630500Y-70911000D01*
X85615500Y-70898000D01*
X85600500Y-70884500D01*
X85587000Y-70870000D01*
X85573500Y-70855000D01*
X85561000Y-70839500D01*
X85549500Y-70823500D01*
X85538500Y-70806500D01*
X85529000Y-70789500D01*
X85519500Y-70771500D01*
X85511500Y-70753500D01*
X85504000Y-70735000D01*
X85498000Y-70716000D01*
X85492500Y-70697000D01*
X85488000Y-70677500D01*
X85484500Y-70657500D01*
X85482000Y-70638000D01*
X85480500Y-70618000D01*
X85480000Y-70598000D01*
X85480000Y-69998000D01*
X85480500Y-69978000D01*
X85482000Y-69958000D01*
X85484500Y-69938500D01*
X85488000Y-69919000D01*
X85492500Y-69899500D01*
X85498000Y-69880000D01*
X85504000Y-69861500D01*
X85511500Y-69842500D01*
X85519500Y-69824500D01*
X85529000Y-69806500D01*
X85538500Y-69789500D01*
X85549500Y-69772500D01*
X85561000Y-69756500D01*
X85573500Y-69741000D01*
X85587000Y-69726000D01*
X85600500Y-69711500D01*
X85615500Y-69698000D01*
X85630500Y-69685500D01*
X85646500Y-69673500D01*
X85663000Y-69662000D01*
X85680000Y-69651500D01*
X85697500Y-69642000D01*
X85715500Y-69633500D01*
X85734000Y-69625500D01*
X85752500Y-69619000D01*
X85771500Y-69613000D01*
X85791000Y-69608000D01*
X85810500Y-69604000D01*
X85830500Y-69601000D01*
X85850000Y-69599000D01*
X85870000Y-69598000D01*
X85890000Y-69598000D01*
X85910000Y-69599000D01*
G37*
G36*
X86270000Y-65209500D02*
G01*
X86289500Y-65211500D01*
X86309500Y-65214500D01*
X86329000Y-65218000D01*
X86348500Y-65223000D01*
X86367500Y-65229000D01*
X86386000Y-65236000D01*
X86404500Y-65243500D01*
X86422500Y-65252000D01*
X86440000Y-65262000D01*
X86457000Y-65272000D01*
X86473500Y-65283500D01*
X86489500Y-65295500D01*
X86504500Y-65308500D01*
X86519500Y-65322000D01*
X86533000Y-65336000D01*
X86546500Y-65351000D01*
X86559000Y-65366500D01*
X86570500Y-65383000D01*
X86581500Y-65399500D01*
X86591000Y-65417000D01*
X86600500Y-65434500D01*
X86608500Y-65453000D01*
X86616000Y-65471500D01*
X86622000Y-65490500D01*
X86627500Y-65509500D01*
X86632000Y-65529000D01*
X86635500Y-65548500D01*
X86638000Y-65568500D01*
X86639500Y-65588000D01*
X86640000Y-65608000D01*
X86640000Y-66208000D01*
X86639500Y-66228000D01*
X86638000Y-66248000D01*
X86635500Y-66268000D01*
X86632000Y-66287500D01*
X86627500Y-66307000D01*
X86622000Y-66326000D01*
X86616000Y-66345000D01*
X86608500Y-66363500D01*
X86600500Y-66381500D01*
X86591000Y-66399500D01*
X86581500Y-66417000D01*
X86570500Y-66433500D01*
X86559000Y-66449500D01*
X86546500Y-66465500D01*
X86533000Y-66480000D01*
X86519500Y-66494500D01*
X86504500Y-66508000D01*
X86489500Y-66521000D01*
X86473500Y-66533000D01*
X86457000Y-66544000D01*
X86440000Y-66554500D01*
X86422500Y-66564000D01*
X86404500Y-66573000D01*
X86386000Y-66580500D01*
X86367500Y-66587500D01*
X86348500Y-66593000D01*
X86329000Y-66598000D01*
X86309500Y-66602000D01*
X86289500Y-66605000D01*
X86270000Y-66607000D01*
X86250000Y-66608000D01*
X86230000Y-66608000D01*
X86210000Y-66607000D01*
X86190000Y-66605000D01*
X86170500Y-66602000D01*
X86151000Y-66598000D01*
X86131500Y-66593000D01*
X86112500Y-66587500D01*
X86094000Y-66580500D01*
X86075500Y-66573000D01*
X86057500Y-66564000D01*
X86040000Y-66554500D01*
X86023000Y-66544000D01*
X86006500Y-66533000D01*
X85990500Y-66521000D01*
X85975500Y-66508000D01*
X85960500Y-66494500D01*
X85946500Y-66480000D01*
X85933500Y-66465500D01*
X85921000Y-66449500D01*
X85909500Y-66433500D01*
X85898500Y-66417000D01*
X85888500Y-66399500D01*
X85879500Y-66381500D01*
X85871500Y-66363500D01*
X85864000Y-66345000D01*
X85857500Y-66326000D01*
X85852500Y-66307000D01*
X85848000Y-66287500D01*
X85844500Y-66268000D01*
X85842000Y-66248000D01*
X85840500Y-66228000D01*
X85840000Y-66208000D01*
X85840000Y-65608000D01*
X85840500Y-65588000D01*
X85842000Y-65568500D01*
X85844500Y-65548500D01*
X85848000Y-65529000D01*
X85852500Y-65509500D01*
X85857500Y-65490500D01*
X85864000Y-65471500D01*
X85871500Y-65453000D01*
X85879500Y-65434500D01*
X85888500Y-65417000D01*
X85898500Y-65399500D01*
X85909500Y-65383000D01*
X85921000Y-65366500D01*
X85933500Y-65351000D01*
X85946500Y-65336000D01*
X85960500Y-65322000D01*
X85975500Y-65308500D01*
X85990500Y-65295500D01*
X86006500Y-65283500D01*
X86023000Y-65272000D01*
X86040000Y-65262000D01*
X86057500Y-65252000D01*
X86075500Y-65243500D01*
X86094000Y-65236000D01*
X86112500Y-65229000D01*
X86131500Y-65223000D01*
X86151000Y-65218000D01*
X86170500Y-65214500D01*
X86190000Y-65211500D01*
X86210000Y-65209500D01*
X86230000Y-65208500D01*
X86250000Y-65208500D01*
X86270000Y-65209500D01*
G37*
%TD*%
D11*
%TO.C,C2*%
X106500000Y-67407500D03*
X106500000Y-68367500D03*
%TD*%
D12*
%TO.C,R2*%
X88337500Y-67750000D03*
X90162500Y-67750000D03*
%TD*%
D13*
%TO.C,U3*%
X74390000Y-71708000D03*
X74390000Y-69408000D03*
D14*
X68090000Y-69408000D03*
D13*
X74390000Y-67108000D03*
%TD*%
D15*
%TO.C,R1*%
X88750000Y-71412500D03*
X88750000Y-69587500D03*
%TD*%
D16*
%TO.C,R5*%
X86000000Y-74908000D03*
X84980000Y-74908000D03*
%TD*%
D17*
%TO.C,C13*%
X93347500Y-65470000D03*
X92387500Y-65470000D03*
%TD*%
D18*
%TO.C,C11*%
X99270000Y-65750000D03*
X100230000Y-65750000D03*
%TD*%
D17*
%TO.C,C4*%
X93347500Y-67387500D03*
X92387500Y-67387500D03*
%TD*%
D19*
%TO.C,U1*%
X97387500Y-71250000D03*
X98987500Y-71250000D03*
X97387500Y-69650000D03*
X98987500Y-69650000D03*
D20*
X95587500Y-73887500D03*
X95987500Y-73887500D03*
X96387500Y-73887500D03*
X96787500Y-73887500D03*
X97187500Y-73887500D03*
X97587500Y-73887500D03*
X97987500Y-73887500D03*
X98387500Y-73887500D03*
X98787500Y-73887500D03*
X99187500Y-73887500D03*
X99587500Y-73887500D03*
X99987500Y-73887500D03*
X100387500Y-73887500D03*
X100787500Y-73887500D03*
D21*
X101625000Y-73050000D03*
X101625000Y-72650000D03*
X101625000Y-72250000D03*
X101625000Y-71850000D03*
X101625000Y-71450000D03*
X101625000Y-71050000D03*
X101625000Y-70650000D03*
X101625000Y-70250000D03*
X101625000Y-69850000D03*
X101625000Y-69450000D03*
X101625000Y-69050000D03*
X101625000Y-68650000D03*
X101625000Y-68250000D03*
X101625000Y-67850000D03*
D20*
X100787500Y-67012500D03*
X100387500Y-67012500D03*
X99987500Y-67012500D03*
X99587500Y-67012500D03*
X99187500Y-67012500D03*
X98787500Y-67012500D03*
X98387500Y-67012500D03*
X97987500Y-67012500D03*
X97587500Y-67012500D03*
X97187500Y-67012500D03*
X96787500Y-67012500D03*
X96387500Y-67012500D03*
X95987500Y-67012500D03*
X95587500Y-67012500D03*
D21*
X94750000Y-67850000D03*
X94750000Y-68250000D03*
X94750000Y-68650000D03*
X94750000Y-69050000D03*
X94750000Y-69450000D03*
X94750000Y-69850000D03*
X94750000Y-70250000D03*
X94750000Y-70650000D03*
X94750000Y-71050000D03*
X94750000Y-71450000D03*
X94750000Y-71850000D03*
X94750000Y-72250000D03*
X94750000Y-72650000D03*
X94750000Y-73050000D03*
%TD*%
D22*
%TO.C,C8*%
X61250000Y-74000000D03*
X61250000Y-73040000D03*
%TD*%
D23*
%TO.C,USBC1*%
X84499500Y-72299000D03*
X84000000Y-72299000D03*
X83501000Y-72299000D03*
X83000500Y-72299000D03*
X82500500Y-72299000D03*
X82000000Y-72299000D03*
X81499500Y-72299000D03*
X80999000Y-72299000D03*
X80500000Y-72299000D03*
X80001000Y-72299000D03*
X79500500Y-72299000D03*
X79000000Y-72299000D03*
%TD*%
D24*
%TO.C,R3*%
X61250000Y-67540000D03*
X61250000Y-66520000D03*
%TD*%
D17*
%TO.C,C5*%
X92250000Y-71000000D03*
X91290000Y-71000000D03*
%TD*%
%TO.C,C7*%
X95387500Y-75137500D03*
X94427500Y-75137500D03*
%TD*%
D25*
%TO.C,SWD*%
X73750000Y-96750000D03*
X73750000Y-95250000D03*
X73750000Y-93750000D03*
%TD*%
D17*
%TO.C,C10*%
X92750000Y-70000000D03*
X91790000Y-70000000D03*
%TD*%
D22*
%TO.C,C9*%
X104500000Y-68230000D03*
X104500000Y-67270000D03*
%TD*%
D26*
%TO.C,U2*%
X59655000Y-66920000D03*
X58385000Y-66920000D03*
X57115000Y-66920000D03*
X55845000Y-66920000D03*
X55845000Y-74120000D03*
X57115000Y-74120000D03*
X58385000Y-74120000D03*
X59655000Y-74120000D03*
%TD*%
D17*
%TO.C,C16*%
X93367500Y-66420000D03*
X92407500Y-66420000D03*
%TD*%
D27*
%TO.C,C15*%
X65490000Y-68933000D03*
X65490000Y-71883000D03*
%TD*%
D22*
%TO.C,C1*%
X108000000Y-74367500D03*
X108000000Y-73407500D03*
%TD*%
D18*
%TO.C,C6*%
X94520000Y-65750000D03*
X95480000Y-65750000D03*
%TD*%
%TO.C,C12*%
X99540000Y-75637500D03*
X100500000Y-75637500D03*
%TD*%
D22*
%TO.C,C3*%
X103520000Y-68367500D03*
X103520000Y-67407500D03*
%TD*%
D28*
%TO.C,Y1*%
X106500000Y-69887500D03*
X106500000Y-71787500D03*
X108000000Y-71787500D03*
X108000000Y-69887500D03*
%TD*%
D29*
%TO.C,C14*%
X75715000Y-74158000D03*
X72765000Y-74158000D03*
%TD*%
D30*
%TO.C,SW8*%
X73050000Y-120150000D03*
D31*
X73700000Y-119400000D03*
X73700000Y-120900000D03*
D32*
X74150000Y-126390000D03*
X74450000Y-120150000D03*
D31*
X74900000Y-125640000D03*
X74900000Y-127140000D03*
D32*
X75650000Y-126390000D03*
X84150000Y-117960000D03*
D31*
X84900000Y-117210000D03*
X84900000Y-118710000D03*
D32*
X85650000Y-117960000D03*
X86650000Y-128930000D03*
D31*
X87400000Y-128180000D03*
D33*
X87461250Y-129680000D03*
D34*
X88025000Y-129555000D03*
D35*
X88150000Y-128742500D03*
%TD*%
D30*
%TO.C,SW1*%
X54050000Y-82150000D03*
D31*
X54700000Y-81400000D03*
X54700000Y-82900000D03*
D32*
X55150000Y-88390000D03*
X55450000Y-82150000D03*
D31*
X55900000Y-87640000D03*
X55900000Y-89140000D03*
D32*
X56650000Y-88390000D03*
X65150000Y-79960000D03*
D31*
X65900000Y-79210000D03*
X65900000Y-80710000D03*
D32*
X66650000Y-79960000D03*
X67650000Y-90930000D03*
D31*
X68400000Y-90180000D03*
D33*
X68461250Y-91680000D03*
D34*
X69025000Y-91555000D03*
D35*
X69150000Y-90742500D03*
%TD*%
D30*
%TO.C,SW4*%
X54050000Y-101150000D03*
D31*
X54700000Y-100400000D03*
X54700000Y-101900000D03*
D32*
X55150000Y-107390000D03*
X55450000Y-101150000D03*
D31*
X55900000Y-106640000D03*
X55900000Y-108140000D03*
D32*
X56650000Y-107390000D03*
X65150000Y-98960000D03*
D31*
X65900000Y-98210000D03*
X65900000Y-99710000D03*
D32*
X66650000Y-98960000D03*
X67650000Y-109930000D03*
D31*
X68400000Y-109180000D03*
D33*
X68461250Y-110680000D03*
D34*
X69025000Y-110555000D03*
D35*
X69150000Y-109742500D03*
%TD*%
D30*
%TO.C,SW3*%
X92050000Y-82150000D03*
D31*
X92700000Y-81400000D03*
X92700000Y-82900000D03*
D32*
X93150000Y-88390000D03*
X93450000Y-82150000D03*
D31*
X93900000Y-87640000D03*
X93900000Y-89140000D03*
D32*
X94650000Y-88390000D03*
X103150000Y-79960000D03*
D31*
X103900000Y-79210000D03*
X103900000Y-80710000D03*
D32*
X104650000Y-79960000D03*
X105650000Y-90930000D03*
D31*
X106400000Y-90180000D03*
D33*
X106461250Y-91680000D03*
D34*
X107025000Y-91555000D03*
D35*
X107150000Y-90742500D03*
%TD*%
D30*
%TO.C,SW7*%
X54050000Y-120150000D03*
D31*
X54700000Y-119400000D03*
X54700000Y-120900000D03*
D32*
X55150000Y-126390000D03*
X55450000Y-120150000D03*
D31*
X55900000Y-125640000D03*
X55900000Y-127140000D03*
D32*
X56650000Y-126390000D03*
X65150000Y-117960000D03*
D31*
X65900000Y-117210000D03*
X65900000Y-118710000D03*
D32*
X66650000Y-117960000D03*
X67650000Y-128930000D03*
D31*
X68400000Y-128180000D03*
D33*
X68461250Y-129680000D03*
D34*
X69025000Y-129555000D03*
D35*
X69150000Y-128742500D03*
%TD*%
D30*
%TO.C,SW5*%
X73050000Y-101150000D03*
D31*
X73700000Y-100400000D03*
X73700000Y-101900000D03*
D32*
X74150000Y-107390000D03*
X74450000Y-101150000D03*
D31*
X74900000Y-106640000D03*
X74900000Y-108140000D03*
D32*
X75650000Y-107390000D03*
X84150000Y-98960000D03*
D31*
X84900000Y-98210000D03*
X84900000Y-99710000D03*
D32*
X85650000Y-98960000D03*
X86650000Y-109930000D03*
D31*
X87400000Y-109180000D03*
D33*
X87461250Y-110680000D03*
D34*
X88025000Y-110555000D03*
D35*
X88150000Y-109742500D03*
%TD*%
D30*
%TO.C,SW2*%
X73050000Y-82150000D03*
D31*
X73700000Y-81400000D03*
X73700000Y-82900000D03*
D32*
X74150000Y-88390000D03*
X74450000Y-82150000D03*
D31*
X74900000Y-87640000D03*
X74900000Y-89140000D03*
D32*
X75650000Y-88390000D03*
X84150000Y-79960000D03*
D31*
X84900000Y-79210000D03*
X84900000Y-80710000D03*
D32*
X85650000Y-79960000D03*
X86650000Y-90930000D03*
D31*
X87400000Y-90180000D03*
D33*
X87461250Y-91680000D03*
D34*
X88025000Y-91555000D03*
D35*
X88150000Y-90742500D03*
%TD*%
D30*
%TO.C,SW6*%
X92050000Y-101150000D03*
D31*
X92700000Y-100400000D03*
X92700000Y-101900000D03*
D32*
X93150000Y-107390000D03*
X93450000Y-101150000D03*
D31*
X93900000Y-106640000D03*
X93900000Y-108140000D03*
D32*
X94650000Y-107390000D03*
X103150000Y-98960000D03*
D31*
X103900000Y-98210000D03*
X103900000Y-99710000D03*
D32*
X104650000Y-98960000D03*
X105650000Y-109930000D03*
D31*
X106400000Y-109180000D03*
D33*
X106461250Y-110680000D03*
D34*
X107025000Y-110555000D03*
D35*
X107150000Y-109742500D03*
%TD*%
D30*
%TO.C,SW9*%
X92050000Y-120150000D03*
D31*
X92700000Y-119400000D03*
X92700000Y-120900000D03*
D32*
X93150000Y-126390000D03*
X93450000Y-120150000D03*
D31*
X93900000Y-125640000D03*
X93900000Y-127140000D03*
D32*
X94650000Y-126390000D03*
X103150000Y-117960000D03*
D31*
X103900000Y-117210000D03*
X103900000Y-118710000D03*
D32*
X104650000Y-117960000D03*
X105650000Y-128930000D03*
D31*
X106400000Y-128180000D03*
D33*
X106461250Y-129680000D03*
D34*
X107025000Y-129555000D03*
D35*
X107150000Y-128742500D03*
%TD*%
M02*
