%TF.GenerationSoftware,KiCad,Pcbnew,8.0.8*%
%TF.CreationDate,2025-02-11T21:46:50+01:00*%
%TF.ProjectId,macro33,6d616372-6f33-4332-9e6b-696361645f70,1*%
%TF.SameCoordinates,Original*%
%TF.FileFunction,Legend,Top*%
%TF.FilePolarity,Positive*%
%FSLAX46Y46*%
G04 Gerber Fmt 4.6, Leading zero omitted, Abs format (unit mm)*
G04 Created by KiCad (PCBNEW 8.0.8) date 2025-02-11 21:46:50*
%MOMM*%
%LPD*%
G01*
G04 APERTURE LIST*
G04 Aperture macros list*
%AMRoundRect*
0 Rectangle with rounded corners*
0 $1 Rounding radius*
0 $2 $3 $4 $5 $6 $7 $8 $9 X,Y pos of 4 corners*
0 Add a 4 corners polygon primitive as box body*
4,1,4,$2,$3,$4,$5,$6,$7,$8,$9,$2,$3,0*
0 Add four circle primitives for the rounded corners*
1,1,$1+$1,$2,$3*
1,1,$1+$1,$4,$5*
1,1,$1+$1,$6,$7*
1,1,$1+$1,$8,$9*
0 Add four rect primitives between the rounded corners*
20,1,$1+$1,$2,$3,$4,$5,0*
20,1,$1+$1,$4,$5,$6,$7,0*
20,1,$1+$1,$6,$7,$8,$9,0*
20,1,$1+$1,$8,$9,$2,$3,0*%
%AMFreePoly0*
4,1,6,1.000000,0.000000,0.500000,-0.750000,-0.500000,-0.750000,-0.500000,0.750000,0.500000,0.750000,1.000000,0.000000,1.000000,0.000000,$1*%
%AMFreePoly1*
4,1,6,0.500000,-0.750000,-0.650000,-0.750000,-0.150000,0.000000,-0.650000,0.750000,0.500000,0.750000,0.500000,-0.750000,0.500000,-0.750000,$1*%
G04 Aperture macros list end*
%ADD10C,0.300000*%
%ADD11C,0.150000*%
%ADD12C,0.120000*%
%ADD13C,0.254000*%
%ADD14C,0.152500*%
%ADD15RoundRect,0.140000X0.170000X-0.140000X0.170000X0.140000X-0.170000X0.140000X-0.170000X-0.140000X0*%
%ADD16RoundRect,0.250000X0.262500X0.450000X-0.262500X0.450000X-0.262500X-0.450000X0.262500X-0.450000X0*%
%ADD17RoundRect,0.375000X-0.625000X-0.375000X0.625000X-0.375000X0.625000X0.375000X-0.625000X0.375000X0*%
%ADD18RoundRect,0.500000X-0.500000X-1.400000X0.500000X-1.400000X0.500000X1.400000X-0.500000X1.400000X0*%
%ADD19RoundRect,0.135000X0.185000X-0.135000X0.185000X0.135000X-0.185000X0.135000X-0.185000X-0.135000X0*%
%ADD20RoundRect,0.140000X-0.140000X-0.170000X0.140000X-0.170000X0.140000X0.170000X-0.140000X0.170000X0*%
%ADD21RoundRect,0.140000X-0.170000X0.140000X-0.170000X-0.140000X0.170000X-0.140000X0.170000X0.140000X0*%
%ADD22RoundRect,0.050000X-0.050000X0.387500X-0.050000X-0.387500X0.050000X-0.387500X0.050000X0.387500X0*%
%ADD23RoundRect,0.050000X-0.387500X0.050000X-0.387500X-0.050000X0.387500X-0.050000X0.387500X0.050000X0*%
%ADD24R,3.200000X3.200000*%
%ADD25O,0.800000X1.400000*%
%ADD26R,0.300000X1.400000*%
%ADD27C,0.600000*%
%ADD28RoundRect,0.381000X-0.381000X0.762000X-0.381000X-0.762000X0.381000X-0.762000X0.381000X0.762000X0*%
%ADD29RoundRect,0.140000X0.140000X0.170000X-0.140000X0.170000X-0.140000X-0.170000X0.140000X-0.170000X0*%
%ADD30RoundRect,0.150000X-0.150000X0.650000X-0.150000X-0.650000X0.150000X-0.650000X0.150000X0.650000X0*%
%ADD31RoundRect,0.250000X-0.325000X-0.650000X0.325000X-0.650000X0.325000X0.650000X-0.325000X0.650000X0*%
%ADD32FreePoly0,180.000000*%
%ADD33FreePoly1,180.000000*%
%ADD34R,1.100000X1.200000*%
%ADD35C,1.900000*%
%ADD36C,1.700000*%
%ADD37C,3.000000*%
%ADD38C,4.100000*%
%ADD39R,0.300000X2.000000*%
%ADD40R,1.000000X0.500000*%
%ADD41R,1.000000X1.000000*%
%ADD42R,0.500000X2.000000*%
%ADD43R,1.125000X0.500000*%
%ADD44C,0.750000*%
%ADD45R,0.500000X1.625000*%
G04 APERTURE END LIST*
D10*
X57554510Y-132550828D02*
X57554510Y-131050828D01*
X58197368Y-132550828D02*
X58197368Y-131765114D01*
X58197368Y-131765114D02*
X58125939Y-131622257D01*
X58125939Y-131622257D02*
X57983082Y-131550828D01*
X57983082Y-131550828D02*
X57768796Y-131550828D01*
X57768796Y-131550828D02*
X57625939Y-131622257D01*
X57625939Y-131622257D02*
X57554510Y-131693685D01*
X58697368Y-131550828D02*
X59268796Y-131550828D01*
X58911653Y-131050828D02*
X58911653Y-132336542D01*
X58911653Y-132336542D02*
X58983082Y-132479400D01*
X58983082Y-132479400D02*
X59125939Y-132550828D01*
X59125939Y-132550828D02*
X59268796Y-132550828D01*
X59554511Y-131550828D02*
X60125939Y-131550828D01*
X59768796Y-131050828D02*
X59768796Y-132336542D01*
X59768796Y-132336542D02*
X59840225Y-132479400D01*
X59840225Y-132479400D02*
X59983082Y-132550828D01*
X59983082Y-132550828D02*
X60125939Y-132550828D01*
X60625939Y-131550828D02*
X60625939Y-133050828D01*
X60625939Y-131622257D02*
X60768797Y-131550828D01*
X60768797Y-131550828D02*
X61054511Y-131550828D01*
X61054511Y-131550828D02*
X61197368Y-131622257D01*
X61197368Y-131622257D02*
X61268797Y-131693685D01*
X61268797Y-131693685D02*
X61340225Y-131836542D01*
X61340225Y-131836542D02*
X61340225Y-132265114D01*
X61340225Y-132265114D02*
X61268797Y-132407971D01*
X61268797Y-132407971D02*
X61197368Y-132479400D01*
X61197368Y-132479400D02*
X61054511Y-132550828D01*
X61054511Y-132550828D02*
X60768797Y-132550828D01*
X60768797Y-132550828D02*
X60625939Y-132479400D01*
X61911654Y-132479400D02*
X62054511Y-132550828D01*
X62054511Y-132550828D02*
X62340225Y-132550828D01*
X62340225Y-132550828D02*
X62483082Y-132479400D01*
X62483082Y-132479400D02*
X62554511Y-132336542D01*
X62554511Y-132336542D02*
X62554511Y-132265114D01*
X62554511Y-132265114D02*
X62483082Y-132122257D01*
X62483082Y-132122257D02*
X62340225Y-132050828D01*
X62340225Y-132050828D02*
X62125940Y-132050828D01*
X62125940Y-132050828D02*
X61983082Y-131979400D01*
X61983082Y-131979400D02*
X61911654Y-131836542D01*
X61911654Y-131836542D02*
X61911654Y-131765114D01*
X61911654Y-131765114D02*
X61983082Y-131622257D01*
X61983082Y-131622257D02*
X62125940Y-131550828D01*
X62125940Y-131550828D02*
X62340225Y-131550828D01*
X62340225Y-131550828D02*
X62483082Y-131622257D01*
X63197368Y-132407971D02*
X63268797Y-132479400D01*
X63268797Y-132479400D02*
X63197368Y-132550828D01*
X63197368Y-132550828D02*
X63125940Y-132479400D01*
X63125940Y-132479400D02*
X63197368Y-132407971D01*
X63197368Y-132407971D02*
X63197368Y-132550828D01*
X63197368Y-131622257D02*
X63268797Y-131693685D01*
X63268797Y-131693685D02*
X63197368Y-131765114D01*
X63197368Y-131765114D02*
X63125940Y-131693685D01*
X63125940Y-131693685D02*
X63197368Y-131622257D01*
X63197368Y-131622257D02*
X63197368Y-131765114D01*
X64983083Y-130979400D02*
X63697369Y-132907971D01*
X66554512Y-130979400D02*
X65268798Y-132907971D01*
X67697370Y-131550828D02*
X67697370Y-132765114D01*
X67697370Y-132765114D02*
X67625941Y-132907971D01*
X67625941Y-132907971D02*
X67554512Y-132979400D01*
X67554512Y-132979400D02*
X67411655Y-133050828D01*
X67411655Y-133050828D02*
X67197370Y-133050828D01*
X67197370Y-133050828D02*
X67054512Y-132979400D01*
X67697370Y-132479400D02*
X67554512Y-132550828D01*
X67554512Y-132550828D02*
X67268798Y-132550828D01*
X67268798Y-132550828D02*
X67125941Y-132479400D01*
X67125941Y-132479400D02*
X67054512Y-132407971D01*
X67054512Y-132407971D02*
X66983084Y-132265114D01*
X66983084Y-132265114D02*
X66983084Y-131836542D01*
X66983084Y-131836542D02*
X67054512Y-131693685D01*
X67054512Y-131693685D02*
X67125941Y-131622257D01*
X67125941Y-131622257D02*
X67268798Y-131550828D01*
X67268798Y-131550828D02*
X67554512Y-131550828D01*
X67554512Y-131550828D02*
X67697370Y-131622257D01*
X68411655Y-132550828D02*
X68411655Y-131550828D01*
X68411655Y-131050828D02*
X68340227Y-131122257D01*
X68340227Y-131122257D02*
X68411655Y-131193685D01*
X68411655Y-131193685D02*
X68483084Y-131122257D01*
X68483084Y-131122257D02*
X68411655Y-131050828D01*
X68411655Y-131050828D02*
X68411655Y-131193685D01*
X68911656Y-131550828D02*
X69483084Y-131550828D01*
X69125941Y-131050828D02*
X69125941Y-132336542D01*
X69125941Y-132336542D02*
X69197370Y-132479400D01*
X69197370Y-132479400D02*
X69340227Y-132550828D01*
X69340227Y-132550828D02*
X69483084Y-132550828D01*
X69983084Y-132550828D02*
X69983084Y-131050828D01*
X70625942Y-132550828D02*
X70625942Y-131765114D01*
X70625942Y-131765114D02*
X70554513Y-131622257D01*
X70554513Y-131622257D02*
X70411656Y-131550828D01*
X70411656Y-131550828D02*
X70197370Y-131550828D01*
X70197370Y-131550828D02*
X70054513Y-131622257D01*
X70054513Y-131622257D02*
X69983084Y-131693685D01*
X71983085Y-131550828D02*
X71983085Y-132550828D01*
X71340227Y-131550828D02*
X71340227Y-132336542D01*
X71340227Y-132336542D02*
X71411656Y-132479400D01*
X71411656Y-132479400D02*
X71554513Y-132550828D01*
X71554513Y-132550828D02*
X71768799Y-132550828D01*
X71768799Y-132550828D02*
X71911656Y-132479400D01*
X71911656Y-132479400D02*
X71983085Y-132407971D01*
X72697370Y-132550828D02*
X72697370Y-131050828D01*
X72697370Y-131622257D02*
X72840228Y-131550828D01*
X72840228Y-131550828D02*
X73125942Y-131550828D01*
X73125942Y-131550828D02*
X73268799Y-131622257D01*
X73268799Y-131622257D02*
X73340228Y-131693685D01*
X73340228Y-131693685D02*
X73411656Y-131836542D01*
X73411656Y-131836542D02*
X73411656Y-132265114D01*
X73411656Y-132265114D02*
X73340228Y-132407971D01*
X73340228Y-132407971D02*
X73268799Y-132479400D01*
X73268799Y-132479400D02*
X73125942Y-132550828D01*
X73125942Y-132550828D02*
X72840228Y-132550828D01*
X72840228Y-132550828D02*
X72697370Y-132479400D01*
X74054513Y-132407971D02*
X74125942Y-132479400D01*
X74125942Y-132479400D02*
X74054513Y-132550828D01*
X74054513Y-132550828D02*
X73983085Y-132479400D01*
X73983085Y-132479400D02*
X74054513Y-132407971D01*
X74054513Y-132407971D02*
X74054513Y-132550828D01*
X75411657Y-132479400D02*
X75268799Y-132550828D01*
X75268799Y-132550828D02*
X74983085Y-132550828D01*
X74983085Y-132550828D02*
X74840228Y-132479400D01*
X74840228Y-132479400D02*
X74768799Y-132407971D01*
X74768799Y-132407971D02*
X74697371Y-132265114D01*
X74697371Y-132265114D02*
X74697371Y-131836542D01*
X74697371Y-131836542D02*
X74768799Y-131693685D01*
X74768799Y-131693685D02*
X74840228Y-131622257D01*
X74840228Y-131622257D02*
X74983085Y-131550828D01*
X74983085Y-131550828D02*
X75268799Y-131550828D01*
X75268799Y-131550828D02*
X75411657Y-131622257D01*
X76268799Y-132550828D02*
X76125942Y-132479400D01*
X76125942Y-132479400D02*
X76054513Y-132407971D01*
X76054513Y-132407971D02*
X75983085Y-132265114D01*
X75983085Y-132265114D02*
X75983085Y-131836542D01*
X75983085Y-131836542D02*
X76054513Y-131693685D01*
X76054513Y-131693685D02*
X76125942Y-131622257D01*
X76125942Y-131622257D02*
X76268799Y-131550828D01*
X76268799Y-131550828D02*
X76483085Y-131550828D01*
X76483085Y-131550828D02*
X76625942Y-131622257D01*
X76625942Y-131622257D02*
X76697371Y-131693685D01*
X76697371Y-131693685D02*
X76768799Y-131836542D01*
X76768799Y-131836542D02*
X76768799Y-132265114D01*
X76768799Y-132265114D02*
X76697371Y-132407971D01*
X76697371Y-132407971D02*
X76625942Y-132479400D01*
X76625942Y-132479400D02*
X76483085Y-132550828D01*
X76483085Y-132550828D02*
X76268799Y-132550828D01*
X77411656Y-132550828D02*
X77411656Y-131550828D01*
X77411656Y-131693685D02*
X77483085Y-131622257D01*
X77483085Y-131622257D02*
X77625942Y-131550828D01*
X77625942Y-131550828D02*
X77840228Y-131550828D01*
X77840228Y-131550828D02*
X77983085Y-131622257D01*
X77983085Y-131622257D02*
X78054514Y-131765114D01*
X78054514Y-131765114D02*
X78054514Y-132550828D01*
X78054514Y-131765114D02*
X78125942Y-131622257D01*
X78125942Y-131622257D02*
X78268799Y-131550828D01*
X78268799Y-131550828D02*
X78483085Y-131550828D01*
X78483085Y-131550828D02*
X78625942Y-131622257D01*
X78625942Y-131622257D02*
X78697371Y-131765114D01*
X78697371Y-131765114D02*
X78697371Y-132550828D01*
X80483085Y-130979400D02*
X79197371Y-132907971D01*
X81768800Y-131122257D02*
X81625943Y-131050828D01*
X81625943Y-131050828D02*
X81411657Y-131050828D01*
X81411657Y-131050828D02*
X81197371Y-131122257D01*
X81197371Y-131122257D02*
X81054514Y-131265114D01*
X81054514Y-131265114D02*
X80983085Y-131407971D01*
X80983085Y-131407971D02*
X80911657Y-131693685D01*
X80911657Y-131693685D02*
X80911657Y-131907971D01*
X80911657Y-131907971D02*
X80983085Y-132193685D01*
X80983085Y-132193685D02*
X81054514Y-132336542D01*
X81054514Y-132336542D02*
X81197371Y-132479400D01*
X81197371Y-132479400D02*
X81411657Y-132550828D01*
X81411657Y-132550828D02*
X81554514Y-132550828D01*
X81554514Y-132550828D02*
X81768800Y-132479400D01*
X81768800Y-132479400D02*
X81840228Y-132407971D01*
X81840228Y-132407971D02*
X81840228Y-131907971D01*
X81840228Y-131907971D02*
X81554514Y-131907971D01*
X83125943Y-132550828D02*
X83125943Y-131765114D01*
X83125943Y-131765114D02*
X83054514Y-131622257D01*
X83054514Y-131622257D02*
X82911657Y-131550828D01*
X82911657Y-131550828D02*
X82625943Y-131550828D01*
X82625943Y-131550828D02*
X82483085Y-131622257D01*
X83125943Y-132479400D02*
X82983085Y-132550828D01*
X82983085Y-132550828D02*
X82625943Y-132550828D01*
X82625943Y-132550828D02*
X82483085Y-132479400D01*
X82483085Y-132479400D02*
X82411657Y-132336542D01*
X82411657Y-132336542D02*
X82411657Y-132193685D01*
X82411657Y-132193685D02*
X82483085Y-132050828D01*
X82483085Y-132050828D02*
X82625943Y-131979400D01*
X82625943Y-131979400D02*
X82983085Y-131979400D01*
X82983085Y-131979400D02*
X83125943Y-131907971D01*
X83840228Y-132550828D02*
X83840228Y-131550828D01*
X83840228Y-131693685D02*
X83911657Y-131622257D01*
X83911657Y-131622257D02*
X84054514Y-131550828D01*
X84054514Y-131550828D02*
X84268800Y-131550828D01*
X84268800Y-131550828D02*
X84411657Y-131622257D01*
X84411657Y-131622257D02*
X84483086Y-131765114D01*
X84483086Y-131765114D02*
X84483086Y-132550828D01*
X84483086Y-131765114D02*
X84554514Y-131622257D01*
X84554514Y-131622257D02*
X84697371Y-131550828D01*
X84697371Y-131550828D02*
X84911657Y-131550828D01*
X84911657Y-131550828D02*
X85054514Y-131622257D01*
X85054514Y-131622257D02*
X85125943Y-131765114D01*
X85125943Y-131765114D02*
X85125943Y-132550828D01*
X86411657Y-132479400D02*
X86268800Y-132550828D01*
X86268800Y-132550828D02*
X85983086Y-132550828D01*
X85983086Y-132550828D02*
X85840228Y-132479400D01*
X85840228Y-132479400D02*
X85768800Y-132336542D01*
X85768800Y-132336542D02*
X85768800Y-131765114D01*
X85768800Y-131765114D02*
X85840228Y-131622257D01*
X85840228Y-131622257D02*
X85983086Y-131550828D01*
X85983086Y-131550828D02*
X86268800Y-131550828D01*
X86268800Y-131550828D02*
X86411657Y-131622257D01*
X86411657Y-131622257D02*
X86483086Y-131765114D01*
X86483086Y-131765114D02*
X86483086Y-131907971D01*
X86483086Y-131907971D02*
X85768800Y-132050828D01*
X86911657Y-131050828D02*
X87768800Y-131050828D01*
X87340228Y-132550828D02*
X87340228Y-131050828D01*
X88840228Y-132479400D02*
X88697371Y-132550828D01*
X88697371Y-132550828D02*
X88411657Y-132550828D01*
X88411657Y-132550828D02*
X88268799Y-132479400D01*
X88268799Y-132479400D02*
X88197371Y-132336542D01*
X88197371Y-132336542D02*
X88197371Y-131765114D01*
X88197371Y-131765114D02*
X88268799Y-131622257D01*
X88268799Y-131622257D02*
X88411657Y-131550828D01*
X88411657Y-131550828D02*
X88697371Y-131550828D01*
X88697371Y-131550828D02*
X88840228Y-131622257D01*
X88840228Y-131622257D02*
X88911657Y-131765114D01*
X88911657Y-131765114D02*
X88911657Y-131907971D01*
X88911657Y-131907971D02*
X88197371Y-132050828D01*
X90197371Y-132479400D02*
X90054513Y-132550828D01*
X90054513Y-132550828D02*
X89768799Y-132550828D01*
X89768799Y-132550828D02*
X89625942Y-132479400D01*
X89625942Y-132479400D02*
X89554513Y-132407971D01*
X89554513Y-132407971D02*
X89483085Y-132265114D01*
X89483085Y-132265114D02*
X89483085Y-131836542D01*
X89483085Y-131836542D02*
X89554513Y-131693685D01*
X89554513Y-131693685D02*
X89625942Y-131622257D01*
X89625942Y-131622257D02*
X89768799Y-131550828D01*
X89768799Y-131550828D02*
X90054513Y-131550828D01*
X90054513Y-131550828D02*
X90197371Y-131622257D01*
X90840227Y-131979400D02*
X91983085Y-131979400D01*
X92911656Y-132550828D02*
X92768799Y-132479400D01*
X92768799Y-132479400D02*
X92697370Y-132336542D01*
X92697370Y-132336542D02*
X92697370Y-131050828D01*
X93483084Y-132550828D02*
X93483084Y-131550828D01*
X93483084Y-131050828D02*
X93411656Y-131122257D01*
X93411656Y-131122257D02*
X93483084Y-131193685D01*
X93483084Y-131193685D02*
X93554513Y-131122257D01*
X93554513Y-131122257D02*
X93483084Y-131050828D01*
X93483084Y-131050828D02*
X93483084Y-131193685D01*
X94054513Y-131550828D02*
X94411656Y-132550828D01*
X94411656Y-132550828D02*
X94768799Y-131550828D01*
X95911656Y-132479400D02*
X95768799Y-132550828D01*
X95768799Y-132550828D02*
X95483085Y-132550828D01*
X95483085Y-132550828D02*
X95340227Y-132479400D01*
X95340227Y-132479400D02*
X95268799Y-132336542D01*
X95268799Y-132336542D02*
X95268799Y-131765114D01*
X95268799Y-131765114D02*
X95340227Y-131622257D01*
X95340227Y-131622257D02*
X95483085Y-131550828D01*
X95483085Y-131550828D02*
X95768799Y-131550828D01*
X95768799Y-131550828D02*
X95911656Y-131622257D01*
X95911656Y-131622257D02*
X95983085Y-131765114D01*
X95983085Y-131765114D02*
X95983085Y-131907971D01*
X95983085Y-131907971D02*
X95268799Y-132050828D01*
X97697370Y-130979400D02*
X96411656Y-132907971D01*
X98197370Y-132550828D02*
X98197370Y-131550828D01*
X98197370Y-131693685D02*
X98268799Y-131622257D01*
X98268799Y-131622257D02*
X98411656Y-131550828D01*
X98411656Y-131550828D02*
X98625942Y-131550828D01*
X98625942Y-131550828D02*
X98768799Y-131622257D01*
X98768799Y-131622257D02*
X98840228Y-131765114D01*
X98840228Y-131765114D02*
X98840228Y-132550828D01*
X98840228Y-131765114D02*
X98911656Y-131622257D01*
X98911656Y-131622257D02*
X99054513Y-131550828D01*
X99054513Y-131550828D02*
X99268799Y-131550828D01*
X99268799Y-131550828D02*
X99411656Y-131622257D01*
X99411656Y-131622257D02*
X99483085Y-131765114D01*
X99483085Y-131765114D02*
X99483085Y-132550828D01*
X100840228Y-132550828D02*
X100840228Y-131765114D01*
X100840228Y-131765114D02*
X100768799Y-131622257D01*
X100768799Y-131622257D02*
X100625942Y-131550828D01*
X100625942Y-131550828D02*
X100340228Y-131550828D01*
X100340228Y-131550828D02*
X100197370Y-131622257D01*
X100840228Y-132479400D02*
X100697370Y-132550828D01*
X100697370Y-132550828D02*
X100340228Y-132550828D01*
X100340228Y-132550828D02*
X100197370Y-132479400D01*
X100197370Y-132479400D02*
X100125942Y-132336542D01*
X100125942Y-132336542D02*
X100125942Y-132193685D01*
X100125942Y-132193685D02*
X100197370Y-132050828D01*
X100197370Y-132050828D02*
X100340228Y-131979400D01*
X100340228Y-131979400D02*
X100697370Y-131979400D01*
X100697370Y-131979400D02*
X100840228Y-131907971D01*
X102197371Y-132479400D02*
X102054513Y-132550828D01*
X102054513Y-132550828D02*
X101768799Y-132550828D01*
X101768799Y-132550828D02*
X101625942Y-132479400D01*
X101625942Y-132479400D02*
X101554513Y-132407971D01*
X101554513Y-132407971D02*
X101483085Y-132265114D01*
X101483085Y-132265114D02*
X101483085Y-131836542D01*
X101483085Y-131836542D02*
X101554513Y-131693685D01*
X101554513Y-131693685D02*
X101625942Y-131622257D01*
X101625942Y-131622257D02*
X101768799Y-131550828D01*
X101768799Y-131550828D02*
X102054513Y-131550828D01*
X102054513Y-131550828D02*
X102197371Y-131622257D01*
X102840227Y-132550828D02*
X102840227Y-131550828D01*
X102840227Y-131836542D02*
X102911656Y-131693685D01*
X102911656Y-131693685D02*
X102983085Y-131622257D01*
X102983085Y-131622257D02*
X103125942Y-131550828D01*
X103125942Y-131550828D02*
X103268799Y-131550828D01*
X103983084Y-132550828D02*
X103840227Y-132479400D01*
X103840227Y-132479400D02*
X103768798Y-132407971D01*
X103768798Y-132407971D02*
X103697370Y-132265114D01*
X103697370Y-132265114D02*
X103697370Y-131836542D01*
X103697370Y-131836542D02*
X103768798Y-131693685D01*
X103768798Y-131693685D02*
X103840227Y-131622257D01*
X103840227Y-131622257D02*
X103983084Y-131550828D01*
X103983084Y-131550828D02*
X104197370Y-131550828D01*
X104197370Y-131550828D02*
X104340227Y-131622257D01*
X104340227Y-131622257D02*
X104411656Y-131693685D01*
X104411656Y-131693685D02*
X104483084Y-131836542D01*
X104483084Y-131836542D02*
X104483084Y-132265114D01*
X104483084Y-132265114D02*
X104411656Y-132407971D01*
X104411656Y-132407971D02*
X104340227Y-132479400D01*
X104340227Y-132479400D02*
X104197370Y-132550828D01*
X104197370Y-132550828D02*
X103983084Y-132550828D01*
X104983084Y-131050828D02*
X105911656Y-131050828D01*
X105911656Y-131050828D02*
X105411656Y-131622257D01*
X105411656Y-131622257D02*
X105625941Y-131622257D01*
X105625941Y-131622257D02*
X105768799Y-131693685D01*
X105768799Y-131693685D02*
X105840227Y-131765114D01*
X105840227Y-131765114D02*
X105911656Y-131907971D01*
X105911656Y-131907971D02*
X105911656Y-132265114D01*
X105911656Y-132265114D02*
X105840227Y-132407971D01*
X105840227Y-132407971D02*
X105768799Y-132479400D01*
X105768799Y-132479400D02*
X105625941Y-132550828D01*
X105625941Y-132550828D02*
X105197370Y-132550828D01*
X105197370Y-132550828D02*
X105054513Y-132479400D01*
X105054513Y-132479400D02*
X104983084Y-132407971D01*
X106411655Y-131050828D02*
X107340227Y-131050828D01*
X107340227Y-131050828D02*
X106840227Y-131622257D01*
X106840227Y-131622257D02*
X107054512Y-131622257D01*
X107054512Y-131622257D02*
X107197370Y-131693685D01*
X107197370Y-131693685D02*
X107268798Y-131765114D01*
X107268798Y-131765114D02*
X107340227Y-131907971D01*
X107340227Y-131907971D02*
X107340227Y-132265114D01*
X107340227Y-132265114D02*
X107268798Y-132407971D01*
X107268798Y-132407971D02*
X107197370Y-132479400D01*
X107197370Y-132479400D02*
X107054512Y-132550828D01*
X107054512Y-132550828D02*
X106625941Y-132550828D01*
X106625941Y-132550828D02*
X106483084Y-132479400D01*
X106483084Y-132479400D02*
X106411655Y-132407971D01*
D11*
X57392857Y-78853700D02*
X57535714Y-78901319D01*
X57535714Y-78901319D02*
X57773809Y-78901319D01*
X57773809Y-78901319D02*
X57869047Y-78853700D01*
X57869047Y-78853700D02*
X57916666Y-78806080D01*
X57916666Y-78806080D02*
X57964285Y-78710842D01*
X57964285Y-78710842D02*
X57964285Y-78615604D01*
X57964285Y-78615604D02*
X57916666Y-78520366D01*
X57916666Y-78520366D02*
X57869047Y-78472747D01*
X57869047Y-78472747D02*
X57773809Y-78425128D01*
X57773809Y-78425128D02*
X57583333Y-78377509D01*
X57583333Y-78377509D02*
X57488095Y-78329890D01*
X57488095Y-78329890D02*
X57440476Y-78282271D01*
X57440476Y-78282271D02*
X57392857Y-78187033D01*
X57392857Y-78187033D02*
X57392857Y-78091795D01*
X57392857Y-78091795D02*
X57440476Y-77996557D01*
X57440476Y-77996557D02*
X57488095Y-77948938D01*
X57488095Y-77948938D02*
X57583333Y-77901319D01*
X57583333Y-77901319D02*
X57821428Y-77901319D01*
X57821428Y-77901319D02*
X57964285Y-77948938D01*
X58297619Y-77901319D02*
X58535714Y-78901319D01*
X58535714Y-78901319D02*
X58726190Y-78187033D01*
X58726190Y-78187033D02*
X58916666Y-78901319D01*
X58916666Y-78901319D02*
X59154762Y-77901319D01*
X59535714Y-78901319D02*
X59535714Y-77901319D01*
X59535714Y-77901319D02*
X59773809Y-77901319D01*
X59773809Y-77901319D02*
X59916666Y-77948938D01*
X59916666Y-77948938D02*
X60011904Y-78044176D01*
X60011904Y-78044176D02*
X60059523Y-78139414D01*
X60059523Y-78139414D02*
X60107142Y-78329890D01*
X60107142Y-78329890D02*
X60107142Y-78472747D01*
X60107142Y-78472747D02*
X60059523Y-78663223D01*
X60059523Y-78663223D02*
X60011904Y-78758461D01*
X60011904Y-78758461D02*
X59916666Y-78853700D01*
X59916666Y-78853700D02*
X59773809Y-78901319D01*
X59773809Y-78901319D02*
X59535714Y-78901319D01*
X104391666Y-71274819D02*
X104391666Y-71989104D01*
X104391666Y-71989104D02*
X104344047Y-72131961D01*
X104344047Y-72131961D02*
X104248809Y-72227200D01*
X104248809Y-72227200D02*
X104105952Y-72274819D01*
X104105952Y-72274819D02*
X104010714Y-72274819D01*
X104867857Y-72274819D02*
X104867857Y-71274819D01*
X104867857Y-71274819D02*
X105248809Y-71274819D01*
X105248809Y-71274819D02*
X105344047Y-71322438D01*
X105344047Y-71322438D02*
X105391666Y-71370057D01*
X105391666Y-71370057D02*
X105439285Y-71465295D01*
X105439285Y-71465295D02*
X105439285Y-71608152D01*
X105439285Y-71608152D02*
X105391666Y-71703390D01*
X105391666Y-71703390D02*
X105344047Y-71751009D01*
X105344047Y-71751009D02*
X105248809Y-71798628D01*
X105248809Y-71798628D02*
X104867857Y-71798628D01*
X106391666Y-72274819D02*
X105820238Y-72274819D01*
X106105952Y-72274819D02*
X106105952Y-71274819D01*
X106105952Y-71274819D02*
X106010714Y-71417676D01*
X106010714Y-71417676D02*
X105915476Y-71512914D01*
X105915476Y-71512914D02*
X105820238Y-71560533D01*
D12*
%TO.C,C2*%
X55640000Y-73857836D02*
X55640000Y-73642164D01*
X56360000Y-73857836D02*
X56360000Y-73642164D01*
%TO.C,R2*%
X74814564Y-73015000D02*
X74360436Y-73015000D01*
X74814564Y-74485000D02*
X74360436Y-74485000D01*
%TO.C,U3*%
X90900000Y-60340000D02*
X94660000Y-60340000D01*
X90900000Y-67160000D02*
X94660000Y-67160000D01*
X94660000Y-60340000D02*
X94660000Y-61600000D01*
X94660000Y-67160000D02*
X94660000Y-65900000D01*
X89620000Y-60440000D02*
X89380000Y-60110000D01*
X89860000Y-60110000D01*
X89620000Y-60440000D01*
G36*
X89620000Y-60440000D02*
G01*
X89380000Y-60110000D01*
X89860000Y-60110000D01*
X89620000Y-60440000D01*
G37*
%TO.C,R1*%
X74727064Y-71015000D02*
X74272936Y-71015000D01*
X74727064Y-72485000D02*
X74272936Y-72485000D01*
%TO.C,R5*%
X83630000Y-71794641D02*
X83630000Y-71487359D01*
X84390000Y-71794641D02*
X84390000Y-71487359D01*
%TO.C,C13*%
X70412164Y-75890000D02*
X70627836Y-75890000D01*
X70412164Y-76610000D02*
X70627836Y-76610000D01*
%TO.C,C11*%
X63890000Y-76142164D02*
X63890000Y-76357836D01*
X64610000Y-76142164D02*
X64610000Y-76357836D01*
%TO.C,C4*%
X70412164Y-73890000D02*
X70627836Y-73890000D01*
X70412164Y-74610000D02*
X70627836Y-74610000D01*
%TO.C,U1*%
X61590000Y-67577500D02*
X62240000Y-67577500D01*
X61590000Y-68227500D02*
X61590000Y-67577500D01*
X61590000Y-74147500D02*
X61590000Y-74797500D01*
X61590000Y-74797500D02*
X62240000Y-74797500D01*
X68160000Y-67577500D02*
X68570000Y-67577500D01*
X68810000Y-68227500D02*
X68810000Y-67877500D01*
X68810000Y-74147500D02*
X68810000Y-74797500D01*
X68810000Y-74797500D02*
X68160000Y-74797500D01*
X69140000Y-67817500D02*
X68810000Y-67577500D01*
X69140000Y-67337500D01*
X69140000Y-67817500D01*
G36*
X69140000Y-67817500D02*
G01*
X68810000Y-67577500D01*
X69140000Y-67337500D01*
X69140000Y-67817500D01*
G37*
%TO.C,C8*%
X103640000Y-74127836D02*
X103640000Y-73912164D01*
X104360000Y-74127836D02*
X104360000Y-73912164D01*
D13*
%TO.C,USBC1*%
X76807000Y-58635000D02*
X86713000Y-58635000D01*
X76807000Y-68668000D02*
X76807000Y-58635000D01*
X78115000Y-59219000D02*
X78696500Y-64266000D01*
X78447500Y-59193500D02*
X78115000Y-59219000D01*
X78544000Y-60125500D02*
X80627000Y-60125500D01*
X78696500Y-64266000D02*
X80550500Y-64266000D01*
X78874000Y-61878500D02*
X80322000Y-61878500D01*
X79103000Y-63758000D02*
X78447500Y-59193500D01*
X80042500Y-63758000D02*
X79103000Y-63758000D01*
X80550500Y-64266000D02*
X81135000Y-59211500D01*
X80830000Y-59160500D02*
X80042500Y-63758000D01*
X81135000Y-59211500D02*
X80830000Y-59160500D01*
X82585000Y-59168000D02*
X82918000Y-59142500D01*
X82918000Y-59142500D02*
X83573000Y-63707000D01*
X83014500Y-60075000D02*
X85097000Y-60075000D01*
X83167000Y-64215000D02*
X82585000Y-59168000D01*
X83344500Y-61827500D02*
X84792500Y-61827500D01*
X83573000Y-63707000D02*
X84513000Y-63707000D01*
X84513000Y-63707000D02*
X85300500Y-59109500D01*
X85021000Y-64215000D02*
X83167000Y-64215000D01*
X85300500Y-59109500D02*
X85605000Y-59160500D01*
X85605000Y-59160500D02*
X85021000Y-64215000D01*
X86713000Y-58635000D02*
X86713000Y-68668000D01*
X86713000Y-68668000D02*
X76807000Y-68668000D01*
D12*
%TO.C,R3*%
X103620000Y-67683641D02*
X103620000Y-67376359D01*
X104380000Y-67683641D02*
X104380000Y-67376359D01*
%TO.C,C5*%
X72392164Y-69390000D02*
X72607836Y-69390000D01*
X72392164Y-70110000D02*
X72607836Y-70110000D01*
%TO.C,C7*%
X68640000Y-65877836D02*
X68640000Y-65662164D01*
X69360000Y-65877836D02*
X69360000Y-65662164D01*
%TO.C,C10*%
X71412164Y-70890000D02*
X71627836Y-70890000D01*
X71412164Y-71610000D02*
X71627836Y-71610000D01*
%TO.C,C9*%
X58607836Y-71390000D02*
X58392164Y-71390000D01*
X58607836Y-72110000D02*
X58392164Y-72110000D01*
%TO.C,U2*%
X97775000Y-68295000D02*
X98035000Y-68295000D01*
X97775000Y-71020000D02*
X97775000Y-68295000D01*
X97775000Y-71020000D02*
X97775000Y-73745000D01*
X97775000Y-73745000D02*
X98035000Y-73745000D01*
X103225000Y-68295000D02*
X102965000Y-68295000D01*
X103225000Y-71020000D02*
X103225000Y-68295000D01*
X103225000Y-71020000D02*
X103225000Y-73745000D01*
X103225000Y-73745000D02*
X102965000Y-73745000D01*
X103295000Y-67752500D02*
X102965000Y-67512500D01*
X103295000Y-67272500D01*
X103295000Y-67752500D01*
G36*
X103295000Y-67752500D02*
G01*
X102965000Y-67512500D01*
X103295000Y-67272500D01*
X103295000Y-67752500D01*
G37*
%TO.C,C16*%
X70392164Y-74890000D02*
X70607836Y-74890000D01*
X70392164Y-75610000D02*
X70607836Y-75610000D01*
%TO.C,C15*%
X98788748Y-60590000D02*
X100211252Y-60590000D01*
X98788748Y-62410000D02*
X100211252Y-62410000D01*
%TO.C,C1*%
X54140000Y-67642164D02*
X54140000Y-67857836D01*
X54860000Y-67642164D02*
X54860000Y-67857836D01*
%TO.C,C6*%
X70372164Y-76890000D02*
X70587836Y-76890000D01*
X70372164Y-77610000D02*
X70587836Y-77610000D01*
%TO.C,C12*%
X63640000Y-64107836D02*
X63640000Y-63892164D01*
X64360000Y-64107836D02*
X64360000Y-63892164D01*
%TO.C,JP1*%
X103825000Y-69020000D02*
X106625000Y-69020000D01*
X103825000Y-71020000D02*
X103825000Y-69020000D01*
X106625000Y-69020000D02*
X106625000Y-71020000D01*
X106625000Y-71020000D02*
X103825000Y-71020000D01*
%TO.C,C3*%
X58140000Y-73642164D02*
X58140000Y-73857836D01*
X58860000Y-73642164D02*
X58860000Y-73857836D01*
D14*
%TO.C,Y1*%
X53721500Y-69021500D02*
X56778500Y-69021500D01*
X53721500Y-72578500D02*
X53721500Y-69021500D01*
X55450500Y-72806500D02*
X57007500Y-72806500D01*
X56778500Y-69021500D02*
X56778500Y-72578500D01*
X56778500Y-72578500D02*
X53721500Y-72578500D01*
X57007500Y-72806500D02*
X57007500Y-71150500D01*
D12*
%TO.C,C14*%
X90063748Y-67590000D02*
X91486252Y-67590000D01*
X90063748Y-69410000D02*
X91486252Y-69410000D01*
D11*
%TO.C,SW8*%
X74500000Y-117850000D02*
X74500000Y-122450000D01*
X74500000Y-122475000D02*
X79225000Y-122475000D01*
X74525000Y-117825000D02*
X78300000Y-117825000D01*
X75700000Y-124755000D02*
X75700000Y-128700000D01*
X77975000Y-130654000D02*
X86600000Y-130654000D01*
X79310000Y-124746000D02*
X75700000Y-124746000D01*
X79520000Y-115650000D02*
X79520000Y-116350000D01*
X79525000Y-115625000D02*
X84075000Y-115625000D01*
X81525000Y-120275000D02*
X84075000Y-120275000D01*
X81550000Y-126654000D02*
X86600000Y-126700000D01*
X84100000Y-115650000D02*
X84100000Y-120250000D01*
X86600000Y-130654000D02*
X86600000Y-126746000D01*
X77975000Y-130654000D02*
G75*
G02*
X75711000Y-128770000I-190000J2074000D01*
G01*
X79230000Y-122450000D02*
G75*
G02*
X81600000Y-120280000I2270000J-100000D01*
G01*
X79520000Y-116400000D02*
G75*
G02*
X78300000Y-117820000I-1320000J-100000D01*
G01*
X81575000Y-126650000D02*
G75*
G02*
X79315000Y-124770000I-190000J2070000D01*
G01*
%TO.C,SW1*%
X55500000Y-79850000D02*
X55500000Y-84450000D01*
X55500000Y-84475000D02*
X60225000Y-84475000D01*
X55525000Y-79825000D02*
X59300000Y-79825000D01*
X56700000Y-86755000D02*
X56700000Y-90700000D01*
X58975000Y-92654000D02*
X67600000Y-92654000D01*
X60310000Y-86746000D02*
X56700000Y-86746000D01*
X60520000Y-77650000D02*
X60520000Y-78350000D01*
X60525000Y-77625000D02*
X65075000Y-77625000D01*
X62525000Y-82275000D02*
X65075000Y-82275000D01*
X62550000Y-88654000D02*
X67600000Y-88700000D01*
X65100000Y-77650000D02*
X65100000Y-82250000D01*
X67600000Y-92654000D02*
X67600000Y-88746000D01*
X58975000Y-92654000D02*
G75*
G02*
X56711000Y-90770000I-190000J2074000D01*
G01*
X60230000Y-84450000D02*
G75*
G02*
X62600000Y-82280000I2270000J-100000D01*
G01*
X60520000Y-78400000D02*
G75*
G02*
X59300000Y-79820000I-1320000J-100000D01*
G01*
X62575000Y-88650000D02*
G75*
G02*
X60315000Y-86770000I-190000J2070000D01*
G01*
%TO.C,SW4*%
X55500000Y-98850000D02*
X55500000Y-103450000D01*
X55500000Y-103475000D02*
X60225000Y-103475000D01*
X55525000Y-98825000D02*
X59300000Y-98825000D01*
X56700000Y-105755000D02*
X56700000Y-109700000D01*
X58975000Y-111654000D02*
X67600000Y-111654000D01*
X60310000Y-105746000D02*
X56700000Y-105746000D01*
X60520000Y-96650000D02*
X60520000Y-97350000D01*
X60525000Y-96625000D02*
X65075000Y-96625000D01*
X62525000Y-101275000D02*
X65075000Y-101275000D01*
X62550000Y-107654000D02*
X67600000Y-107700000D01*
X65100000Y-96650000D02*
X65100000Y-101250000D01*
X67600000Y-111654000D02*
X67600000Y-107746000D01*
X58975000Y-111654000D02*
G75*
G02*
X56711000Y-109770000I-190000J2074000D01*
G01*
X60230000Y-103450000D02*
G75*
G02*
X62600000Y-101280000I2270000J-100000D01*
G01*
X60520000Y-97400000D02*
G75*
G02*
X59300000Y-98820000I-1320000J-100000D01*
G01*
X62575000Y-107650000D02*
G75*
G02*
X60315000Y-105770000I-190000J2070000D01*
G01*
%TO.C,SW3*%
X93500000Y-79850000D02*
X93500000Y-84450000D01*
X93500000Y-84475000D02*
X98225000Y-84475000D01*
X93525000Y-79825000D02*
X97300000Y-79825000D01*
X94700000Y-86755000D02*
X94700000Y-90700000D01*
X96975000Y-92654000D02*
X105600000Y-92654000D01*
X98310000Y-86746000D02*
X94700000Y-86746000D01*
X98520000Y-77650000D02*
X98520000Y-78350000D01*
X98525000Y-77625000D02*
X103075000Y-77625000D01*
X100525000Y-82275000D02*
X103075000Y-82275000D01*
X100550000Y-88654000D02*
X105600000Y-88700000D01*
X103100000Y-77650000D02*
X103100000Y-82250000D01*
X105600000Y-92654000D02*
X105600000Y-88746000D01*
X96975000Y-92654000D02*
G75*
G02*
X94711000Y-90770000I-190000J2074000D01*
G01*
X98230000Y-84450000D02*
G75*
G02*
X100600000Y-82280000I2270000J-100000D01*
G01*
X98520000Y-78400000D02*
G75*
G02*
X97300000Y-79820000I-1320000J-100000D01*
G01*
X100575000Y-88650000D02*
G75*
G02*
X98315000Y-86770000I-190000J2070000D01*
G01*
%TO.C,SW7*%
X55500000Y-117850000D02*
X55500000Y-122450000D01*
X55500000Y-122475000D02*
X60225000Y-122475000D01*
X55525000Y-117825000D02*
X59300000Y-117825000D01*
X56700000Y-124755000D02*
X56700000Y-128700000D01*
X58975000Y-130654000D02*
X67600000Y-130654000D01*
X60310000Y-124746000D02*
X56700000Y-124746000D01*
X60520000Y-115650000D02*
X60520000Y-116350000D01*
X60525000Y-115625000D02*
X65075000Y-115625000D01*
X62525000Y-120275000D02*
X65075000Y-120275000D01*
X62550000Y-126654000D02*
X67600000Y-126700000D01*
X65100000Y-115650000D02*
X65100000Y-120250000D01*
X67600000Y-130654000D02*
X67600000Y-126746000D01*
X58975000Y-130654000D02*
G75*
G02*
X56711000Y-128770000I-190000J2074000D01*
G01*
X60230000Y-122450000D02*
G75*
G02*
X62600000Y-120280000I2270000J-100000D01*
G01*
X60520000Y-116400000D02*
G75*
G02*
X59300000Y-117820000I-1320000J-100000D01*
G01*
X62575000Y-126650000D02*
G75*
G02*
X60315000Y-124770000I-190000J2070000D01*
G01*
%TO.C,SW5*%
X74500000Y-98850000D02*
X74500000Y-103450000D01*
X74500000Y-103475000D02*
X79225000Y-103475000D01*
X74525000Y-98825000D02*
X78300000Y-98825000D01*
X75700000Y-105755000D02*
X75700000Y-109700000D01*
X77975000Y-111654000D02*
X86600000Y-111654000D01*
X79310000Y-105746000D02*
X75700000Y-105746000D01*
X79520000Y-96650000D02*
X79520000Y-97350000D01*
X79525000Y-96625000D02*
X84075000Y-96625000D01*
X81525000Y-101275000D02*
X84075000Y-101275000D01*
X81550000Y-107654000D02*
X86600000Y-107700000D01*
X84100000Y-96650000D02*
X84100000Y-101250000D01*
X86600000Y-111654000D02*
X86600000Y-107746000D01*
X77975000Y-111654000D02*
G75*
G02*
X75711000Y-109770000I-190000J2074000D01*
G01*
X79230000Y-103450000D02*
G75*
G02*
X81600000Y-101280000I2270000J-100000D01*
G01*
X79520000Y-97400000D02*
G75*
G02*
X78300000Y-98820000I-1320000J-100000D01*
G01*
X81575000Y-107650000D02*
G75*
G02*
X79315000Y-105770000I-190000J2070000D01*
G01*
%TO.C,SW2*%
X74500000Y-79850000D02*
X74500000Y-84450000D01*
X74500000Y-84475000D02*
X79225000Y-84475000D01*
X74525000Y-79825000D02*
X78300000Y-79825000D01*
X75700000Y-86755000D02*
X75700000Y-90700000D01*
X77975000Y-92654000D02*
X86600000Y-92654000D01*
X79310000Y-86746000D02*
X75700000Y-86746000D01*
X79520000Y-77650000D02*
X79520000Y-78350000D01*
X79525000Y-77625000D02*
X84075000Y-77625000D01*
X81525000Y-82275000D02*
X84075000Y-82275000D01*
X81550000Y-88654000D02*
X86600000Y-88700000D01*
X84100000Y-77650000D02*
X84100000Y-82250000D01*
X86600000Y-92654000D02*
X86600000Y-88746000D01*
X77975000Y-92654000D02*
G75*
G02*
X75711000Y-90770000I-190000J2074000D01*
G01*
X79230000Y-84450000D02*
G75*
G02*
X81600000Y-82280000I2270000J-100000D01*
G01*
X79520000Y-78400000D02*
G75*
G02*
X78300000Y-79820000I-1320000J-100000D01*
G01*
X81575000Y-88650000D02*
G75*
G02*
X79315000Y-86770000I-190000J2070000D01*
G01*
%TO.C,SW6*%
X93500000Y-98850000D02*
X93500000Y-103450000D01*
X93500000Y-103475000D02*
X98225000Y-103475000D01*
X93525000Y-98825000D02*
X97300000Y-98825000D01*
X94700000Y-105755000D02*
X94700000Y-109700000D01*
X96975000Y-111654000D02*
X105600000Y-111654000D01*
X98310000Y-105746000D02*
X94700000Y-105746000D01*
X98520000Y-96650000D02*
X98520000Y-97350000D01*
X98525000Y-96625000D02*
X103075000Y-96625000D01*
X100525000Y-101275000D02*
X103075000Y-101275000D01*
X100550000Y-107654000D02*
X105600000Y-107700000D01*
X103100000Y-96650000D02*
X103100000Y-101250000D01*
X105600000Y-111654000D02*
X105600000Y-107746000D01*
X96975000Y-111654000D02*
G75*
G02*
X94711000Y-109770000I-190000J2074000D01*
G01*
X98230000Y-103450000D02*
G75*
G02*
X100600000Y-101280000I2270000J-100000D01*
G01*
X98520000Y-97400000D02*
G75*
G02*
X97300000Y-98820000I-1320000J-100000D01*
G01*
X100575000Y-107650000D02*
G75*
G02*
X98315000Y-105770000I-190000J2070000D01*
G01*
%TO.C,SW9*%
X93500000Y-117850000D02*
X93500000Y-122450000D01*
X93500000Y-122475000D02*
X98225000Y-122475000D01*
X93525000Y-117825000D02*
X97300000Y-117825000D01*
X94700000Y-124755000D02*
X94700000Y-128700000D01*
X96975000Y-130654000D02*
X105600000Y-130654000D01*
X98310000Y-124746000D02*
X94700000Y-124746000D01*
X98520000Y-115650000D02*
X98520000Y-116350000D01*
X98525000Y-115625000D02*
X103075000Y-115625000D01*
X100525000Y-120275000D02*
X103075000Y-120275000D01*
X100550000Y-126654000D02*
X105600000Y-126700000D01*
X103100000Y-115650000D02*
X103100000Y-120250000D01*
X105600000Y-130654000D02*
X105600000Y-126746000D01*
X96975000Y-130654000D02*
G75*
G02*
X94711000Y-128770000I-190000J2074000D01*
G01*
X98230000Y-122450000D02*
G75*
G02*
X100600000Y-120280000I2270000J-100000D01*
G01*
X98520000Y-116400000D02*
G75*
G02*
X97300000Y-117820000I-1320000J-100000D01*
G01*
X100575000Y-126650000D02*
G75*
G02*
X98315000Y-124770000I-190000J2070000D01*
G01*
%TD*%
%LPC*%
D15*
%TO.C,C2*%
X56000000Y-74230000D03*
X56000000Y-73270000D03*
%TD*%
D16*
%TO.C,R2*%
X75500000Y-73750000D03*
X73675000Y-73750000D03*
%TD*%
D17*
%TO.C,U3*%
X89600000Y-61450000D03*
X89600000Y-63750000D03*
D18*
X95900000Y-63750000D03*
D17*
X89600000Y-66050000D03*
%TD*%
D16*
%TO.C,R1*%
X75412500Y-71750000D03*
X73587500Y-71750000D03*
%TD*%
D19*
%TO.C,R5*%
X84010000Y-72151000D03*
X84010000Y-71131000D03*
%TD*%
D20*
%TO.C,C13*%
X70040000Y-76250000D03*
X71000000Y-76250000D03*
%TD*%
D21*
%TO.C,C11*%
X64250000Y-75770000D03*
X64250000Y-76730000D03*
%TD*%
D20*
%TO.C,C4*%
X70040000Y-74250000D03*
X71000000Y-74250000D03*
%TD*%
D22*
%TO.C,U1*%
X67800000Y-67750000D03*
X67400000Y-67750000D03*
X67000000Y-67750000D03*
X66600000Y-67750000D03*
X66200000Y-67750000D03*
X65800000Y-67750000D03*
X65400000Y-67750000D03*
X65000000Y-67750000D03*
X64600000Y-67750000D03*
X64200000Y-67750000D03*
X63800000Y-67750000D03*
X63400000Y-67750000D03*
X63000000Y-67750000D03*
X62600000Y-67750000D03*
D23*
X61762500Y-68587500D03*
X61762500Y-68987500D03*
X61762500Y-69387500D03*
X61762500Y-69787500D03*
X61762500Y-70187500D03*
X61762500Y-70587500D03*
X61762500Y-70987500D03*
X61762500Y-71387500D03*
X61762500Y-71787500D03*
X61762500Y-72187500D03*
X61762500Y-72587500D03*
X61762500Y-72987500D03*
X61762500Y-73387500D03*
X61762500Y-73787500D03*
D22*
X62600000Y-74625000D03*
X63000000Y-74625000D03*
X63400000Y-74625000D03*
X63800000Y-74625000D03*
X64200000Y-74625000D03*
X64600000Y-74625000D03*
X65000000Y-74625000D03*
X65400000Y-74625000D03*
X65800000Y-74625000D03*
X66200000Y-74625000D03*
X66600000Y-74625000D03*
X67000000Y-74625000D03*
X67400000Y-74625000D03*
X67800000Y-74625000D03*
D23*
X68637500Y-73787500D03*
X68637500Y-73387500D03*
X68637500Y-72987500D03*
X68637500Y-72587500D03*
X68637500Y-72187500D03*
X68637500Y-71787500D03*
X68637500Y-71387500D03*
X68637500Y-70987500D03*
X68637500Y-70587500D03*
X68637500Y-70187500D03*
X68637500Y-69787500D03*
X68637500Y-69387500D03*
X68637500Y-68987500D03*
X68637500Y-68587500D03*
D24*
X65200000Y-71187500D03*
%TD*%
D15*
%TO.C,C8*%
X104000000Y-74500000D03*
X104000000Y-73540000D03*
%TD*%
D25*
%TO.C,USBC1*%
X77630000Y-65640000D03*
X85890000Y-65640000D03*
X86250000Y-61250000D03*
X77270000Y-61250000D03*
D26*
X84509500Y-67641000D03*
X84010000Y-67641000D03*
X83511000Y-67641000D03*
X83010500Y-67641000D03*
X82510500Y-67641000D03*
X82010000Y-67641000D03*
X81509500Y-67641000D03*
X81009000Y-67641000D03*
X80510000Y-67641000D03*
X80011000Y-67641000D03*
X79510500Y-67641000D03*
X79010000Y-67641000D03*
D27*
X78960000Y-66240000D03*
X79360000Y-65540000D03*
X80160000Y-65540000D03*
X80560000Y-66240000D03*
X80960000Y-65540000D03*
X81360000Y-66240000D03*
X82160000Y-66240000D03*
X82560000Y-65540000D03*
X82960000Y-66240000D03*
X83360000Y-65540000D03*
X84160000Y-65540000D03*
X84560000Y-66240000D03*
%TD*%
D19*
%TO.C,R3*%
X104000000Y-68040000D03*
X104000000Y-67020000D03*
%TD*%
D20*
%TO.C,C5*%
X72020000Y-69750000D03*
X72980000Y-69750000D03*
%TD*%
D15*
%TO.C,C7*%
X69000000Y-66250000D03*
X69000000Y-65290000D03*
%TD*%
D28*
%TO.C,SWD*%
X55750000Y-76446500D03*
X58750000Y-76446500D03*
X61750000Y-76446500D03*
%TD*%
D20*
%TO.C,C10*%
X71040000Y-71250000D03*
X72000000Y-71250000D03*
%TD*%
D29*
%TO.C,C9*%
X58980000Y-71750000D03*
X58020000Y-71750000D03*
%TD*%
D30*
%TO.C,U2*%
X102405000Y-67420000D03*
X101135000Y-67420000D03*
X99865000Y-67420000D03*
X98595000Y-67420000D03*
X98595000Y-74620000D03*
X99865000Y-74620000D03*
X101135000Y-74620000D03*
X102405000Y-74620000D03*
%TD*%
D20*
%TO.C,C16*%
X70020000Y-75250000D03*
X70980000Y-75250000D03*
%TD*%
D31*
%TO.C,C15*%
X98025000Y-61500000D03*
X100975000Y-61500000D03*
%TD*%
D21*
%TO.C,C1*%
X54500000Y-67270000D03*
X54500000Y-68230000D03*
%TD*%
D20*
%TO.C,C6*%
X70000000Y-77250000D03*
X70960000Y-77250000D03*
%TD*%
D15*
%TO.C,C12*%
X64000000Y-64480000D03*
X64000000Y-63520000D03*
%TD*%
D32*
%TO.C,JP1*%
X105950000Y-70020000D03*
D33*
X104500000Y-70020000D03*
%TD*%
D21*
%TO.C,C3*%
X58500000Y-73270000D03*
X58500000Y-74230000D03*
%TD*%
D34*
%TO.C,Y1*%
X56000000Y-71750000D03*
X56000000Y-69850000D03*
X54500000Y-69850000D03*
X54500000Y-71750000D03*
%TD*%
D31*
%TO.C,C14*%
X89300000Y-68500000D03*
X92250000Y-68500000D03*
%TD*%
D35*
%TO.C,SW8*%
X76300000Y-123850000D03*
D36*
X76720000Y-123850000D03*
D37*
X76800000Y-120150000D03*
D36*
X77300000Y-123850000D03*
D37*
X77990000Y-126390000D03*
X81800000Y-117950000D03*
D38*
X81800000Y-123850000D03*
D37*
X84340000Y-128930000D03*
D36*
X86300000Y-123850000D03*
X86880000Y-123850000D03*
D35*
X87300000Y-123850000D03*
D39*
X73050000Y-120150000D03*
D40*
X73700000Y-119400000D03*
D41*
X73700000Y-120150000D03*
D40*
X73700000Y-120900000D03*
D42*
X74150000Y-126390000D03*
X74450000Y-120150000D03*
D40*
X74900000Y-125640000D03*
D41*
X74900000Y-126390000D03*
D40*
X74900000Y-127140000D03*
D42*
X75650000Y-126390000D03*
X84150000Y-117960000D03*
D40*
X84900000Y-117210000D03*
D41*
X84900000Y-117960000D03*
D40*
X84900000Y-118710000D03*
D42*
X85650000Y-117960000D03*
X86650000Y-128930000D03*
D40*
X87400000Y-128180000D03*
D41*
X87400000Y-128930000D03*
D43*
X87461250Y-129680000D03*
D44*
X88025000Y-129555000D03*
D45*
X88150000Y-128742500D03*
%TD*%
D35*
%TO.C,SW1*%
X57300000Y-85850000D03*
D36*
X57720000Y-85850000D03*
D37*
X57800000Y-82150000D03*
D36*
X58300000Y-85850000D03*
D37*
X58990000Y-88390000D03*
X62800000Y-79950000D03*
D38*
X62800000Y-85850000D03*
D37*
X65340000Y-90930000D03*
D36*
X67300000Y-85850000D03*
X67880000Y-85850000D03*
D35*
X68300000Y-85850000D03*
D39*
X54050000Y-82150000D03*
D40*
X54700000Y-81400000D03*
D41*
X54700000Y-82150000D03*
D40*
X54700000Y-82900000D03*
D42*
X55150000Y-88390000D03*
X55450000Y-82150000D03*
D40*
X55900000Y-87640000D03*
D41*
X55900000Y-88390000D03*
D40*
X55900000Y-89140000D03*
D42*
X56650000Y-88390000D03*
X65150000Y-79960000D03*
D40*
X65900000Y-79210000D03*
D41*
X65900000Y-79960000D03*
D40*
X65900000Y-80710000D03*
D42*
X66650000Y-79960000D03*
X67650000Y-90930000D03*
D40*
X68400000Y-90180000D03*
D41*
X68400000Y-90930000D03*
D43*
X68461250Y-91680000D03*
D44*
X69025000Y-91555000D03*
D45*
X69150000Y-90742500D03*
%TD*%
D35*
%TO.C,SW4*%
X57300000Y-104850000D03*
D36*
X57720000Y-104850000D03*
D37*
X57800000Y-101150000D03*
D36*
X58300000Y-104850000D03*
D37*
X58990000Y-107390000D03*
X62800000Y-98950000D03*
D38*
X62800000Y-104850000D03*
D37*
X65340000Y-109930000D03*
D36*
X67300000Y-104850000D03*
X67880000Y-104850000D03*
D35*
X68300000Y-104850000D03*
D39*
X54050000Y-101150000D03*
D40*
X54700000Y-100400000D03*
D41*
X54700000Y-101150000D03*
D40*
X54700000Y-101900000D03*
D42*
X55150000Y-107390000D03*
X55450000Y-101150000D03*
D40*
X55900000Y-106640000D03*
D41*
X55900000Y-107390000D03*
D40*
X55900000Y-108140000D03*
D42*
X56650000Y-107390000D03*
X65150000Y-98960000D03*
D40*
X65900000Y-98210000D03*
D41*
X65900000Y-98960000D03*
D40*
X65900000Y-99710000D03*
D42*
X66650000Y-98960000D03*
X67650000Y-109930000D03*
D40*
X68400000Y-109180000D03*
D41*
X68400000Y-109930000D03*
D43*
X68461250Y-110680000D03*
D44*
X69025000Y-110555000D03*
D45*
X69150000Y-109742500D03*
%TD*%
D35*
%TO.C,SW3*%
X95300000Y-85850000D03*
D36*
X95720000Y-85850000D03*
D37*
X95800000Y-82150000D03*
D36*
X96300000Y-85850000D03*
D37*
X96990000Y-88390000D03*
X100800000Y-79950000D03*
D38*
X100800000Y-85850000D03*
D37*
X103340000Y-90930000D03*
D36*
X105300000Y-85850000D03*
X105880000Y-85850000D03*
D35*
X106300000Y-85850000D03*
D39*
X92050000Y-82150000D03*
D40*
X92700000Y-81400000D03*
D41*
X92700000Y-82150000D03*
D40*
X92700000Y-82900000D03*
D42*
X93150000Y-88390000D03*
X93450000Y-82150000D03*
D40*
X93900000Y-87640000D03*
D41*
X93900000Y-88390000D03*
D40*
X93900000Y-89140000D03*
D42*
X94650000Y-88390000D03*
X103150000Y-79960000D03*
D40*
X103900000Y-79210000D03*
D41*
X103900000Y-79960000D03*
D40*
X103900000Y-80710000D03*
D42*
X104650000Y-79960000D03*
X105650000Y-90930000D03*
D40*
X106400000Y-90180000D03*
D41*
X106400000Y-90930000D03*
D43*
X106461250Y-91680000D03*
D44*
X107025000Y-91555000D03*
D45*
X107150000Y-90742500D03*
%TD*%
D35*
%TO.C,SW7*%
X57300000Y-123850000D03*
D36*
X57720000Y-123850000D03*
D37*
X57800000Y-120150000D03*
D36*
X58300000Y-123850000D03*
D37*
X58990000Y-126390000D03*
X62800000Y-117950000D03*
D38*
X62800000Y-123850000D03*
D37*
X65340000Y-128930000D03*
D36*
X67300000Y-123850000D03*
X67880000Y-123850000D03*
D35*
X68300000Y-123850000D03*
D39*
X54050000Y-120150000D03*
D40*
X54700000Y-119400000D03*
D41*
X54700000Y-120150000D03*
D40*
X54700000Y-120900000D03*
D42*
X55150000Y-126390000D03*
X55450000Y-120150000D03*
D40*
X55900000Y-125640000D03*
D41*
X55900000Y-126390000D03*
D40*
X55900000Y-127140000D03*
D42*
X56650000Y-126390000D03*
X65150000Y-117960000D03*
D40*
X65900000Y-117210000D03*
D41*
X65900000Y-117960000D03*
D40*
X65900000Y-118710000D03*
D42*
X66650000Y-117960000D03*
X67650000Y-128930000D03*
D40*
X68400000Y-128180000D03*
D41*
X68400000Y-128930000D03*
D43*
X68461250Y-129680000D03*
D44*
X69025000Y-129555000D03*
D45*
X69150000Y-128742500D03*
%TD*%
D35*
%TO.C,SW5*%
X76300000Y-104850000D03*
D36*
X76720000Y-104850000D03*
D37*
X76800000Y-101150000D03*
D36*
X77300000Y-104850000D03*
D37*
X77990000Y-107390000D03*
X81800000Y-98950000D03*
D38*
X81800000Y-104850000D03*
D37*
X84340000Y-109930000D03*
D36*
X86300000Y-104850000D03*
X86880000Y-104850000D03*
D35*
X87300000Y-104850000D03*
D39*
X73050000Y-101150000D03*
D40*
X73700000Y-100400000D03*
D41*
X73700000Y-101150000D03*
D40*
X73700000Y-101900000D03*
D42*
X74150000Y-107390000D03*
X74450000Y-101150000D03*
D40*
X74900000Y-106640000D03*
D41*
X74900000Y-107390000D03*
D40*
X74900000Y-108140000D03*
D42*
X75650000Y-107390000D03*
X84150000Y-98960000D03*
D40*
X84900000Y-98210000D03*
D41*
X84900000Y-98960000D03*
D40*
X84900000Y-99710000D03*
D42*
X85650000Y-98960000D03*
X86650000Y-109930000D03*
D40*
X87400000Y-109180000D03*
D41*
X87400000Y-109930000D03*
D43*
X87461250Y-110680000D03*
D44*
X88025000Y-110555000D03*
D45*
X88150000Y-109742500D03*
%TD*%
D35*
%TO.C,SW2*%
X76300000Y-85850000D03*
D36*
X76720000Y-85850000D03*
D37*
X76800000Y-82150000D03*
D36*
X77300000Y-85850000D03*
D37*
X77990000Y-88390000D03*
X81800000Y-79950000D03*
D38*
X81800000Y-85850000D03*
D37*
X84340000Y-90930000D03*
D36*
X86300000Y-85850000D03*
X86880000Y-85850000D03*
D35*
X87300000Y-85850000D03*
D39*
X73050000Y-82150000D03*
D40*
X73700000Y-81400000D03*
D41*
X73700000Y-82150000D03*
D40*
X73700000Y-82900000D03*
D42*
X74150000Y-88390000D03*
X74450000Y-82150000D03*
D40*
X74900000Y-87640000D03*
D41*
X74900000Y-88390000D03*
D40*
X74900000Y-89140000D03*
D42*
X75650000Y-88390000D03*
X84150000Y-79960000D03*
D40*
X84900000Y-79210000D03*
D41*
X84900000Y-79960000D03*
D40*
X84900000Y-80710000D03*
D42*
X85650000Y-79960000D03*
X86650000Y-90930000D03*
D40*
X87400000Y-90180000D03*
D41*
X87400000Y-90930000D03*
D43*
X87461250Y-91680000D03*
D44*
X88025000Y-91555000D03*
D45*
X88150000Y-90742500D03*
%TD*%
D35*
%TO.C,SW6*%
X95300000Y-104850000D03*
D36*
X95720000Y-104850000D03*
D37*
X95800000Y-101150000D03*
D36*
X96300000Y-104850000D03*
D37*
X96990000Y-107390000D03*
X100800000Y-98950000D03*
D38*
X100800000Y-104850000D03*
D37*
X103340000Y-109930000D03*
D36*
X105300000Y-104850000D03*
X105880000Y-104850000D03*
D35*
X106300000Y-104850000D03*
D39*
X92050000Y-101150000D03*
D40*
X92700000Y-100400000D03*
D41*
X92700000Y-101150000D03*
D40*
X92700000Y-101900000D03*
D42*
X93150000Y-107390000D03*
X93450000Y-101150000D03*
D40*
X93900000Y-106640000D03*
D41*
X93900000Y-107390000D03*
D40*
X93900000Y-108140000D03*
D42*
X94650000Y-107390000D03*
X103150000Y-98960000D03*
D40*
X103900000Y-98210000D03*
D41*
X103900000Y-98960000D03*
D40*
X103900000Y-99710000D03*
D42*
X104650000Y-98960000D03*
X105650000Y-109930000D03*
D40*
X106400000Y-109180000D03*
D41*
X106400000Y-109930000D03*
D43*
X106461250Y-110680000D03*
D44*
X107025000Y-110555000D03*
D45*
X107150000Y-109742500D03*
%TD*%
D35*
%TO.C,SW9*%
X95300000Y-123850000D03*
D36*
X95720000Y-123850000D03*
D37*
X95800000Y-120150000D03*
D36*
X96300000Y-123850000D03*
D37*
X96990000Y-126390000D03*
X100800000Y-117950000D03*
D38*
X100800000Y-123850000D03*
D37*
X103340000Y-128930000D03*
D36*
X105300000Y-123850000D03*
X105880000Y-123850000D03*
D35*
X106300000Y-123850000D03*
D39*
X92050000Y-120150000D03*
D40*
X92700000Y-119400000D03*
D41*
X92700000Y-120150000D03*
D40*
X92700000Y-120900000D03*
D42*
X93150000Y-126390000D03*
X93450000Y-120150000D03*
D40*
X93900000Y-125640000D03*
D41*
X93900000Y-126390000D03*
D40*
X93900000Y-127140000D03*
D42*
X94650000Y-126390000D03*
X103150000Y-117960000D03*
D40*
X103900000Y-117210000D03*
D41*
X103900000Y-117960000D03*
D40*
X103900000Y-118710000D03*
D42*
X104650000Y-117960000D03*
X105650000Y-128930000D03*
D40*
X106400000Y-128180000D03*
D41*
X106400000Y-128930000D03*
D43*
X106461250Y-129680000D03*
D44*
X107025000Y-129555000D03*
D45*
X107150000Y-128742500D03*
%TD*%
%LPD*%
M02*
